%TF.GenerationSoftware,KiCad,Pcbnew,8.0.7-8.0.7-0~ubuntu22.04.1*%
%TF.CreationDate,2025-12-10T15:44:19+01:00*%
%TF.ProjectId,Electrobot-G474,456c6563-7472-46f6-926f-742d47343734,rev?*%
%TF.SameCoordinates,Original*%
%TF.FileFunction,Legend,Bot*%
%TF.FilePolarity,Positive*%
%FSLAX46Y46*%
G04 Gerber Fmt 4.6, Leading zero omitted, Abs format (unit mm)*
G04 Created by KiCad (PCBNEW 8.0.7-8.0.7-0~ubuntu22.04.1) date 2025-12-10 15:44:19*
%MOMM*%
%LPD*%
G01*
G04 APERTURE LIST*
%ADD10C,0.150000*%
%ADD11C,0.100000*%
%ADD12C,0.426431*%
%ADD13C,0.250000*%
%ADD14C,0.120000*%
G04 APERTURE END LIST*
D10*
X125763220Y-128718866D02*
X125001316Y-128718866D01*
X125382268Y-129099819D02*
X125382268Y-128337914D01*
X125643220Y-120828866D02*
X124881316Y-120828866D01*
X125700839Y-126362200D02*
X125557982Y-126409819D01*
X125557982Y-126409819D02*
X125319887Y-126409819D01*
X125319887Y-126409819D02*
X125224649Y-126362200D01*
X125224649Y-126362200D02*
X125177030Y-126314580D01*
X125177030Y-126314580D02*
X125129411Y-126219342D01*
X125129411Y-126219342D02*
X125129411Y-126124104D01*
X125129411Y-126124104D02*
X125177030Y-126028866D01*
X125177030Y-126028866D02*
X125224649Y-125981247D01*
X125224649Y-125981247D02*
X125319887Y-125933628D01*
X125319887Y-125933628D02*
X125510363Y-125886009D01*
X125510363Y-125886009D02*
X125605601Y-125838390D01*
X125605601Y-125838390D02*
X125653220Y-125790771D01*
X125653220Y-125790771D02*
X125700839Y-125695533D01*
X125700839Y-125695533D02*
X125700839Y-125600295D01*
X125700839Y-125600295D02*
X125653220Y-125505057D01*
X125653220Y-125505057D02*
X125605601Y-125457438D01*
X125605601Y-125457438D02*
X125510363Y-125409819D01*
X125510363Y-125409819D02*
X125272268Y-125409819D01*
X125272268Y-125409819D02*
X125129411Y-125457438D01*
X124700839Y-126409819D02*
X124700839Y-125409819D01*
X124700839Y-125409819D02*
X124462744Y-125409819D01*
X124462744Y-125409819D02*
X124319887Y-125457438D01*
X124319887Y-125457438D02*
X124224649Y-125552676D01*
X124224649Y-125552676D02*
X124177030Y-125647914D01*
X124177030Y-125647914D02*
X124129411Y-125838390D01*
X124129411Y-125838390D02*
X124129411Y-125981247D01*
X124129411Y-125981247D02*
X124177030Y-126171723D01*
X124177030Y-126171723D02*
X124224649Y-126266961D01*
X124224649Y-126266961D02*
X124319887Y-126362200D01*
X124319887Y-126362200D02*
X124462744Y-126409819D01*
X124462744Y-126409819D02*
X124700839Y-126409819D01*
X123748458Y-126124104D02*
X123272268Y-126124104D01*
X123843696Y-126409819D02*
X123510363Y-125409819D01*
X123510363Y-125409819D02*
X123177030Y-126409819D01*
X125810839Y-123902200D02*
X125667982Y-123949819D01*
X125667982Y-123949819D02*
X125429887Y-123949819D01*
X125429887Y-123949819D02*
X125334649Y-123902200D01*
X125334649Y-123902200D02*
X125287030Y-123854580D01*
X125287030Y-123854580D02*
X125239411Y-123759342D01*
X125239411Y-123759342D02*
X125239411Y-123664104D01*
X125239411Y-123664104D02*
X125287030Y-123568866D01*
X125287030Y-123568866D02*
X125334649Y-123521247D01*
X125334649Y-123521247D02*
X125429887Y-123473628D01*
X125429887Y-123473628D02*
X125620363Y-123426009D01*
X125620363Y-123426009D02*
X125715601Y-123378390D01*
X125715601Y-123378390D02*
X125763220Y-123330771D01*
X125763220Y-123330771D02*
X125810839Y-123235533D01*
X125810839Y-123235533D02*
X125810839Y-123140295D01*
X125810839Y-123140295D02*
X125763220Y-123045057D01*
X125763220Y-123045057D02*
X125715601Y-122997438D01*
X125715601Y-122997438D02*
X125620363Y-122949819D01*
X125620363Y-122949819D02*
X125382268Y-122949819D01*
X125382268Y-122949819D02*
X125239411Y-122997438D01*
X124239411Y-123854580D02*
X124287030Y-123902200D01*
X124287030Y-123902200D02*
X124429887Y-123949819D01*
X124429887Y-123949819D02*
X124525125Y-123949819D01*
X124525125Y-123949819D02*
X124667982Y-123902200D01*
X124667982Y-123902200D02*
X124763220Y-123806961D01*
X124763220Y-123806961D02*
X124810839Y-123711723D01*
X124810839Y-123711723D02*
X124858458Y-123521247D01*
X124858458Y-123521247D02*
X124858458Y-123378390D01*
X124858458Y-123378390D02*
X124810839Y-123187914D01*
X124810839Y-123187914D02*
X124763220Y-123092676D01*
X124763220Y-123092676D02*
X124667982Y-122997438D01*
X124667982Y-122997438D02*
X124525125Y-122949819D01*
X124525125Y-122949819D02*
X124429887Y-122949819D01*
X124429887Y-122949819D02*
X124287030Y-122997438D01*
X124287030Y-122997438D02*
X124239411Y-123045057D01*
X123334649Y-123949819D02*
X123810839Y-123949819D01*
X123810839Y-123949819D02*
X123810839Y-122949819D01*
X126923220Y-116569819D02*
X126923220Y-115569819D01*
X126494649Y-115665057D02*
X126447030Y-115617438D01*
X126447030Y-115617438D02*
X126351792Y-115569819D01*
X126351792Y-115569819D02*
X126113697Y-115569819D01*
X126113697Y-115569819D02*
X126018459Y-115617438D01*
X126018459Y-115617438D02*
X125970840Y-115665057D01*
X125970840Y-115665057D02*
X125923221Y-115760295D01*
X125923221Y-115760295D02*
X125923221Y-115855533D01*
X125923221Y-115855533D02*
X125970840Y-115998390D01*
X125970840Y-115998390D02*
X126542268Y-116569819D01*
X126542268Y-116569819D02*
X125923221Y-116569819D01*
X124923221Y-116474580D02*
X124970840Y-116522200D01*
X124970840Y-116522200D02*
X125113697Y-116569819D01*
X125113697Y-116569819D02*
X125208935Y-116569819D01*
X125208935Y-116569819D02*
X125351792Y-116522200D01*
X125351792Y-116522200D02*
X125447030Y-116426961D01*
X125447030Y-116426961D02*
X125494649Y-116331723D01*
X125494649Y-116331723D02*
X125542268Y-116141247D01*
X125542268Y-116141247D02*
X125542268Y-115998390D01*
X125542268Y-115998390D02*
X125494649Y-115807914D01*
X125494649Y-115807914D02*
X125447030Y-115712676D01*
X125447030Y-115712676D02*
X125351792Y-115617438D01*
X125351792Y-115617438D02*
X125208935Y-115569819D01*
X125208935Y-115569819D02*
X125113697Y-115569819D01*
X125113697Y-115569819D02*
X124970840Y-115617438D01*
X124970840Y-115617438D02*
X124923221Y-115665057D01*
X138131792Y-98514580D02*
X138179411Y-98562200D01*
X138179411Y-98562200D02*
X138322268Y-98609819D01*
X138322268Y-98609819D02*
X138417506Y-98609819D01*
X138417506Y-98609819D02*
X138560363Y-98562200D01*
X138560363Y-98562200D02*
X138655601Y-98466961D01*
X138655601Y-98466961D02*
X138703220Y-98371723D01*
X138703220Y-98371723D02*
X138750839Y-98181247D01*
X138750839Y-98181247D02*
X138750839Y-98038390D01*
X138750839Y-98038390D02*
X138703220Y-97847914D01*
X138703220Y-97847914D02*
X138655601Y-97752676D01*
X138655601Y-97752676D02*
X138560363Y-97657438D01*
X138560363Y-97657438D02*
X138417506Y-97609819D01*
X138417506Y-97609819D02*
X138322268Y-97609819D01*
X138322268Y-97609819D02*
X138179411Y-97657438D01*
X138179411Y-97657438D02*
X138131792Y-97705057D01*
X137750839Y-98562200D02*
X137607982Y-98609819D01*
X137607982Y-98609819D02*
X137369887Y-98609819D01*
X137369887Y-98609819D02*
X137274649Y-98562200D01*
X137274649Y-98562200D02*
X137227030Y-98514580D01*
X137227030Y-98514580D02*
X137179411Y-98419342D01*
X137179411Y-98419342D02*
X137179411Y-98324104D01*
X137179411Y-98324104D02*
X137227030Y-98228866D01*
X137227030Y-98228866D02*
X137274649Y-98181247D01*
X137274649Y-98181247D02*
X137369887Y-98133628D01*
X137369887Y-98133628D02*
X137560363Y-98086009D01*
X137560363Y-98086009D02*
X137655601Y-98038390D01*
X137655601Y-98038390D02*
X137703220Y-97990771D01*
X137703220Y-97990771D02*
X137750839Y-97895533D01*
X137750839Y-97895533D02*
X137750839Y-97800295D01*
X137750839Y-97800295D02*
X137703220Y-97705057D01*
X137703220Y-97705057D02*
X137655601Y-97657438D01*
X137655601Y-97657438D02*
X137560363Y-97609819D01*
X137560363Y-97609819D02*
X137322268Y-97609819D01*
X137322268Y-97609819D02*
X137179411Y-97657438D01*
X135753220Y-98178866D02*
X134991316Y-98178866D01*
X133243220Y-98168866D02*
X132481316Y-98168866D01*
X132862268Y-98549819D02*
X132862268Y-97787914D01*
X143950839Y-98262200D02*
X143807982Y-98309819D01*
X143807982Y-98309819D02*
X143569887Y-98309819D01*
X143569887Y-98309819D02*
X143474649Y-98262200D01*
X143474649Y-98262200D02*
X143427030Y-98214580D01*
X143427030Y-98214580D02*
X143379411Y-98119342D01*
X143379411Y-98119342D02*
X143379411Y-98024104D01*
X143379411Y-98024104D02*
X143427030Y-97928866D01*
X143427030Y-97928866D02*
X143474649Y-97881247D01*
X143474649Y-97881247D02*
X143569887Y-97833628D01*
X143569887Y-97833628D02*
X143760363Y-97786009D01*
X143760363Y-97786009D02*
X143855601Y-97738390D01*
X143855601Y-97738390D02*
X143903220Y-97690771D01*
X143903220Y-97690771D02*
X143950839Y-97595533D01*
X143950839Y-97595533D02*
X143950839Y-97500295D01*
X143950839Y-97500295D02*
X143903220Y-97405057D01*
X143903220Y-97405057D02*
X143855601Y-97357438D01*
X143855601Y-97357438D02*
X143760363Y-97309819D01*
X143760363Y-97309819D02*
X143522268Y-97309819D01*
X143522268Y-97309819D02*
X143379411Y-97357438D01*
X142950839Y-98309819D02*
X142950839Y-97309819D01*
X142950839Y-97309819D02*
X142569887Y-97309819D01*
X142569887Y-97309819D02*
X142474649Y-97357438D01*
X142474649Y-97357438D02*
X142427030Y-97405057D01*
X142427030Y-97405057D02*
X142379411Y-97500295D01*
X142379411Y-97500295D02*
X142379411Y-97643152D01*
X142379411Y-97643152D02*
X142427030Y-97738390D01*
X142427030Y-97738390D02*
X142474649Y-97786009D01*
X142474649Y-97786009D02*
X142569887Y-97833628D01*
X142569887Y-97833628D02*
X142950839Y-97833628D01*
X141950839Y-98309819D02*
X141950839Y-97309819D01*
X140962200Y-105939160D02*
X141009819Y-106082017D01*
X141009819Y-106082017D02*
X141009819Y-106320112D01*
X141009819Y-106320112D02*
X140962200Y-106415350D01*
X140962200Y-106415350D02*
X140914580Y-106462969D01*
X140914580Y-106462969D02*
X140819342Y-106510588D01*
X140819342Y-106510588D02*
X140724104Y-106510588D01*
X140724104Y-106510588D02*
X140628866Y-106462969D01*
X140628866Y-106462969D02*
X140581247Y-106415350D01*
X140581247Y-106415350D02*
X140533628Y-106320112D01*
X140533628Y-106320112D02*
X140486009Y-106129636D01*
X140486009Y-106129636D02*
X140438390Y-106034398D01*
X140438390Y-106034398D02*
X140390771Y-105986779D01*
X140390771Y-105986779D02*
X140295533Y-105939160D01*
X140295533Y-105939160D02*
X140200295Y-105939160D01*
X140200295Y-105939160D02*
X140105057Y-105986779D01*
X140105057Y-105986779D02*
X140057438Y-106034398D01*
X140057438Y-106034398D02*
X140009819Y-106129636D01*
X140009819Y-106129636D02*
X140009819Y-106367731D01*
X140009819Y-106367731D02*
X140057438Y-106510588D01*
X140914580Y-107510588D02*
X140962200Y-107462969D01*
X140962200Y-107462969D02*
X141009819Y-107320112D01*
X141009819Y-107320112D02*
X141009819Y-107224874D01*
X141009819Y-107224874D02*
X140962200Y-107082017D01*
X140962200Y-107082017D02*
X140866961Y-106986779D01*
X140866961Y-106986779D02*
X140771723Y-106939160D01*
X140771723Y-106939160D02*
X140581247Y-106891541D01*
X140581247Y-106891541D02*
X140438390Y-106891541D01*
X140438390Y-106891541D02*
X140247914Y-106939160D01*
X140247914Y-106939160D02*
X140152676Y-106986779D01*
X140152676Y-106986779D02*
X140057438Y-107082017D01*
X140057438Y-107082017D02*
X140009819Y-107224874D01*
X140009819Y-107224874D02*
X140009819Y-107320112D01*
X140009819Y-107320112D02*
X140057438Y-107462969D01*
X140057438Y-107462969D02*
X140105057Y-107510588D01*
X141009819Y-108415350D02*
X141009819Y-107939160D01*
X141009819Y-107939160D02*
X140009819Y-107939160D01*
X141009819Y-108748684D02*
X140009819Y-108748684D01*
X141009819Y-109320112D02*
X140438390Y-108891541D01*
X140009819Y-109320112D02*
X140581247Y-108748684D01*
X143539819Y-106036779D02*
X142539819Y-106036779D01*
X142539819Y-106036779D02*
X143254104Y-106370112D01*
X143254104Y-106370112D02*
X142539819Y-106703445D01*
X142539819Y-106703445D02*
X143539819Y-106703445D01*
X142539819Y-107370112D02*
X142539819Y-107560588D01*
X142539819Y-107560588D02*
X142587438Y-107655826D01*
X142587438Y-107655826D02*
X142682676Y-107751064D01*
X142682676Y-107751064D02*
X142873152Y-107798683D01*
X142873152Y-107798683D02*
X143206485Y-107798683D01*
X143206485Y-107798683D02*
X143396961Y-107751064D01*
X143396961Y-107751064D02*
X143492200Y-107655826D01*
X143492200Y-107655826D02*
X143539819Y-107560588D01*
X143539819Y-107560588D02*
X143539819Y-107370112D01*
X143539819Y-107370112D02*
X143492200Y-107274874D01*
X143492200Y-107274874D02*
X143396961Y-107179636D01*
X143396961Y-107179636D02*
X143206485Y-107132017D01*
X143206485Y-107132017D02*
X142873152Y-107132017D01*
X142873152Y-107132017D02*
X142682676Y-107179636D01*
X142682676Y-107179636D02*
X142587438Y-107274874D01*
X142587438Y-107274874D02*
X142539819Y-107370112D01*
X143492200Y-108179636D02*
X143539819Y-108322493D01*
X143539819Y-108322493D02*
X143539819Y-108560588D01*
X143539819Y-108560588D02*
X143492200Y-108655826D01*
X143492200Y-108655826D02*
X143444580Y-108703445D01*
X143444580Y-108703445D02*
X143349342Y-108751064D01*
X143349342Y-108751064D02*
X143254104Y-108751064D01*
X143254104Y-108751064D02*
X143158866Y-108703445D01*
X143158866Y-108703445D02*
X143111247Y-108655826D01*
X143111247Y-108655826D02*
X143063628Y-108560588D01*
X143063628Y-108560588D02*
X143016009Y-108370112D01*
X143016009Y-108370112D02*
X142968390Y-108274874D01*
X142968390Y-108274874D02*
X142920771Y-108227255D01*
X142920771Y-108227255D02*
X142825533Y-108179636D01*
X142825533Y-108179636D02*
X142730295Y-108179636D01*
X142730295Y-108179636D02*
X142635057Y-108227255D01*
X142635057Y-108227255D02*
X142587438Y-108274874D01*
X142587438Y-108274874D02*
X142539819Y-108370112D01*
X142539819Y-108370112D02*
X142539819Y-108608207D01*
X142539819Y-108608207D02*
X142587438Y-108751064D01*
X143539819Y-109179636D02*
X142539819Y-109179636D01*
X146069819Y-106006779D02*
X145069819Y-106006779D01*
X145069819Y-106006779D02*
X145784104Y-106340112D01*
X145784104Y-106340112D02*
X145069819Y-106673445D01*
X145069819Y-106673445D02*
X146069819Y-106673445D01*
X146069819Y-107149636D02*
X145069819Y-107149636D01*
X146022200Y-107578207D02*
X146069819Y-107721064D01*
X146069819Y-107721064D02*
X146069819Y-107959159D01*
X146069819Y-107959159D02*
X146022200Y-108054397D01*
X146022200Y-108054397D02*
X145974580Y-108102016D01*
X145974580Y-108102016D02*
X145879342Y-108149635D01*
X145879342Y-108149635D02*
X145784104Y-108149635D01*
X145784104Y-108149635D02*
X145688866Y-108102016D01*
X145688866Y-108102016D02*
X145641247Y-108054397D01*
X145641247Y-108054397D02*
X145593628Y-107959159D01*
X145593628Y-107959159D02*
X145546009Y-107768683D01*
X145546009Y-107768683D02*
X145498390Y-107673445D01*
X145498390Y-107673445D02*
X145450771Y-107625826D01*
X145450771Y-107625826D02*
X145355533Y-107578207D01*
X145355533Y-107578207D02*
X145260295Y-107578207D01*
X145260295Y-107578207D02*
X145165057Y-107625826D01*
X145165057Y-107625826D02*
X145117438Y-107673445D01*
X145117438Y-107673445D02*
X145069819Y-107768683D01*
X145069819Y-107768683D02*
X145069819Y-108006778D01*
X145069819Y-108006778D02*
X145117438Y-108149635D01*
X145069819Y-108768683D02*
X145069819Y-108959159D01*
X145069819Y-108959159D02*
X145117438Y-109054397D01*
X145117438Y-109054397D02*
X145212676Y-109149635D01*
X145212676Y-109149635D02*
X145403152Y-109197254D01*
X145403152Y-109197254D02*
X145736485Y-109197254D01*
X145736485Y-109197254D02*
X145926961Y-109149635D01*
X145926961Y-109149635D02*
X146022200Y-109054397D01*
X146022200Y-109054397D02*
X146069819Y-108959159D01*
X146069819Y-108959159D02*
X146069819Y-108768683D01*
X146069819Y-108768683D02*
X146022200Y-108673445D01*
X146022200Y-108673445D02*
X145926961Y-108578207D01*
X145926961Y-108578207D02*
X145736485Y-108530588D01*
X145736485Y-108530588D02*
X145403152Y-108530588D01*
X145403152Y-108530588D02*
X145212676Y-108578207D01*
X145212676Y-108578207D02*
X145117438Y-108673445D01*
X145117438Y-108673445D02*
X145069819Y-108768683D01*
X111448684Y-105296847D02*
X110686779Y-105011133D01*
X110686779Y-105011133D02*
X111448684Y-104725419D01*
X109233220Y-107466009D02*
X108899887Y-107466009D01*
X108757030Y-107989819D02*
X109233220Y-107989819D01*
X109233220Y-107989819D02*
X109233220Y-106989819D01*
X109233220Y-106989819D02*
X108757030Y-106989819D01*
X107899887Y-107989819D02*
X107899887Y-107466009D01*
X107899887Y-107466009D02*
X107947506Y-107370771D01*
X107947506Y-107370771D02*
X108042744Y-107323152D01*
X108042744Y-107323152D02*
X108233220Y-107323152D01*
X108233220Y-107323152D02*
X108328458Y-107370771D01*
X107899887Y-107942200D02*
X107995125Y-107989819D01*
X107995125Y-107989819D02*
X108233220Y-107989819D01*
X108233220Y-107989819D02*
X108328458Y-107942200D01*
X108328458Y-107942200D02*
X108376077Y-107846961D01*
X108376077Y-107846961D02*
X108376077Y-107751723D01*
X108376077Y-107751723D02*
X108328458Y-107656485D01*
X108328458Y-107656485D02*
X108233220Y-107608866D01*
X108233220Y-107608866D02*
X107995125Y-107608866D01*
X107995125Y-107608866D02*
X107899887Y-107561247D01*
X107423696Y-107323152D02*
X107423696Y-107989819D01*
X107423696Y-107418390D02*
X107376077Y-107370771D01*
X107376077Y-107370771D02*
X107280839Y-107323152D01*
X107280839Y-107323152D02*
X107137982Y-107323152D01*
X107137982Y-107323152D02*
X107042744Y-107370771D01*
X107042744Y-107370771D02*
X106995125Y-107466009D01*
X106995125Y-107466009D02*
X106995125Y-107989819D01*
X106090363Y-107989819D02*
X106090363Y-107466009D01*
X106090363Y-107466009D02*
X106137982Y-107370771D01*
X106137982Y-107370771D02*
X106233220Y-107323152D01*
X106233220Y-107323152D02*
X106423696Y-107323152D01*
X106423696Y-107323152D02*
X106518934Y-107370771D01*
X106090363Y-107942200D02*
X106185601Y-107989819D01*
X106185601Y-107989819D02*
X106423696Y-107989819D01*
X106423696Y-107989819D02*
X106518934Y-107942200D01*
X106518934Y-107942200D02*
X106566553Y-107846961D01*
X106566553Y-107846961D02*
X106566553Y-107751723D01*
X106566553Y-107751723D02*
X106518934Y-107656485D01*
X106518934Y-107656485D02*
X106423696Y-107608866D01*
X106423696Y-107608866D02*
X106185601Y-107608866D01*
X106185601Y-107608866D02*
X106090363Y-107561247D01*
X105090363Y-107989819D02*
X105661791Y-107989819D01*
X105376077Y-107989819D02*
X105376077Y-106989819D01*
X105376077Y-106989819D02*
X105471315Y-107132676D01*
X105471315Y-107132676D02*
X105566553Y-107227914D01*
X105566553Y-107227914D02*
X105661791Y-107275533D01*
X105463220Y-88268866D02*
X104701316Y-88268866D01*
X103523220Y-88168866D02*
X102761316Y-88168866D01*
X103142268Y-88549819D02*
X103142268Y-87787914D01*
X102380363Y-87549819D02*
X101761316Y-87549819D01*
X101761316Y-87549819D02*
X102094649Y-87930771D01*
X102094649Y-87930771D02*
X101951792Y-87930771D01*
X101951792Y-87930771D02*
X101856554Y-87978390D01*
X101856554Y-87978390D02*
X101808935Y-88026009D01*
X101808935Y-88026009D02*
X101761316Y-88121247D01*
X101761316Y-88121247D02*
X101761316Y-88359342D01*
X101761316Y-88359342D02*
X101808935Y-88454580D01*
X101808935Y-88454580D02*
X101856554Y-88502200D01*
X101856554Y-88502200D02*
X101951792Y-88549819D01*
X101951792Y-88549819D02*
X102237506Y-88549819D01*
X102237506Y-88549819D02*
X102332744Y-88502200D01*
X102332744Y-88502200D02*
X102380363Y-88454580D01*
X101332744Y-88454580D02*
X101285125Y-88502200D01*
X101285125Y-88502200D02*
X101332744Y-88549819D01*
X101332744Y-88549819D02*
X101380363Y-88502200D01*
X101380363Y-88502200D02*
X101332744Y-88454580D01*
X101332744Y-88454580D02*
X101332744Y-88549819D01*
X100951792Y-87549819D02*
X100332745Y-87549819D01*
X100332745Y-87549819D02*
X100666078Y-87930771D01*
X100666078Y-87930771D02*
X100523221Y-87930771D01*
X100523221Y-87930771D02*
X100427983Y-87978390D01*
X100427983Y-87978390D02*
X100380364Y-88026009D01*
X100380364Y-88026009D02*
X100332745Y-88121247D01*
X100332745Y-88121247D02*
X100332745Y-88359342D01*
X100332745Y-88359342D02*
X100380364Y-88454580D01*
X100380364Y-88454580D02*
X100427983Y-88502200D01*
X100427983Y-88502200D02*
X100523221Y-88549819D01*
X100523221Y-88549819D02*
X100808935Y-88549819D01*
X100808935Y-88549819D02*
X100904173Y-88502200D01*
X100904173Y-88502200D02*
X100951792Y-88454580D01*
X100047030Y-87549819D02*
X99713697Y-88549819D01*
X99713697Y-88549819D02*
X99380364Y-87549819D01*
X109623220Y-88208866D02*
X108861316Y-88208866D01*
X109242268Y-88589819D02*
X109242268Y-87827914D01*
X107908935Y-87589819D02*
X108385125Y-87589819D01*
X108385125Y-87589819D02*
X108432744Y-88066009D01*
X108432744Y-88066009D02*
X108385125Y-88018390D01*
X108385125Y-88018390D02*
X108289887Y-87970771D01*
X108289887Y-87970771D02*
X108051792Y-87970771D01*
X108051792Y-87970771D02*
X107956554Y-88018390D01*
X107956554Y-88018390D02*
X107908935Y-88066009D01*
X107908935Y-88066009D02*
X107861316Y-88161247D01*
X107861316Y-88161247D02*
X107861316Y-88399342D01*
X107861316Y-88399342D02*
X107908935Y-88494580D01*
X107908935Y-88494580D02*
X107956554Y-88542200D01*
X107956554Y-88542200D02*
X108051792Y-88589819D01*
X108051792Y-88589819D02*
X108289887Y-88589819D01*
X108289887Y-88589819D02*
X108385125Y-88542200D01*
X108385125Y-88542200D02*
X108432744Y-88494580D01*
X107575601Y-87589819D02*
X107242268Y-88589819D01*
X107242268Y-88589819D02*
X106908935Y-87589819D01*
X137763152Y-114268684D02*
X138048866Y-113506779D01*
X138048866Y-113506779D02*
X138334580Y-114268684D01*
X136403220Y-113926009D02*
X136069887Y-113926009D01*
X135927030Y-114449819D02*
X136403220Y-114449819D01*
X136403220Y-114449819D02*
X136403220Y-113449819D01*
X136403220Y-113449819D02*
X135927030Y-113449819D01*
X135069887Y-114449819D02*
X135069887Y-113926009D01*
X135069887Y-113926009D02*
X135117506Y-113830771D01*
X135117506Y-113830771D02*
X135212744Y-113783152D01*
X135212744Y-113783152D02*
X135403220Y-113783152D01*
X135403220Y-113783152D02*
X135498458Y-113830771D01*
X135069887Y-114402200D02*
X135165125Y-114449819D01*
X135165125Y-114449819D02*
X135403220Y-114449819D01*
X135403220Y-114449819D02*
X135498458Y-114402200D01*
X135498458Y-114402200D02*
X135546077Y-114306961D01*
X135546077Y-114306961D02*
X135546077Y-114211723D01*
X135546077Y-114211723D02*
X135498458Y-114116485D01*
X135498458Y-114116485D02*
X135403220Y-114068866D01*
X135403220Y-114068866D02*
X135165125Y-114068866D01*
X135165125Y-114068866D02*
X135069887Y-114021247D01*
X134593696Y-113783152D02*
X134593696Y-114449819D01*
X134593696Y-113878390D02*
X134546077Y-113830771D01*
X134546077Y-113830771D02*
X134450839Y-113783152D01*
X134450839Y-113783152D02*
X134307982Y-113783152D01*
X134307982Y-113783152D02*
X134212744Y-113830771D01*
X134212744Y-113830771D02*
X134165125Y-113926009D01*
X134165125Y-113926009D02*
X134165125Y-114449819D01*
X133260363Y-114449819D02*
X133260363Y-113926009D01*
X133260363Y-113926009D02*
X133307982Y-113830771D01*
X133307982Y-113830771D02*
X133403220Y-113783152D01*
X133403220Y-113783152D02*
X133593696Y-113783152D01*
X133593696Y-113783152D02*
X133688934Y-113830771D01*
X133260363Y-114402200D02*
X133355601Y-114449819D01*
X133355601Y-114449819D02*
X133593696Y-114449819D01*
X133593696Y-114449819D02*
X133688934Y-114402200D01*
X133688934Y-114402200D02*
X133736553Y-114306961D01*
X133736553Y-114306961D02*
X133736553Y-114211723D01*
X133736553Y-114211723D02*
X133688934Y-114116485D01*
X133688934Y-114116485D02*
X133593696Y-114068866D01*
X133593696Y-114068866D02*
X133355601Y-114068866D01*
X133355601Y-114068866D02*
X133260363Y-114021247D01*
X132831791Y-113545057D02*
X132784172Y-113497438D01*
X132784172Y-113497438D02*
X132688934Y-113449819D01*
X132688934Y-113449819D02*
X132450839Y-113449819D01*
X132450839Y-113449819D02*
X132355601Y-113497438D01*
X132355601Y-113497438D02*
X132307982Y-113545057D01*
X132307982Y-113545057D02*
X132260363Y-113640295D01*
X132260363Y-113640295D02*
X132260363Y-113735533D01*
X132260363Y-113735533D02*
X132307982Y-113878390D01*
X132307982Y-113878390D02*
X132879410Y-114449819D01*
X132879410Y-114449819D02*
X132260363Y-114449819D01*
X103421316Y-123403152D02*
X104183220Y-123688866D01*
X104183220Y-123688866D02*
X103421316Y-123974580D01*
X113161316Y-118463152D02*
X113923220Y-118748866D01*
X113923220Y-118748866D02*
X113161316Y-119034580D01*
X119483220Y-115996009D02*
X119149887Y-115996009D01*
X119007030Y-116519819D02*
X119483220Y-116519819D01*
X119483220Y-116519819D02*
X119483220Y-115519819D01*
X119483220Y-115519819D02*
X119007030Y-115519819D01*
X118149887Y-116519819D02*
X118149887Y-115996009D01*
X118149887Y-115996009D02*
X118197506Y-115900771D01*
X118197506Y-115900771D02*
X118292744Y-115853152D01*
X118292744Y-115853152D02*
X118483220Y-115853152D01*
X118483220Y-115853152D02*
X118578458Y-115900771D01*
X118149887Y-116472200D02*
X118245125Y-116519819D01*
X118245125Y-116519819D02*
X118483220Y-116519819D01*
X118483220Y-116519819D02*
X118578458Y-116472200D01*
X118578458Y-116472200D02*
X118626077Y-116376961D01*
X118626077Y-116376961D02*
X118626077Y-116281723D01*
X118626077Y-116281723D02*
X118578458Y-116186485D01*
X118578458Y-116186485D02*
X118483220Y-116138866D01*
X118483220Y-116138866D02*
X118245125Y-116138866D01*
X118245125Y-116138866D02*
X118149887Y-116091247D01*
X117673696Y-115853152D02*
X117673696Y-116519819D01*
X117673696Y-115948390D02*
X117626077Y-115900771D01*
X117626077Y-115900771D02*
X117530839Y-115853152D01*
X117530839Y-115853152D02*
X117387982Y-115853152D01*
X117387982Y-115853152D02*
X117292744Y-115900771D01*
X117292744Y-115900771D02*
X117245125Y-115996009D01*
X117245125Y-115996009D02*
X117245125Y-116519819D01*
X116340363Y-116519819D02*
X116340363Y-115996009D01*
X116340363Y-115996009D02*
X116387982Y-115900771D01*
X116387982Y-115900771D02*
X116483220Y-115853152D01*
X116483220Y-115853152D02*
X116673696Y-115853152D01*
X116673696Y-115853152D02*
X116768934Y-115900771D01*
X116340363Y-116472200D02*
X116435601Y-116519819D01*
X116435601Y-116519819D02*
X116673696Y-116519819D01*
X116673696Y-116519819D02*
X116768934Y-116472200D01*
X116768934Y-116472200D02*
X116816553Y-116376961D01*
X116816553Y-116376961D02*
X116816553Y-116281723D01*
X116816553Y-116281723D02*
X116768934Y-116186485D01*
X116768934Y-116186485D02*
X116673696Y-116138866D01*
X116673696Y-116138866D02*
X116435601Y-116138866D01*
X116435601Y-116138866D02*
X116340363Y-116091247D01*
X115435601Y-115853152D02*
X115435601Y-116519819D01*
X115673696Y-115472200D02*
X115911791Y-116186485D01*
X115911791Y-116186485D02*
X115292744Y-116186485D01*
X110503220Y-121246009D02*
X110169887Y-121246009D01*
X110027030Y-121769819D02*
X110503220Y-121769819D01*
X110503220Y-121769819D02*
X110503220Y-120769819D01*
X110503220Y-120769819D02*
X110027030Y-120769819D01*
X109169887Y-121769819D02*
X109169887Y-121246009D01*
X109169887Y-121246009D02*
X109217506Y-121150771D01*
X109217506Y-121150771D02*
X109312744Y-121103152D01*
X109312744Y-121103152D02*
X109503220Y-121103152D01*
X109503220Y-121103152D02*
X109598458Y-121150771D01*
X109169887Y-121722200D02*
X109265125Y-121769819D01*
X109265125Y-121769819D02*
X109503220Y-121769819D01*
X109503220Y-121769819D02*
X109598458Y-121722200D01*
X109598458Y-121722200D02*
X109646077Y-121626961D01*
X109646077Y-121626961D02*
X109646077Y-121531723D01*
X109646077Y-121531723D02*
X109598458Y-121436485D01*
X109598458Y-121436485D02*
X109503220Y-121388866D01*
X109503220Y-121388866D02*
X109265125Y-121388866D01*
X109265125Y-121388866D02*
X109169887Y-121341247D01*
X108693696Y-121103152D02*
X108693696Y-121769819D01*
X108693696Y-121198390D02*
X108646077Y-121150771D01*
X108646077Y-121150771D02*
X108550839Y-121103152D01*
X108550839Y-121103152D02*
X108407982Y-121103152D01*
X108407982Y-121103152D02*
X108312744Y-121150771D01*
X108312744Y-121150771D02*
X108265125Y-121246009D01*
X108265125Y-121246009D02*
X108265125Y-121769819D01*
X107360363Y-121769819D02*
X107360363Y-121246009D01*
X107360363Y-121246009D02*
X107407982Y-121150771D01*
X107407982Y-121150771D02*
X107503220Y-121103152D01*
X107503220Y-121103152D02*
X107693696Y-121103152D01*
X107693696Y-121103152D02*
X107788934Y-121150771D01*
X107360363Y-121722200D02*
X107455601Y-121769819D01*
X107455601Y-121769819D02*
X107693696Y-121769819D01*
X107693696Y-121769819D02*
X107788934Y-121722200D01*
X107788934Y-121722200D02*
X107836553Y-121626961D01*
X107836553Y-121626961D02*
X107836553Y-121531723D01*
X107836553Y-121531723D02*
X107788934Y-121436485D01*
X107788934Y-121436485D02*
X107693696Y-121388866D01*
X107693696Y-121388866D02*
X107455601Y-121388866D01*
X107455601Y-121388866D02*
X107360363Y-121341247D01*
X106979410Y-120769819D02*
X106360363Y-120769819D01*
X106360363Y-120769819D02*
X106693696Y-121150771D01*
X106693696Y-121150771D02*
X106550839Y-121150771D01*
X106550839Y-121150771D02*
X106455601Y-121198390D01*
X106455601Y-121198390D02*
X106407982Y-121246009D01*
X106407982Y-121246009D02*
X106360363Y-121341247D01*
X106360363Y-121341247D02*
X106360363Y-121579342D01*
X106360363Y-121579342D02*
X106407982Y-121674580D01*
X106407982Y-121674580D02*
X106455601Y-121722200D01*
X106455601Y-121722200D02*
X106550839Y-121769819D01*
X106550839Y-121769819D02*
X106836553Y-121769819D01*
X106836553Y-121769819D02*
X106931791Y-121722200D01*
X106931791Y-121722200D02*
X106979410Y-121674580D01*
X106953220Y-111119819D02*
X106953220Y-110119819D01*
X106953220Y-110119819D02*
X106619887Y-110834104D01*
X106619887Y-110834104D02*
X106286554Y-110119819D01*
X106286554Y-110119819D02*
X106286554Y-111119819D01*
X105667506Y-111119819D02*
X105762744Y-111072200D01*
X105762744Y-111072200D02*
X105810363Y-111024580D01*
X105810363Y-111024580D02*
X105857982Y-110929342D01*
X105857982Y-110929342D02*
X105857982Y-110643628D01*
X105857982Y-110643628D02*
X105810363Y-110548390D01*
X105810363Y-110548390D02*
X105762744Y-110500771D01*
X105762744Y-110500771D02*
X105667506Y-110453152D01*
X105667506Y-110453152D02*
X105524649Y-110453152D01*
X105524649Y-110453152D02*
X105429411Y-110500771D01*
X105429411Y-110500771D02*
X105381792Y-110548390D01*
X105381792Y-110548390D02*
X105334173Y-110643628D01*
X105334173Y-110643628D02*
X105334173Y-110929342D01*
X105334173Y-110929342D02*
X105381792Y-111024580D01*
X105381792Y-111024580D02*
X105429411Y-111072200D01*
X105429411Y-111072200D02*
X105524649Y-111119819D01*
X105524649Y-111119819D02*
X105667506Y-111119819D01*
X105048458Y-110453152D02*
X104667506Y-110453152D01*
X104905601Y-110119819D02*
X104905601Y-110976961D01*
X104905601Y-110976961D02*
X104857982Y-111072200D01*
X104857982Y-111072200D02*
X104762744Y-111119819D01*
X104762744Y-111119819D02*
X104667506Y-111119819D01*
X103953220Y-111072200D02*
X104048458Y-111119819D01*
X104048458Y-111119819D02*
X104238934Y-111119819D01*
X104238934Y-111119819D02*
X104334172Y-111072200D01*
X104334172Y-111072200D02*
X104381791Y-110976961D01*
X104381791Y-110976961D02*
X104381791Y-110596009D01*
X104381791Y-110596009D02*
X104334172Y-110500771D01*
X104334172Y-110500771D02*
X104238934Y-110453152D01*
X104238934Y-110453152D02*
X104048458Y-110453152D01*
X104048458Y-110453152D02*
X103953220Y-110500771D01*
X103953220Y-110500771D02*
X103905601Y-110596009D01*
X103905601Y-110596009D02*
X103905601Y-110691247D01*
X103905601Y-110691247D02*
X104381791Y-110786485D01*
X103048458Y-110453152D02*
X103048458Y-111119819D01*
X103477029Y-110453152D02*
X103477029Y-110976961D01*
X103477029Y-110976961D02*
X103429410Y-111072200D01*
X103429410Y-111072200D02*
X103334172Y-111119819D01*
X103334172Y-111119819D02*
X103191315Y-111119819D01*
X103191315Y-111119819D02*
X103096077Y-111072200D01*
X103096077Y-111072200D02*
X103048458Y-111024580D01*
X102572267Y-111119819D02*
X102572267Y-110453152D01*
X102572267Y-110643628D02*
X102524648Y-110548390D01*
X102524648Y-110548390D02*
X102477029Y-110500771D01*
X102477029Y-110500771D02*
X102381791Y-110453152D01*
X102381791Y-110453152D02*
X102286553Y-110453152D01*
X102048457Y-110119819D02*
X101429410Y-110119819D01*
X101429410Y-110119819D02*
X101762743Y-110500771D01*
X101762743Y-110500771D02*
X101619886Y-110500771D01*
X101619886Y-110500771D02*
X101524648Y-110548390D01*
X101524648Y-110548390D02*
X101477029Y-110596009D01*
X101477029Y-110596009D02*
X101429410Y-110691247D01*
X101429410Y-110691247D02*
X101429410Y-110929342D01*
X101429410Y-110929342D02*
X101477029Y-111024580D01*
X101477029Y-111024580D02*
X101524648Y-111072200D01*
X101524648Y-111072200D02*
X101619886Y-111119819D01*
X101619886Y-111119819D02*
X101905600Y-111119819D01*
X101905600Y-111119819D02*
X102000838Y-111072200D01*
X102000838Y-111072200D02*
X102048457Y-111024580D01*
X110723220Y-114049819D02*
X110723220Y-113049819D01*
X110723220Y-113049819D02*
X110342268Y-113049819D01*
X110342268Y-113049819D02*
X110247030Y-113097438D01*
X110247030Y-113097438D02*
X110199411Y-113145057D01*
X110199411Y-113145057D02*
X110151792Y-113240295D01*
X110151792Y-113240295D02*
X110151792Y-113383152D01*
X110151792Y-113383152D02*
X110199411Y-113478390D01*
X110199411Y-113478390D02*
X110247030Y-113526009D01*
X110247030Y-113526009D02*
X110342268Y-113573628D01*
X110342268Y-113573628D02*
X110723220Y-113573628D01*
X109818458Y-113049819D02*
X109580363Y-114049819D01*
X109580363Y-114049819D02*
X109389887Y-113335533D01*
X109389887Y-113335533D02*
X109199411Y-114049819D01*
X109199411Y-114049819D02*
X108961316Y-113049819D01*
X108580363Y-114049819D02*
X108580363Y-113049819D01*
X108580363Y-113049819D02*
X108247030Y-113764104D01*
X108247030Y-113764104D02*
X107913697Y-113049819D01*
X107913697Y-113049819D02*
X107913697Y-114049819D01*
X146513220Y-114049819D02*
X146513220Y-113049819D01*
X146513220Y-113049819D02*
X146132268Y-113049819D01*
X146132268Y-113049819D02*
X146037030Y-113097438D01*
X146037030Y-113097438D02*
X145989411Y-113145057D01*
X145989411Y-113145057D02*
X145941792Y-113240295D01*
X145941792Y-113240295D02*
X145941792Y-113383152D01*
X145941792Y-113383152D02*
X145989411Y-113478390D01*
X145989411Y-113478390D02*
X146037030Y-113526009D01*
X146037030Y-113526009D02*
X146132268Y-113573628D01*
X146132268Y-113573628D02*
X146513220Y-113573628D01*
X145608458Y-113049819D02*
X145370363Y-114049819D01*
X145370363Y-114049819D02*
X145179887Y-113335533D01*
X145179887Y-113335533D02*
X144989411Y-114049819D01*
X144989411Y-114049819D02*
X144751316Y-113049819D01*
X144370363Y-114049819D02*
X144370363Y-113049819D01*
X144370363Y-113049819D02*
X144037030Y-113764104D01*
X144037030Y-113764104D02*
X143703697Y-113049819D01*
X143703697Y-113049819D02*
X143703697Y-114049819D01*
X146623220Y-90879819D02*
X146623220Y-89879819D01*
X146623220Y-89879819D02*
X146242268Y-89879819D01*
X146242268Y-89879819D02*
X146147030Y-89927438D01*
X146147030Y-89927438D02*
X146099411Y-89975057D01*
X146099411Y-89975057D02*
X146051792Y-90070295D01*
X146051792Y-90070295D02*
X146051792Y-90213152D01*
X146051792Y-90213152D02*
X146099411Y-90308390D01*
X146099411Y-90308390D02*
X146147030Y-90356009D01*
X146147030Y-90356009D02*
X146242268Y-90403628D01*
X146242268Y-90403628D02*
X146623220Y-90403628D01*
X145718458Y-89879819D02*
X145480363Y-90879819D01*
X145480363Y-90879819D02*
X145289887Y-90165533D01*
X145289887Y-90165533D02*
X145099411Y-90879819D01*
X145099411Y-90879819D02*
X144861316Y-89879819D01*
X144480363Y-90879819D02*
X144480363Y-89879819D01*
X144480363Y-89879819D02*
X144147030Y-90594104D01*
X144147030Y-90594104D02*
X143813697Y-89879819D01*
X143813697Y-89879819D02*
X143813697Y-90879819D01*
X153533220Y-105959819D02*
X153533220Y-104959819D01*
X153533220Y-104959819D02*
X153199887Y-105674104D01*
X153199887Y-105674104D02*
X152866554Y-104959819D01*
X152866554Y-104959819D02*
X152866554Y-105959819D01*
X152247506Y-105959819D02*
X152342744Y-105912200D01*
X152342744Y-105912200D02*
X152390363Y-105864580D01*
X152390363Y-105864580D02*
X152437982Y-105769342D01*
X152437982Y-105769342D02*
X152437982Y-105483628D01*
X152437982Y-105483628D02*
X152390363Y-105388390D01*
X152390363Y-105388390D02*
X152342744Y-105340771D01*
X152342744Y-105340771D02*
X152247506Y-105293152D01*
X152247506Y-105293152D02*
X152104649Y-105293152D01*
X152104649Y-105293152D02*
X152009411Y-105340771D01*
X152009411Y-105340771D02*
X151961792Y-105388390D01*
X151961792Y-105388390D02*
X151914173Y-105483628D01*
X151914173Y-105483628D02*
X151914173Y-105769342D01*
X151914173Y-105769342D02*
X151961792Y-105864580D01*
X151961792Y-105864580D02*
X152009411Y-105912200D01*
X152009411Y-105912200D02*
X152104649Y-105959819D01*
X152104649Y-105959819D02*
X152247506Y-105959819D01*
X151628458Y-105293152D02*
X151247506Y-105293152D01*
X151485601Y-104959819D02*
X151485601Y-105816961D01*
X151485601Y-105816961D02*
X151437982Y-105912200D01*
X151437982Y-105912200D02*
X151342744Y-105959819D01*
X151342744Y-105959819D02*
X151247506Y-105959819D01*
X150533220Y-105912200D02*
X150628458Y-105959819D01*
X150628458Y-105959819D02*
X150818934Y-105959819D01*
X150818934Y-105959819D02*
X150914172Y-105912200D01*
X150914172Y-105912200D02*
X150961791Y-105816961D01*
X150961791Y-105816961D02*
X150961791Y-105436009D01*
X150961791Y-105436009D02*
X150914172Y-105340771D01*
X150914172Y-105340771D02*
X150818934Y-105293152D01*
X150818934Y-105293152D02*
X150628458Y-105293152D01*
X150628458Y-105293152D02*
X150533220Y-105340771D01*
X150533220Y-105340771D02*
X150485601Y-105436009D01*
X150485601Y-105436009D02*
X150485601Y-105531247D01*
X150485601Y-105531247D02*
X150961791Y-105626485D01*
X149628458Y-105293152D02*
X149628458Y-105959819D01*
X150057029Y-105293152D02*
X150057029Y-105816961D01*
X150057029Y-105816961D02*
X150009410Y-105912200D01*
X150009410Y-105912200D02*
X149914172Y-105959819D01*
X149914172Y-105959819D02*
X149771315Y-105959819D01*
X149771315Y-105959819D02*
X149676077Y-105912200D01*
X149676077Y-105912200D02*
X149628458Y-105864580D01*
X149152267Y-105959819D02*
X149152267Y-105293152D01*
X149152267Y-105483628D02*
X149104648Y-105388390D01*
X149104648Y-105388390D02*
X149057029Y-105340771D01*
X149057029Y-105340771D02*
X148961791Y-105293152D01*
X148961791Y-105293152D02*
X148866553Y-105293152D01*
X148580838Y-105055057D02*
X148533219Y-105007438D01*
X148533219Y-105007438D02*
X148437981Y-104959819D01*
X148437981Y-104959819D02*
X148199886Y-104959819D01*
X148199886Y-104959819D02*
X148104648Y-105007438D01*
X148104648Y-105007438D02*
X148057029Y-105055057D01*
X148057029Y-105055057D02*
X148009410Y-105150295D01*
X148009410Y-105150295D02*
X148009410Y-105245533D01*
X148009410Y-105245533D02*
X148057029Y-105388390D01*
X148057029Y-105388390D02*
X148628457Y-105959819D01*
X148628457Y-105959819D02*
X148009410Y-105959819D01*
X152963220Y-88129819D02*
X152963220Y-87129819D01*
X152963220Y-87129819D02*
X152629887Y-87844104D01*
X152629887Y-87844104D02*
X152296554Y-87129819D01*
X152296554Y-87129819D02*
X152296554Y-88129819D01*
X151677506Y-88129819D02*
X151772744Y-88082200D01*
X151772744Y-88082200D02*
X151820363Y-88034580D01*
X151820363Y-88034580D02*
X151867982Y-87939342D01*
X151867982Y-87939342D02*
X151867982Y-87653628D01*
X151867982Y-87653628D02*
X151820363Y-87558390D01*
X151820363Y-87558390D02*
X151772744Y-87510771D01*
X151772744Y-87510771D02*
X151677506Y-87463152D01*
X151677506Y-87463152D02*
X151534649Y-87463152D01*
X151534649Y-87463152D02*
X151439411Y-87510771D01*
X151439411Y-87510771D02*
X151391792Y-87558390D01*
X151391792Y-87558390D02*
X151344173Y-87653628D01*
X151344173Y-87653628D02*
X151344173Y-87939342D01*
X151344173Y-87939342D02*
X151391792Y-88034580D01*
X151391792Y-88034580D02*
X151439411Y-88082200D01*
X151439411Y-88082200D02*
X151534649Y-88129819D01*
X151534649Y-88129819D02*
X151677506Y-88129819D01*
X151058458Y-87463152D02*
X150677506Y-87463152D01*
X150915601Y-87129819D02*
X150915601Y-87986961D01*
X150915601Y-87986961D02*
X150867982Y-88082200D01*
X150867982Y-88082200D02*
X150772744Y-88129819D01*
X150772744Y-88129819D02*
X150677506Y-88129819D01*
X149963220Y-88082200D02*
X150058458Y-88129819D01*
X150058458Y-88129819D02*
X150248934Y-88129819D01*
X150248934Y-88129819D02*
X150344172Y-88082200D01*
X150344172Y-88082200D02*
X150391791Y-87986961D01*
X150391791Y-87986961D02*
X150391791Y-87606009D01*
X150391791Y-87606009D02*
X150344172Y-87510771D01*
X150344172Y-87510771D02*
X150248934Y-87463152D01*
X150248934Y-87463152D02*
X150058458Y-87463152D01*
X150058458Y-87463152D02*
X149963220Y-87510771D01*
X149963220Y-87510771D02*
X149915601Y-87606009D01*
X149915601Y-87606009D02*
X149915601Y-87701247D01*
X149915601Y-87701247D02*
X150391791Y-87796485D01*
X149058458Y-87463152D02*
X149058458Y-88129819D01*
X149487029Y-87463152D02*
X149487029Y-87986961D01*
X149487029Y-87986961D02*
X149439410Y-88082200D01*
X149439410Y-88082200D02*
X149344172Y-88129819D01*
X149344172Y-88129819D02*
X149201315Y-88129819D01*
X149201315Y-88129819D02*
X149106077Y-88082200D01*
X149106077Y-88082200D02*
X149058458Y-88034580D01*
X148582267Y-88129819D02*
X148582267Y-87463152D01*
X148582267Y-87653628D02*
X148534648Y-87558390D01*
X148534648Y-87558390D02*
X148487029Y-87510771D01*
X148487029Y-87510771D02*
X148391791Y-87463152D01*
X148391791Y-87463152D02*
X148296553Y-87463152D01*
X147439410Y-88129819D02*
X148010838Y-88129819D01*
X147725124Y-88129819D02*
X147725124Y-87129819D01*
X147725124Y-87129819D02*
X147820362Y-87272676D01*
X147820362Y-87272676D02*
X147915600Y-87367914D01*
X147915600Y-87367914D02*
X148010838Y-87415533D01*
D11*
X122390000Y-117200000D02*
X122410000Y-117200000D01*
X122810000Y-117200000D02*
X122830000Y-117200000D01*
X123230000Y-117200000D02*
X123250000Y-117200000D01*
X123650000Y-117200000D02*
X123670000Y-117200000D01*
X124070000Y-117200000D02*
X124090000Y-117200000D01*
X124490000Y-117200000D02*
X124510000Y-117200000D01*
X124910000Y-117200000D02*
X124930000Y-117200000D01*
X125330000Y-117200000D02*
X125350000Y-117200000D01*
X125750000Y-117200000D02*
X125770000Y-117200000D01*
X126170000Y-117200000D02*
X126190000Y-117200000D01*
X126590000Y-117200000D02*
X126610000Y-117200000D01*
X127010000Y-117200000D02*
X127030000Y-117200000D01*
X127430000Y-117200000D02*
X127450000Y-117200000D01*
X127850000Y-117200000D02*
X127870000Y-117200000D01*
X128270000Y-117200000D02*
X128290000Y-117200000D01*
X128690000Y-117200000D02*
X128710000Y-117200000D01*
X129110000Y-117200000D02*
X129130000Y-117200000D01*
X129530000Y-117200000D02*
X129550000Y-117200000D01*
X129950000Y-117200000D02*
X129970000Y-117200000D01*
X130370000Y-117200000D02*
X130390000Y-117200000D01*
X130790000Y-117200000D02*
X130810000Y-117200000D01*
X131210000Y-117200000D02*
X131230000Y-117200000D01*
X131630000Y-117200000D02*
X131650000Y-117200000D01*
X132050000Y-117200000D02*
X132070000Y-117200000D01*
X132470000Y-117200000D02*
X132490000Y-117200000D01*
X132890000Y-117200000D02*
X132910000Y-117200000D01*
X133310000Y-117200000D02*
X133330000Y-117200000D01*
X133730000Y-117200000D02*
X133750000Y-117200000D01*
X134150000Y-117200000D02*
X134170000Y-117200000D01*
X134570000Y-117200000D02*
X134590000Y-117200000D01*
X134990000Y-117200000D02*
X135010000Y-117200000D01*
X135410000Y-117200000D02*
X135430000Y-117200000D01*
X135830000Y-117200000D02*
X135850000Y-117200000D01*
X136250000Y-117200000D02*
X136270000Y-117200000D01*
X136670000Y-117200000D02*
X136690000Y-117200000D01*
X137090000Y-117200000D02*
X137110000Y-117200000D01*
X137510000Y-117200000D02*
X137530000Y-117200000D01*
X137930000Y-117200000D02*
X137950000Y-117200000D01*
X138350000Y-117200000D02*
X138370000Y-117200000D01*
X138770000Y-117200000D02*
X138790000Y-117200000D01*
X139190000Y-117200000D02*
X139210000Y-117200000D01*
X139610000Y-117200000D02*
X139630000Y-117200000D01*
X140030000Y-117200000D02*
X140050000Y-117200000D01*
X140450000Y-117200000D02*
X140470000Y-117200000D01*
X140870000Y-117200000D02*
X140890000Y-117200000D01*
X141290000Y-117200000D02*
X141310000Y-117200000D01*
X141710000Y-117200000D02*
X141730000Y-117200000D01*
X142130000Y-117200000D02*
X142150000Y-117200000D01*
X142550000Y-117200000D02*
X142570000Y-117200000D01*
X142970000Y-117200000D02*
X142990000Y-117200000D01*
X143390000Y-117200000D02*
X143410000Y-117200000D01*
X143810000Y-117200000D02*
X143830000Y-117200000D01*
X144230000Y-117200000D02*
X144250000Y-117200000D01*
X144650000Y-117200000D02*
X144670000Y-117200000D01*
X145070000Y-117200000D02*
X145090000Y-117200000D01*
X145490000Y-117200000D02*
X145510000Y-117200000D01*
X145910000Y-117200000D02*
X145930000Y-117200000D01*
X146330000Y-117200000D02*
X146350000Y-117200000D01*
X146750000Y-117200000D02*
X146770000Y-117200000D01*
X147170000Y-117200000D02*
X147190000Y-117200000D01*
X147590000Y-117200000D02*
X147610000Y-117200000D01*
X148010000Y-117200000D02*
X148030000Y-117200000D01*
X148430000Y-117200000D02*
X148450000Y-117200000D01*
X148850000Y-117200000D02*
X148870000Y-117200000D01*
X149270000Y-117200000D02*
X149290000Y-117200000D01*
X149690000Y-117200000D02*
X149710000Y-117200000D01*
X150110000Y-117200000D02*
X150130000Y-117200000D01*
X150530000Y-117200000D02*
X150550000Y-117200000D01*
X150950000Y-117200000D02*
X150970000Y-117200000D01*
X151370000Y-117200000D02*
X151390000Y-117200000D01*
X151790000Y-117200000D02*
X151810000Y-117200000D01*
X152210000Y-117200000D02*
X152230000Y-117200000D01*
X152630000Y-117200000D02*
X152650000Y-117200000D01*
X153050000Y-117200000D02*
X153070000Y-117200000D01*
X153470000Y-117200000D02*
X153490000Y-117200000D01*
X153890000Y-117200000D02*
X153890000Y-117200000D01*
X153890000Y-117200000D02*
X153890000Y-117220000D01*
X153890000Y-117620000D02*
X153890000Y-117640000D01*
X153890000Y-118040000D02*
X153890000Y-118060000D01*
X153890000Y-118460000D02*
X153890000Y-118480000D01*
X153890000Y-118880000D02*
X153890000Y-118900000D01*
X153890000Y-119300000D02*
X153890000Y-119320000D01*
X153890000Y-119720000D02*
X153890000Y-119740000D01*
X153890000Y-120140000D02*
X153890000Y-120160000D01*
X153890000Y-120560000D02*
X153890000Y-120580000D01*
X153890000Y-120980000D02*
X153890000Y-121000000D01*
X153890000Y-121400000D02*
X153890000Y-121420000D01*
X153890000Y-121820000D02*
X153890000Y-121840000D01*
X153890000Y-122240000D02*
X153890000Y-122260000D01*
X153890000Y-122660000D02*
X153890000Y-122680000D01*
X153890000Y-123080000D02*
X153890000Y-123100000D01*
X153890000Y-123500000D02*
X153890000Y-123520000D01*
X153890000Y-123920000D02*
X153890000Y-123940000D01*
X153890000Y-124340000D02*
X153890000Y-124360000D01*
X153890000Y-124760000D02*
X153890000Y-124780000D01*
X153890000Y-125180000D02*
X153890000Y-125200000D01*
X153890000Y-125600000D02*
X153890000Y-125620000D01*
X153890000Y-126020000D02*
X153890000Y-126040000D01*
X153890000Y-126440000D02*
X153890000Y-126460000D01*
X153890000Y-126860000D02*
X153890000Y-126880000D01*
X153890000Y-127280000D02*
X153890000Y-127300000D01*
X153890000Y-127700000D02*
X153890000Y-127720000D01*
X153890000Y-128120000D02*
X153890000Y-128140000D01*
X153890000Y-128540000D02*
X153890000Y-128560000D01*
X153890000Y-128960000D02*
X153890000Y-128980000D01*
X153890000Y-129380000D02*
X153890000Y-129400000D01*
X153890000Y-129800000D02*
X153890000Y-129820000D01*
X153890000Y-130220000D02*
X153890000Y-130240000D01*
X153890000Y-130640000D02*
X153890000Y-130660000D01*
X153890000Y-131020000D02*
X153870000Y-131020000D01*
X153470000Y-131020000D02*
X153450000Y-131020000D01*
X153050000Y-131020000D02*
X153030000Y-131020000D01*
X152630000Y-131020000D02*
X152610000Y-131020000D01*
X152210000Y-131020000D02*
X152190000Y-131020000D01*
X151790000Y-131020000D02*
X151770000Y-131020000D01*
X151370000Y-131020000D02*
X151350000Y-131020000D01*
X150950000Y-131020000D02*
X150930000Y-131020000D01*
X150530000Y-131020000D02*
X150510000Y-131020000D01*
X150110000Y-131020000D02*
X150090000Y-131020000D01*
X149690000Y-131020000D02*
X149670000Y-131020000D01*
X149270000Y-131020000D02*
X149250000Y-131020000D01*
X148850000Y-131020000D02*
X148830000Y-131020000D01*
X148430000Y-131020000D02*
X148410000Y-131020000D01*
X148010000Y-131020000D02*
X147990000Y-131020000D01*
X147590000Y-131020000D02*
X147570000Y-131020000D01*
X147170000Y-131020000D02*
X147150000Y-131020000D01*
X146750000Y-131020000D02*
X146730000Y-131020000D01*
X146330000Y-131020000D02*
X146310000Y-131020000D01*
X145910000Y-131020000D02*
X145890000Y-131020000D01*
X145490000Y-131020000D02*
X145470000Y-131020000D01*
X145070000Y-131020000D02*
X145050000Y-131020000D01*
X144650000Y-131020000D02*
X144630000Y-131020000D01*
X144230000Y-131020000D02*
X144210000Y-131020000D01*
X143810000Y-131020000D02*
X143790000Y-131020000D01*
X143390000Y-131020000D02*
X143370000Y-131020000D01*
X142970000Y-131020000D02*
X142950000Y-131020000D01*
X142550000Y-131020000D02*
X142530000Y-131020000D01*
X142130000Y-131020000D02*
X142110000Y-131020000D01*
X141710000Y-131020000D02*
X141690000Y-131020000D01*
X141290000Y-131020000D02*
X141270000Y-131020000D01*
X140870000Y-131020000D02*
X140850000Y-131020000D01*
X140450000Y-131020000D02*
X140430000Y-131020000D01*
X140030000Y-131020000D02*
X140010000Y-131020000D01*
X139610000Y-131020000D02*
X139590000Y-131020000D01*
X139190000Y-131020000D02*
X139170000Y-131020000D01*
X138770000Y-131020000D02*
X138750000Y-131020000D01*
X138350000Y-131020000D02*
X138330000Y-131020000D01*
X137930000Y-131020000D02*
X137910000Y-131020000D01*
X137510000Y-131020000D02*
X137490000Y-131020000D01*
X137090000Y-131020000D02*
X137070000Y-131020000D01*
X136670000Y-131020000D02*
X136650000Y-131020000D01*
X136250000Y-131020000D02*
X136230000Y-131020000D01*
X135830000Y-131020000D02*
X135810000Y-131020000D01*
X135410000Y-131020000D02*
X135390000Y-131020000D01*
X134990000Y-131020000D02*
X134970000Y-131020000D01*
X134570000Y-131020000D02*
X134550000Y-131020000D01*
X134150000Y-131020000D02*
X134130000Y-131020000D01*
X133730000Y-131020000D02*
X133710000Y-131020000D01*
X133310000Y-131020000D02*
X133290000Y-131020000D01*
X132890000Y-131020000D02*
X132870000Y-131020000D01*
X132470000Y-131020000D02*
X132450000Y-131020000D01*
X132050000Y-131020000D02*
X132030000Y-131020000D01*
X131630000Y-131020000D02*
X131610000Y-131020000D01*
X131210000Y-131020000D02*
X131190000Y-131020000D01*
X130790000Y-131020000D02*
X130770000Y-131020000D01*
X130370000Y-131020000D02*
X130350000Y-131020000D01*
X129950000Y-131020000D02*
X129930000Y-131020000D01*
X129530000Y-131020000D02*
X129510000Y-131020000D01*
X129110000Y-131020000D02*
X129090000Y-131020000D01*
X128690000Y-131020000D02*
X128670000Y-131020000D01*
X128270000Y-131020000D02*
X128250000Y-131020000D01*
X127850000Y-131020000D02*
X127830000Y-131020000D01*
X127430000Y-131020000D02*
X127410000Y-131020000D01*
X127010000Y-131020000D02*
X126990000Y-131020000D01*
X126590000Y-131020000D02*
X126570000Y-131020000D01*
X126170000Y-131020000D02*
X126150000Y-131020000D01*
X125750000Y-131020000D02*
X125730000Y-131020000D01*
X125330000Y-131020000D02*
X125310000Y-131020000D01*
X124910000Y-131020000D02*
X124890000Y-131020000D01*
X124490000Y-131020000D02*
X124470000Y-131020000D01*
X124070000Y-131020000D02*
X124050000Y-131020000D01*
X123650000Y-131020000D02*
X123630000Y-131020000D01*
X123230000Y-131020000D02*
X123210000Y-131020000D01*
X122810000Y-131020000D02*
X122790000Y-131020000D01*
X122390000Y-131020000D02*
X122390000Y-131020000D01*
X122390000Y-131020000D02*
X122390000Y-131000000D01*
X122390000Y-130600000D02*
X122390000Y-130580000D01*
X122390000Y-130180000D02*
X122390000Y-130160000D01*
X122390000Y-129760000D02*
X122390000Y-129740000D01*
X122390000Y-129340000D02*
X122390000Y-129320000D01*
X122390000Y-128920000D02*
X122390000Y-128900000D01*
X122390000Y-128500000D02*
X122390000Y-128480000D01*
X122390000Y-128080000D02*
X122390000Y-128060000D01*
X122390000Y-127660000D02*
X122390000Y-127640000D01*
X122390000Y-127240000D02*
X122390000Y-127220000D01*
X122390000Y-126820000D02*
X122390000Y-126800000D01*
X122390000Y-126400000D02*
X122390000Y-126380000D01*
X122390000Y-125980000D02*
X122390000Y-125960000D01*
X122390000Y-125560000D02*
X122390000Y-125540000D01*
X122390000Y-125140000D02*
X122390000Y-125120000D01*
X122390000Y-124720000D02*
X122390000Y-124700000D01*
X122390000Y-124300000D02*
X122390000Y-124280000D01*
X122390000Y-123880000D02*
X122390000Y-123860000D01*
X122390000Y-123460000D02*
X122390000Y-123440000D01*
X122390000Y-123040000D02*
X122390000Y-123020000D01*
X122390000Y-122620000D02*
X122390000Y-122600000D01*
X122390000Y-122200000D02*
X122390000Y-122180000D01*
X122390000Y-121780000D02*
X122390000Y-121760000D01*
X122390000Y-121360000D02*
X122390000Y-121340000D01*
X122390000Y-120940000D02*
X122390000Y-120920000D01*
X122390000Y-120520000D02*
X122390000Y-120500000D01*
X122390000Y-120100000D02*
X122390000Y-120080000D01*
X122390000Y-119680000D02*
X122390000Y-119660000D01*
X122390000Y-119260000D02*
X122390000Y-119240000D01*
X122390000Y-118840000D02*
X122390000Y-118820000D01*
X122390000Y-118420000D02*
X122390000Y-118400000D01*
X122390000Y-118000000D02*
X122390000Y-117980000D01*
X122390000Y-117580000D02*
X122390000Y-117560000D01*
X112530000Y-86540000D02*
X112550000Y-86540000D01*
X112950000Y-86540000D02*
X112970000Y-86540000D01*
X113370000Y-86540000D02*
X113390000Y-86540000D01*
X113790000Y-86540000D02*
X113810000Y-86540000D01*
X114210000Y-86540000D02*
X114230000Y-86540000D01*
X114630000Y-86540000D02*
X114650000Y-86540000D01*
X115050000Y-86540000D02*
X115070000Y-86540000D01*
X115470000Y-86540000D02*
X115490000Y-86540000D01*
X115890000Y-86540000D02*
X115910000Y-86540000D01*
X116310000Y-86540000D02*
X116330000Y-86540000D01*
X116730000Y-86540000D02*
X116750000Y-86540000D01*
X117150000Y-86540000D02*
X117170000Y-86540000D01*
X117570000Y-86540000D02*
X117590000Y-86540000D01*
X117990000Y-86540000D02*
X118010000Y-86540000D01*
X118410000Y-86540000D02*
X118430000Y-86540000D01*
X118830000Y-86540000D02*
X118850000Y-86540000D01*
X119250000Y-86540000D02*
X119270000Y-86540000D01*
X119670000Y-86540000D02*
X119690000Y-86540000D01*
X120090000Y-86540000D02*
X120110000Y-86540000D01*
X120510000Y-86540000D02*
X120530000Y-86540000D01*
X120930000Y-86540000D02*
X120950000Y-86540000D01*
X121350000Y-86540000D02*
X121370000Y-86540000D01*
X121770000Y-86540000D02*
X121790000Y-86540000D01*
X122190000Y-86540000D02*
X122210000Y-86540000D01*
X122610000Y-86540000D02*
X122630000Y-86540000D01*
X123030000Y-86540000D02*
X123050000Y-86540000D01*
X123450000Y-86540000D02*
X123470000Y-86540000D01*
X123870000Y-86540000D02*
X123890000Y-86540000D01*
X124290000Y-86540000D02*
X124310000Y-86540000D01*
X124710000Y-86540000D02*
X124730000Y-86540000D01*
X125130000Y-86540000D02*
X125150000Y-86540000D01*
X125550000Y-86540000D02*
X125570000Y-86540000D01*
X125970000Y-86540000D02*
X125990000Y-86540000D01*
X126390000Y-86540000D02*
X126410000Y-86540000D01*
X126810000Y-86540000D02*
X126830000Y-86540000D01*
X127230000Y-86540000D02*
X127250000Y-86540000D01*
X127650000Y-86540000D02*
X127670000Y-86540000D01*
X128070000Y-86540000D02*
X128090000Y-86540000D01*
X128490000Y-86540000D02*
X128510000Y-86540000D01*
X128910000Y-86540000D02*
X128930000Y-86540000D01*
X129330000Y-86540000D02*
X129350000Y-86540000D01*
X129750000Y-86540000D02*
X129770000Y-86540000D01*
X130170000Y-86540000D02*
X130190000Y-86540000D01*
X130410000Y-86540000D02*
X130410000Y-86560000D01*
X130410000Y-86960000D02*
X130410000Y-86980000D01*
X130410000Y-87380000D02*
X130410000Y-87400000D01*
X130410000Y-87800000D02*
X130410000Y-87820000D01*
X130410000Y-88220000D02*
X130410000Y-88240000D01*
X130410000Y-88640000D02*
X130410000Y-88660000D01*
X130410000Y-89060000D02*
X130410000Y-89080000D01*
X130410000Y-89480000D02*
X130410000Y-89500000D01*
X130410000Y-89900000D02*
X130410000Y-89920000D01*
X130410000Y-90320000D02*
X130410000Y-90340000D01*
X130410000Y-90740000D02*
X130410000Y-90760000D01*
X130410000Y-91160000D02*
X130410000Y-91180000D01*
X130410000Y-91580000D02*
X130410000Y-91600000D01*
X130410000Y-92000000D02*
X130410000Y-92020000D01*
X130410000Y-92420000D02*
X130410000Y-92440000D01*
X130410000Y-92840000D02*
X130410000Y-92860000D01*
X130410000Y-93260000D02*
X130410000Y-93280000D01*
X130410000Y-93680000D02*
X130410000Y-93700000D01*
X130410000Y-94100000D02*
X130410000Y-94120000D01*
X130410000Y-94520000D02*
X130410000Y-94540000D01*
X130410000Y-94940000D02*
X130410000Y-94960000D01*
X130410000Y-95360000D02*
X130410000Y-95380000D01*
X130410000Y-95780000D02*
X130410000Y-95800000D01*
X130410000Y-96200000D02*
X130410000Y-96220000D01*
X130410000Y-96620000D02*
X130410000Y-96640000D01*
X130410000Y-97040000D02*
X130410000Y-97060000D01*
X130410000Y-97460000D02*
X130410000Y-97480000D01*
X130410000Y-97880000D02*
X130410000Y-97900000D01*
X130410000Y-98300000D02*
X130410000Y-98320000D01*
X130410000Y-98720000D02*
X130410000Y-98740000D01*
X130410000Y-99140000D02*
X130410000Y-99160000D01*
X130410000Y-99560000D02*
X130410000Y-99580000D01*
X130410000Y-99980000D02*
X130410000Y-100000000D01*
X130410000Y-100400000D02*
X130410000Y-100420000D01*
X130410000Y-100820000D02*
X130410000Y-100840000D01*
X130410000Y-101240000D02*
X130410000Y-101260000D01*
X130410000Y-101660000D02*
X130410000Y-101680000D01*
X130410000Y-102080000D02*
X130410000Y-102100000D01*
X130410000Y-102500000D02*
X130410000Y-102520000D01*
X130410000Y-102920000D02*
X130410000Y-102940000D01*
X130410000Y-103340000D02*
X130410000Y-103360000D01*
X130410000Y-103760000D02*
X130410000Y-103780000D01*
X130410000Y-104180000D02*
X130410000Y-104200000D01*
X130410000Y-104600000D02*
X130410000Y-104620000D01*
X130410000Y-104810000D02*
X130390000Y-104810000D01*
X129990000Y-104810000D02*
X129970000Y-104810000D01*
X129570000Y-104810000D02*
X129550000Y-104810000D01*
X129150000Y-104810000D02*
X129130000Y-104810000D01*
X128730000Y-104810000D02*
X128710000Y-104810000D01*
X128310000Y-104810000D02*
X128290000Y-104810000D01*
X127890000Y-104810000D02*
X127870000Y-104810000D01*
X127470000Y-104810000D02*
X127450000Y-104810000D01*
X127050000Y-104810000D02*
X127030000Y-104810000D01*
X126630000Y-104810000D02*
X126610000Y-104810000D01*
X126210000Y-104810000D02*
X126190000Y-104810000D01*
X125790000Y-104810000D02*
X125770000Y-104810000D01*
X125370000Y-104810000D02*
X125350000Y-104810000D01*
X124950000Y-104810000D02*
X124930000Y-104810000D01*
X124530000Y-104810000D02*
X124510000Y-104810000D01*
X124110000Y-104810000D02*
X124090000Y-104810000D01*
X123690000Y-104810000D02*
X123670000Y-104810000D01*
X123270000Y-104810000D02*
X123250000Y-104810000D01*
X122850000Y-104810000D02*
X122830000Y-104810000D01*
X122430000Y-104810000D02*
X122410000Y-104810000D01*
X122010000Y-104810000D02*
X121990000Y-104810000D01*
X121590000Y-104810000D02*
X121570000Y-104810000D01*
X121170000Y-104810000D02*
X121150000Y-104810000D01*
X120750000Y-104810000D02*
X120730000Y-104810000D01*
X120330000Y-104810000D02*
X120310000Y-104810000D01*
X119910000Y-104810000D02*
X119890000Y-104810000D01*
X119490000Y-104810000D02*
X119470000Y-104810000D01*
X119070000Y-104810000D02*
X119050000Y-104810000D01*
X118650000Y-104810000D02*
X118630000Y-104810000D01*
X118230000Y-104810000D02*
X118210000Y-104810000D01*
X117810000Y-104810000D02*
X117790000Y-104810000D01*
X117390000Y-104810000D02*
X117370000Y-104810000D01*
X116970000Y-104810000D02*
X116950000Y-104810000D01*
X116550000Y-104810000D02*
X116530000Y-104810000D01*
X116130000Y-104810000D02*
X116110000Y-104810000D01*
X115710000Y-104810000D02*
X115690000Y-104810000D01*
X115290000Y-104810000D02*
X115270000Y-104810000D01*
X114870000Y-104810000D02*
X114850000Y-104810000D01*
X114450000Y-104810000D02*
X114430000Y-104810000D01*
X114030000Y-104810000D02*
X114010000Y-104810000D01*
X113610000Y-104810000D02*
X113590000Y-104810000D01*
X113190000Y-104810000D02*
X113170000Y-104810000D01*
X112770000Y-104810000D02*
X112750000Y-104810000D01*
X112530000Y-104810000D02*
X112530000Y-104790000D01*
X112530000Y-104390000D02*
X112530000Y-104370000D01*
X112530000Y-103970000D02*
X112530000Y-103950000D01*
X112530000Y-103550000D02*
X112530000Y-103530000D01*
X112530000Y-103130000D02*
X112530000Y-103110000D01*
X112530000Y-102710000D02*
X112530000Y-102690000D01*
X112530000Y-102290000D02*
X112530000Y-102270000D01*
X112530000Y-101870000D02*
X112530000Y-101850000D01*
X112530000Y-101450000D02*
X112530000Y-101430000D01*
X112530000Y-101030000D02*
X112530000Y-101010000D01*
X112530000Y-100610000D02*
X112530000Y-100590000D01*
X112530000Y-100190000D02*
X112530000Y-100170000D01*
X112530000Y-99770000D02*
X112530000Y-99750000D01*
X112530000Y-99350000D02*
X112530000Y-99330000D01*
X112530000Y-98930000D02*
X112530000Y-98910000D01*
X112530000Y-98510000D02*
X112530000Y-98490000D01*
X112530000Y-98090000D02*
X112530000Y-98070000D01*
X112530000Y-97670000D02*
X112530000Y-97650000D01*
X112530000Y-97250000D02*
X112530000Y-97230000D01*
X112530000Y-96830000D02*
X112530000Y-96810000D01*
X112530000Y-96410000D02*
X112530000Y-96390000D01*
X112530000Y-95990000D02*
X112530000Y-95970000D01*
X112530000Y-95570000D02*
X112530000Y-95550000D01*
X112530000Y-95150000D02*
X112530000Y-95130000D01*
X112530000Y-94730000D02*
X112530000Y-94710000D01*
X112530000Y-94310000D02*
X112530000Y-94290000D01*
X112530000Y-93890000D02*
X112530000Y-93870000D01*
X112530000Y-93470000D02*
X112530000Y-93450000D01*
X112530000Y-93050000D02*
X112530000Y-93030000D01*
X112530000Y-92630000D02*
X112530000Y-92610000D01*
X112530000Y-92210000D02*
X112530000Y-92190000D01*
X112530000Y-91790000D02*
X112530000Y-91770000D01*
X112530000Y-91370000D02*
X112530000Y-91350000D01*
X112530000Y-90950000D02*
X112530000Y-90930000D01*
X112530000Y-90530000D02*
X112530000Y-90510000D01*
X112530000Y-90110000D02*
X112530000Y-90090000D01*
X112530000Y-89690000D02*
X112530000Y-89670000D01*
X112530000Y-89270000D02*
X112530000Y-89250000D01*
X112530000Y-88850000D02*
X112530000Y-88830000D01*
X112530000Y-88430000D02*
X112530000Y-88410000D01*
X112530000Y-88010000D02*
X112530000Y-87990000D01*
X112530000Y-87590000D02*
X112530000Y-87570000D01*
X112530000Y-87170000D02*
X112530000Y-87150000D01*
X112530000Y-86750000D02*
X112530000Y-86730000D01*
D12*
X134753215Y-56310000D02*
G75*
G02*
X134326785Y-56310000I-213215J0D01*
G01*
X134326785Y-56310000D02*
G75*
G02*
X134753215Y-56310000I213215J0D01*
G01*
X123653215Y-56350000D02*
G75*
G02*
X123226785Y-56350000I-213215J0D01*
G01*
X123226785Y-56350000D02*
G75*
G02*
X123653215Y-56350000I213215J0D01*
G01*
D11*
X114360000Y-86590000D02*
X114360000Y-86590000D01*
X114360000Y-86590000D02*
X114360000Y-86590000D01*
X114360000Y-86590000D02*
X114360000Y-86590000D01*
X114360000Y-86590000D02*
X114360000Y-86590000D01*
D10*
X109241792Y-73909819D02*
X109575125Y-73433628D01*
X109813220Y-73909819D02*
X109813220Y-72909819D01*
X109813220Y-72909819D02*
X109432268Y-72909819D01*
X109432268Y-72909819D02*
X109337030Y-72957438D01*
X109337030Y-72957438D02*
X109289411Y-73005057D01*
X109289411Y-73005057D02*
X109241792Y-73100295D01*
X109241792Y-73100295D02*
X109241792Y-73243152D01*
X109241792Y-73243152D02*
X109289411Y-73338390D01*
X109289411Y-73338390D02*
X109337030Y-73386009D01*
X109337030Y-73386009D02*
X109432268Y-73433628D01*
X109432268Y-73433628D02*
X109813220Y-73433628D01*
X108860839Y-73862200D02*
X108717982Y-73909819D01*
X108717982Y-73909819D02*
X108479887Y-73909819D01*
X108479887Y-73909819D02*
X108384649Y-73862200D01*
X108384649Y-73862200D02*
X108337030Y-73814580D01*
X108337030Y-73814580D02*
X108289411Y-73719342D01*
X108289411Y-73719342D02*
X108289411Y-73624104D01*
X108289411Y-73624104D02*
X108337030Y-73528866D01*
X108337030Y-73528866D02*
X108384649Y-73481247D01*
X108384649Y-73481247D02*
X108479887Y-73433628D01*
X108479887Y-73433628D02*
X108670363Y-73386009D01*
X108670363Y-73386009D02*
X108765601Y-73338390D01*
X108765601Y-73338390D02*
X108813220Y-73290771D01*
X108813220Y-73290771D02*
X108860839Y-73195533D01*
X108860839Y-73195533D02*
X108860839Y-73100295D01*
X108860839Y-73100295D02*
X108813220Y-73005057D01*
X108813220Y-73005057D02*
X108765601Y-72957438D01*
X108765601Y-72957438D02*
X108670363Y-72909819D01*
X108670363Y-72909819D02*
X108432268Y-72909819D01*
X108432268Y-72909819D02*
X108289411Y-72957438D01*
X107908458Y-73005057D02*
X107860839Y-72957438D01*
X107860839Y-72957438D02*
X107765601Y-72909819D01*
X107765601Y-72909819D02*
X107527506Y-72909819D01*
X107527506Y-72909819D02*
X107432268Y-72957438D01*
X107432268Y-72957438D02*
X107384649Y-73005057D01*
X107384649Y-73005057D02*
X107337030Y-73100295D01*
X107337030Y-73100295D02*
X107337030Y-73195533D01*
X107337030Y-73195533D02*
X107384649Y-73338390D01*
X107384649Y-73338390D02*
X107956077Y-73909819D01*
X107956077Y-73909819D02*
X107337030Y-73909819D01*
X107003696Y-72909819D02*
X106384649Y-72909819D01*
X106384649Y-72909819D02*
X106717982Y-73290771D01*
X106717982Y-73290771D02*
X106575125Y-73290771D01*
X106575125Y-73290771D02*
X106479887Y-73338390D01*
X106479887Y-73338390D02*
X106432268Y-73386009D01*
X106432268Y-73386009D02*
X106384649Y-73481247D01*
X106384649Y-73481247D02*
X106384649Y-73719342D01*
X106384649Y-73719342D02*
X106432268Y-73814580D01*
X106432268Y-73814580D02*
X106479887Y-73862200D01*
X106479887Y-73862200D02*
X106575125Y-73909819D01*
X106575125Y-73909819D02*
X106860839Y-73909819D01*
X106860839Y-73909819D02*
X106956077Y-73862200D01*
X106956077Y-73862200D02*
X107003696Y-73814580D01*
X106003696Y-73005057D02*
X105956077Y-72957438D01*
X105956077Y-72957438D02*
X105860839Y-72909819D01*
X105860839Y-72909819D02*
X105622744Y-72909819D01*
X105622744Y-72909819D02*
X105527506Y-72957438D01*
X105527506Y-72957438D02*
X105479887Y-73005057D01*
X105479887Y-73005057D02*
X105432268Y-73100295D01*
X105432268Y-73100295D02*
X105432268Y-73195533D01*
X105432268Y-73195533D02*
X105479887Y-73338390D01*
X105479887Y-73338390D02*
X106051315Y-73909819D01*
X106051315Y-73909819D02*
X105432268Y-73909819D01*
X105241792Y-74005057D02*
X104479887Y-74005057D01*
X103717982Y-73909819D02*
X104289410Y-73909819D01*
X104003696Y-73909819D02*
X104003696Y-72909819D01*
X104003696Y-72909819D02*
X104098934Y-73052676D01*
X104098934Y-73052676D02*
X104194172Y-73147914D01*
X104194172Y-73147914D02*
X104289410Y-73195533D01*
X114246077Y-54349819D02*
X113912744Y-55349819D01*
X113912744Y-55349819D02*
X113579411Y-54349819D01*
X113246077Y-55349819D02*
X113246077Y-54349819D01*
X113246077Y-54730771D02*
X113150839Y-54683152D01*
X113150839Y-54683152D02*
X112960363Y-54683152D01*
X112960363Y-54683152D02*
X112865125Y-54730771D01*
X112865125Y-54730771D02*
X112817506Y-54778390D01*
X112817506Y-54778390D02*
X112769887Y-54873628D01*
X112769887Y-54873628D02*
X112769887Y-55159342D01*
X112769887Y-55159342D02*
X112817506Y-55254580D01*
X112817506Y-55254580D02*
X112865125Y-55302200D01*
X112865125Y-55302200D02*
X112960363Y-55349819D01*
X112960363Y-55349819D02*
X113150839Y-55349819D01*
X113150839Y-55349819D02*
X113246077Y-55302200D01*
X111912744Y-55349819D02*
X111912744Y-54826009D01*
X111912744Y-54826009D02*
X111960363Y-54730771D01*
X111960363Y-54730771D02*
X112055601Y-54683152D01*
X112055601Y-54683152D02*
X112246077Y-54683152D01*
X112246077Y-54683152D02*
X112341315Y-54730771D01*
X111912744Y-55302200D02*
X112007982Y-55349819D01*
X112007982Y-55349819D02*
X112246077Y-55349819D01*
X112246077Y-55349819D02*
X112341315Y-55302200D01*
X112341315Y-55302200D02*
X112388934Y-55206961D01*
X112388934Y-55206961D02*
X112388934Y-55111723D01*
X112388934Y-55111723D02*
X112341315Y-55016485D01*
X112341315Y-55016485D02*
X112246077Y-54968866D01*
X112246077Y-54968866D02*
X112007982Y-54968866D01*
X112007982Y-54968866D02*
X111912744Y-54921247D01*
X111579410Y-54683152D02*
X111198458Y-54683152D01*
X111436553Y-54349819D02*
X111436553Y-55206961D01*
X111436553Y-55206961D02*
X111388934Y-55302200D01*
X111388934Y-55302200D02*
X111293696Y-55349819D01*
X111293696Y-55349819D02*
X111198458Y-55349819D01*
X132863220Y-78068866D02*
X132101316Y-78068866D01*
X132482268Y-78449819D02*
X132482268Y-77687914D01*
X131148935Y-77449819D02*
X131625125Y-77449819D01*
X131625125Y-77449819D02*
X131672744Y-77926009D01*
X131672744Y-77926009D02*
X131625125Y-77878390D01*
X131625125Y-77878390D02*
X131529887Y-77830771D01*
X131529887Y-77830771D02*
X131291792Y-77830771D01*
X131291792Y-77830771D02*
X131196554Y-77878390D01*
X131196554Y-77878390D02*
X131148935Y-77926009D01*
X131148935Y-77926009D02*
X131101316Y-78021247D01*
X131101316Y-78021247D02*
X131101316Y-78259342D01*
X131101316Y-78259342D02*
X131148935Y-78354580D01*
X131148935Y-78354580D02*
X131196554Y-78402200D01*
X131196554Y-78402200D02*
X131291792Y-78449819D01*
X131291792Y-78449819D02*
X131529887Y-78449819D01*
X131529887Y-78449819D02*
X131625125Y-78402200D01*
X131625125Y-78402200D02*
X131672744Y-78354580D01*
X130815601Y-77449819D02*
X130482268Y-78449819D01*
X130482268Y-78449819D02*
X130148935Y-77449819D01*
X117683220Y-76208866D02*
X116921316Y-76208866D01*
X119068866Y-111396779D02*
X119068866Y-112158684D01*
X119449819Y-111777731D02*
X118687914Y-111777731D01*
X115393220Y-46738866D02*
X114631316Y-46738866D01*
X111971792Y-76589819D02*
X112305125Y-76113628D01*
X112543220Y-76589819D02*
X112543220Y-75589819D01*
X112543220Y-75589819D02*
X112162268Y-75589819D01*
X112162268Y-75589819D02*
X112067030Y-75637438D01*
X112067030Y-75637438D02*
X112019411Y-75685057D01*
X112019411Y-75685057D02*
X111971792Y-75780295D01*
X111971792Y-75780295D02*
X111971792Y-75923152D01*
X111971792Y-75923152D02*
X112019411Y-76018390D01*
X112019411Y-76018390D02*
X112067030Y-76066009D01*
X112067030Y-76066009D02*
X112162268Y-76113628D01*
X112162268Y-76113628D02*
X112543220Y-76113628D01*
X111638458Y-76589819D02*
X111114649Y-75923152D01*
X111638458Y-75923152D02*
X111114649Y-76589819D01*
X151526847Y-74711316D02*
X151241133Y-75473220D01*
X151241133Y-75473220D02*
X150955419Y-74711316D01*
X134113220Y-64848866D02*
X133351316Y-64848866D01*
X133732268Y-65229819D02*
X133732268Y-64467914D01*
X132398935Y-64229819D02*
X132875125Y-64229819D01*
X132875125Y-64229819D02*
X132922744Y-64706009D01*
X132922744Y-64706009D02*
X132875125Y-64658390D01*
X132875125Y-64658390D02*
X132779887Y-64610771D01*
X132779887Y-64610771D02*
X132541792Y-64610771D01*
X132541792Y-64610771D02*
X132446554Y-64658390D01*
X132446554Y-64658390D02*
X132398935Y-64706009D01*
X132398935Y-64706009D02*
X132351316Y-64801247D01*
X132351316Y-64801247D02*
X132351316Y-65039342D01*
X132351316Y-65039342D02*
X132398935Y-65134580D01*
X132398935Y-65134580D02*
X132446554Y-65182200D01*
X132446554Y-65182200D02*
X132541792Y-65229819D01*
X132541792Y-65229819D02*
X132779887Y-65229819D01*
X132779887Y-65229819D02*
X132875125Y-65182200D01*
X132875125Y-65182200D02*
X132922744Y-65134580D01*
X132065601Y-64229819D02*
X131732268Y-65229819D01*
X131732268Y-65229819D02*
X131398935Y-64229819D01*
X112676847Y-67371316D02*
X112391133Y-68133220D01*
X112391133Y-68133220D02*
X112105419Y-67371316D01*
X117713220Y-87899819D02*
X117713220Y-86899819D01*
X117713220Y-86899819D02*
X117332268Y-86899819D01*
X117332268Y-86899819D02*
X117237030Y-86947438D01*
X117237030Y-86947438D02*
X117189411Y-86995057D01*
X117189411Y-86995057D02*
X117141792Y-87090295D01*
X117141792Y-87090295D02*
X117141792Y-87233152D01*
X117141792Y-87233152D02*
X117189411Y-87328390D01*
X117189411Y-87328390D02*
X117237030Y-87376009D01*
X117237030Y-87376009D02*
X117332268Y-87423628D01*
X117332268Y-87423628D02*
X117713220Y-87423628D01*
X145663220Y-55338866D02*
X144901316Y-55338866D01*
X123173220Y-87488866D02*
X122411316Y-87488866D01*
X137891792Y-76384580D02*
X137939411Y-76432200D01*
X137939411Y-76432200D02*
X138082268Y-76479819D01*
X138082268Y-76479819D02*
X138177506Y-76479819D01*
X138177506Y-76479819D02*
X138320363Y-76432200D01*
X138320363Y-76432200D02*
X138415601Y-76336961D01*
X138415601Y-76336961D02*
X138463220Y-76241723D01*
X138463220Y-76241723D02*
X138510839Y-76051247D01*
X138510839Y-76051247D02*
X138510839Y-75908390D01*
X138510839Y-75908390D02*
X138463220Y-75717914D01*
X138463220Y-75717914D02*
X138415601Y-75622676D01*
X138415601Y-75622676D02*
X138320363Y-75527438D01*
X138320363Y-75527438D02*
X138177506Y-75479819D01*
X138177506Y-75479819D02*
X138082268Y-75479819D01*
X138082268Y-75479819D02*
X137939411Y-75527438D01*
X137939411Y-75527438D02*
X137891792Y-75575057D01*
X137320363Y-76479819D02*
X137415601Y-76432200D01*
X137415601Y-76432200D02*
X137463220Y-76384580D01*
X137463220Y-76384580D02*
X137510839Y-76289342D01*
X137510839Y-76289342D02*
X137510839Y-76003628D01*
X137510839Y-76003628D02*
X137463220Y-75908390D01*
X137463220Y-75908390D02*
X137415601Y-75860771D01*
X137415601Y-75860771D02*
X137320363Y-75813152D01*
X137320363Y-75813152D02*
X137177506Y-75813152D01*
X137177506Y-75813152D02*
X137082268Y-75860771D01*
X137082268Y-75860771D02*
X137034649Y-75908390D01*
X137034649Y-75908390D02*
X136987030Y-76003628D01*
X136987030Y-76003628D02*
X136987030Y-76289342D01*
X136987030Y-76289342D02*
X137034649Y-76384580D01*
X137034649Y-76384580D02*
X137082268Y-76432200D01*
X137082268Y-76432200D02*
X137177506Y-76479819D01*
X137177506Y-76479819D02*
X137320363Y-76479819D01*
X136129887Y-76479819D02*
X136129887Y-75479819D01*
X136129887Y-76432200D02*
X136225125Y-76479819D01*
X136225125Y-76479819D02*
X136415601Y-76479819D01*
X136415601Y-76479819D02*
X136510839Y-76432200D01*
X136510839Y-76432200D02*
X136558458Y-76384580D01*
X136558458Y-76384580D02*
X136606077Y-76289342D01*
X136606077Y-76289342D02*
X136606077Y-76003628D01*
X136606077Y-76003628D02*
X136558458Y-75908390D01*
X136558458Y-75908390D02*
X136510839Y-75860771D01*
X136510839Y-75860771D02*
X136415601Y-75813152D01*
X136415601Y-75813152D02*
X136225125Y-75813152D01*
X136225125Y-75813152D02*
X136129887Y-75860771D01*
X135272744Y-76432200D02*
X135367982Y-76479819D01*
X135367982Y-76479819D02*
X135558458Y-76479819D01*
X135558458Y-76479819D02*
X135653696Y-76432200D01*
X135653696Y-76432200D02*
X135701315Y-76336961D01*
X135701315Y-76336961D02*
X135701315Y-75956009D01*
X135701315Y-75956009D02*
X135653696Y-75860771D01*
X135653696Y-75860771D02*
X135558458Y-75813152D01*
X135558458Y-75813152D02*
X135367982Y-75813152D01*
X135367982Y-75813152D02*
X135272744Y-75860771D01*
X135272744Y-75860771D02*
X135225125Y-75956009D01*
X135225125Y-75956009D02*
X135225125Y-76051247D01*
X135225125Y-76051247D02*
X135701315Y-76146485D01*
X134367982Y-75813152D02*
X134367982Y-76479819D01*
X134796553Y-75813152D02*
X134796553Y-76336961D01*
X134796553Y-76336961D02*
X134748934Y-76432200D01*
X134748934Y-76432200D02*
X134653696Y-76479819D01*
X134653696Y-76479819D02*
X134510839Y-76479819D01*
X134510839Y-76479819D02*
X134415601Y-76432200D01*
X134415601Y-76432200D02*
X134367982Y-76384580D01*
X133891791Y-76479819D02*
X133891791Y-75813152D01*
X133891791Y-76003628D02*
X133844172Y-75908390D01*
X133844172Y-75908390D02*
X133796553Y-75860771D01*
X133796553Y-75860771D02*
X133701315Y-75813152D01*
X133701315Y-75813152D02*
X133606077Y-75813152D01*
X132748934Y-76479819D02*
X133320362Y-76479819D01*
X133034648Y-76479819D02*
X133034648Y-75479819D01*
X133034648Y-75479819D02*
X133129886Y-75622676D01*
X133129886Y-75622676D02*
X133225124Y-75717914D01*
X133225124Y-75717914D02*
X133320362Y-75765533D01*
X159323220Y-68976009D02*
X158989887Y-68976009D01*
X158847030Y-69499819D02*
X159323220Y-69499819D01*
X159323220Y-69499819D02*
X159323220Y-68499819D01*
X159323220Y-68499819D02*
X158847030Y-68499819D01*
X158561315Y-68833152D02*
X158180363Y-68833152D01*
X158418458Y-68499819D02*
X158418458Y-69356961D01*
X158418458Y-69356961D02*
X158370839Y-69452200D01*
X158370839Y-69452200D02*
X158275601Y-69499819D01*
X158275601Y-69499819D02*
X158180363Y-69499819D01*
X157704172Y-69499819D02*
X157799410Y-69452200D01*
X157799410Y-69452200D02*
X157847029Y-69404580D01*
X157847029Y-69404580D02*
X157894648Y-69309342D01*
X157894648Y-69309342D02*
X157894648Y-69023628D01*
X157894648Y-69023628D02*
X157847029Y-68928390D01*
X157847029Y-68928390D02*
X157799410Y-68880771D01*
X157799410Y-68880771D02*
X157704172Y-68833152D01*
X157704172Y-68833152D02*
X157561315Y-68833152D01*
X157561315Y-68833152D02*
X157466077Y-68880771D01*
X157466077Y-68880771D02*
X157418458Y-68928390D01*
X157418458Y-68928390D02*
X157370839Y-69023628D01*
X157370839Y-69023628D02*
X157370839Y-69309342D01*
X157370839Y-69309342D02*
X157418458Y-69404580D01*
X157418458Y-69404580D02*
X157466077Y-69452200D01*
X157466077Y-69452200D02*
X157561315Y-69499819D01*
X157561315Y-69499819D02*
X157704172Y-69499819D01*
X156942267Y-69499819D02*
X156942267Y-68833152D01*
X156942267Y-69023628D02*
X156894648Y-68928390D01*
X156894648Y-68928390D02*
X156847029Y-68880771D01*
X156847029Y-68880771D02*
X156751791Y-68833152D01*
X156751791Y-68833152D02*
X156656553Y-68833152D01*
X156370838Y-68595057D02*
X156323219Y-68547438D01*
X156323219Y-68547438D02*
X156227981Y-68499819D01*
X156227981Y-68499819D02*
X155989886Y-68499819D01*
X155989886Y-68499819D02*
X155894648Y-68547438D01*
X155894648Y-68547438D02*
X155847029Y-68595057D01*
X155847029Y-68595057D02*
X155799410Y-68690295D01*
X155799410Y-68690295D02*
X155799410Y-68785533D01*
X155799410Y-68785533D02*
X155847029Y-68928390D01*
X155847029Y-68928390D02*
X156418457Y-69499819D01*
X156418457Y-69499819D02*
X155799410Y-69499819D01*
X115483220Y-60768866D02*
X114721316Y-60768866D01*
X115102268Y-61149819D02*
X115102268Y-60387914D01*
X113816554Y-60149819D02*
X114007030Y-60149819D01*
X114007030Y-60149819D02*
X114102268Y-60197438D01*
X114102268Y-60197438D02*
X114149887Y-60245057D01*
X114149887Y-60245057D02*
X114245125Y-60387914D01*
X114245125Y-60387914D02*
X114292744Y-60578390D01*
X114292744Y-60578390D02*
X114292744Y-60959342D01*
X114292744Y-60959342D02*
X114245125Y-61054580D01*
X114245125Y-61054580D02*
X114197506Y-61102200D01*
X114197506Y-61102200D02*
X114102268Y-61149819D01*
X114102268Y-61149819D02*
X113911792Y-61149819D01*
X113911792Y-61149819D02*
X113816554Y-61102200D01*
X113816554Y-61102200D02*
X113768935Y-61054580D01*
X113768935Y-61054580D02*
X113721316Y-60959342D01*
X113721316Y-60959342D02*
X113721316Y-60721247D01*
X113721316Y-60721247D02*
X113768935Y-60626009D01*
X113768935Y-60626009D02*
X113816554Y-60578390D01*
X113816554Y-60578390D02*
X113911792Y-60530771D01*
X113911792Y-60530771D02*
X114102268Y-60530771D01*
X114102268Y-60530771D02*
X114197506Y-60578390D01*
X114197506Y-60578390D02*
X114245125Y-60626009D01*
X114245125Y-60626009D02*
X114292744Y-60721247D01*
X113292744Y-61054580D02*
X113245125Y-61102200D01*
X113245125Y-61102200D02*
X113292744Y-61149819D01*
X113292744Y-61149819D02*
X113340363Y-61102200D01*
X113340363Y-61102200D02*
X113292744Y-61054580D01*
X113292744Y-61054580D02*
X113292744Y-61149819D01*
X112340364Y-60149819D02*
X112816554Y-60149819D01*
X112816554Y-60149819D02*
X112864173Y-60626009D01*
X112864173Y-60626009D02*
X112816554Y-60578390D01*
X112816554Y-60578390D02*
X112721316Y-60530771D01*
X112721316Y-60530771D02*
X112483221Y-60530771D01*
X112483221Y-60530771D02*
X112387983Y-60578390D01*
X112387983Y-60578390D02*
X112340364Y-60626009D01*
X112340364Y-60626009D02*
X112292745Y-60721247D01*
X112292745Y-60721247D02*
X112292745Y-60959342D01*
X112292745Y-60959342D02*
X112340364Y-61054580D01*
X112340364Y-61054580D02*
X112387983Y-61102200D01*
X112387983Y-61102200D02*
X112483221Y-61149819D01*
X112483221Y-61149819D02*
X112721316Y-61149819D01*
X112721316Y-61149819D02*
X112816554Y-61102200D01*
X112816554Y-61102200D02*
X112864173Y-61054580D01*
X112007030Y-60149819D02*
X111673697Y-61149819D01*
X111673697Y-61149819D02*
X111340364Y-60149819D01*
X115488866Y-111276779D02*
X115488866Y-112038684D01*
X149543220Y-68876009D02*
X149209887Y-68876009D01*
X149067030Y-69399819D02*
X149543220Y-69399819D01*
X149543220Y-69399819D02*
X149543220Y-68399819D01*
X149543220Y-68399819D02*
X149067030Y-68399819D01*
X148781315Y-68733152D02*
X148400363Y-68733152D01*
X148638458Y-68399819D02*
X148638458Y-69256961D01*
X148638458Y-69256961D02*
X148590839Y-69352200D01*
X148590839Y-69352200D02*
X148495601Y-69399819D01*
X148495601Y-69399819D02*
X148400363Y-69399819D01*
X147924172Y-69399819D02*
X148019410Y-69352200D01*
X148019410Y-69352200D02*
X148067029Y-69304580D01*
X148067029Y-69304580D02*
X148114648Y-69209342D01*
X148114648Y-69209342D02*
X148114648Y-68923628D01*
X148114648Y-68923628D02*
X148067029Y-68828390D01*
X148067029Y-68828390D02*
X148019410Y-68780771D01*
X148019410Y-68780771D02*
X147924172Y-68733152D01*
X147924172Y-68733152D02*
X147781315Y-68733152D01*
X147781315Y-68733152D02*
X147686077Y-68780771D01*
X147686077Y-68780771D02*
X147638458Y-68828390D01*
X147638458Y-68828390D02*
X147590839Y-68923628D01*
X147590839Y-68923628D02*
X147590839Y-69209342D01*
X147590839Y-69209342D02*
X147638458Y-69304580D01*
X147638458Y-69304580D02*
X147686077Y-69352200D01*
X147686077Y-69352200D02*
X147781315Y-69399819D01*
X147781315Y-69399819D02*
X147924172Y-69399819D01*
X147162267Y-69399819D02*
X147162267Y-68733152D01*
X147162267Y-68923628D02*
X147114648Y-68828390D01*
X147114648Y-68828390D02*
X147067029Y-68780771D01*
X147067029Y-68780771D02*
X146971791Y-68733152D01*
X146971791Y-68733152D02*
X146876553Y-68733152D01*
X146019410Y-69399819D02*
X146590838Y-69399819D01*
X146305124Y-69399819D02*
X146305124Y-68399819D01*
X146305124Y-68399819D02*
X146400362Y-68542676D01*
X146400362Y-68542676D02*
X146495600Y-68637914D01*
X146495600Y-68637914D02*
X146590838Y-68685533D01*
X115273220Y-50318866D02*
X114511316Y-50318866D01*
X114892268Y-50699819D02*
X114892268Y-49937914D01*
X129370839Y-90112200D02*
X129227982Y-90159819D01*
X129227982Y-90159819D02*
X128989887Y-90159819D01*
X128989887Y-90159819D02*
X128894649Y-90112200D01*
X128894649Y-90112200D02*
X128847030Y-90064580D01*
X128847030Y-90064580D02*
X128799411Y-89969342D01*
X128799411Y-89969342D02*
X128799411Y-89874104D01*
X128799411Y-89874104D02*
X128847030Y-89778866D01*
X128847030Y-89778866D02*
X128894649Y-89731247D01*
X128894649Y-89731247D02*
X128989887Y-89683628D01*
X128989887Y-89683628D02*
X129180363Y-89636009D01*
X129180363Y-89636009D02*
X129275601Y-89588390D01*
X129275601Y-89588390D02*
X129323220Y-89540771D01*
X129323220Y-89540771D02*
X129370839Y-89445533D01*
X129370839Y-89445533D02*
X129370839Y-89350295D01*
X129370839Y-89350295D02*
X129323220Y-89255057D01*
X129323220Y-89255057D02*
X129275601Y-89207438D01*
X129275601Y-89207438D02*
X129180363Y-89159819D01*
X129180363Y-89159819D02*
X128942268Y-89159819D01*
X128942268Y-89159819D02*
X128799411Y-89207438D01*
X127989887Y-90112200D02*
X128085125Y-90159819D01*
X128085125Y-90159819D02*
X128275601Y-90159819D01*
X128275601Y-90159819D02*
X128370839Y-90112200D01*
X128370839Y-90112200D02*
X128418458Y-90016961D01*
X128418458Y-90016961D02*
X128418458Y-89636009D01*
X128418458Y-89636009D02*
X128370839Y-89540771D01*
X128370839Y-89540771D02*
X128275601Y-89493152D01*
X128275601Y-89493152D02*
X128085125Y-89493152D01*
X128085125Y-89493152D02*
X127989887Y-89540771D01*
X127989887Y-89540771D02*
X127942268Y-89636009D01*
X127942268Y-89636009D02*
X127942268Y-89731247D01*
X127942268Y-89731247D02*
X128418458Y-89826485D01*
X127513696Y-90159819D02*
X127513696Y-89493152D01*
X127513696Y-89683628D02*
X127466077Y-89588390D01*
X127466077Y-89588390D02*
X127418458Y-89540771D01*
X127418458Y-89540771D02*
X127323220Y-89493152D01*
X127323220Y-89493152D02*
X127227982Y-89493152D01*
X126989886Y-89493152D02*
X126751791Y-90159819D01*
X126751791Y-90159819D02*
X126513696Y-89493152D01*
X125989886Y-90159819D02*
X126085124Y-90112200D01*
X126085124Y-90112200D02*
X126132743Y-90064580D01*
X126132743Y-90064580D02*
X126180362Y-89969342D01*
X126180362Y-89969342D02*
X126180362Y-89683628D01*
X126180362Y-89683628D02*
X126132743Y-89588390D01*
X126132743Y-89588390D02*
X126085124Y-89540771D01*
X126085124Y-89540771D02*
X125989886Y-89493152D01*
X125989886Y-89493152D02*
X125847029Y-89493152D01*
X125847029Y-89493152D02*
X125751791Y-89540771D01*
X125751791Y-89540771D02*
X125704172Y-89588390D01*
X125704172Y-89588390D02*
X125656553Y-89683628D01*
X125656553Y-89683628D02*
X125656553Y-89969342D01*
X125656553Y-89969342D02*
X125704172Y-90064580D01*
X125704172Y-90064580D02*
X125751791Y-90112200D01*
X125751791Y-90112200D02*
X125847029Y-90159819D01*
X125847029Y-90159819D02*
X125989886Y-90159819D01*
X124704172Y-90159819D02*
X125275600Y-90159819D01*
X124989886Y-90159819D02*
X124989886Y-89159819D01*
X124989886Y-89159819D02*
X125085124Y-89302676D01*
X125085124Y-89302676D02*
X125180362Y-89397914D01*
X125180362Y-89397914D02*
X125275600Y-89445533D01*
X115166847Y-84161316D02*
X114881133Y-84923220D01*
X114881133Y-84923220D02*
X114595419Y-84161316D01*
X129370839Y-94542200D02*
X129227982Y-94589819D01*
X129227982Y-94589819D02*
X128989887Y-94589819D01*
X128989887Y-94589819D02*
X128894649Y-94542200D01*
X128894649Y-94542200D02*
X128847030Y-94494580D01*
X128847030Y-94494580D02*
X128799411Y-94399342D01*
X128799411Y-94399342D02*
X128799411Y-94304104D01*
X128799411Y-94304104D02*
X128847030Y-94208866D01*
X128847030Y-94208866D02*
X128894649Y-94161247D01*
X128894649Y-94161247D02*
X128989887Y-94113628D01*
X128989887Y-94113628D02*
X129180363Y-94066009D01*
X129180363Y-94066009D02*
X129275601Y-94018390D01*
X129275601Y-94018390D02*
X129323220Y-93970771D01*
X129323220Y-93970771D02*
X129370839Y-93875533D01*
X129370839Y-93875533D02*
X129370839Y-93780295D01*
X129370839Y-93780295D02*
X129323220Y-93685057D01*
X129323220Y-93685057D02*
X129275601Y-93637438D01*
X129275601Y-93637438D02*
X129180363Y-93589819D01*
X129180363Y-93589819D02*
X128942268Y-93589819D01*
X128942268Y-93589819D02*
X128799411Y-93637438D01*
X127989887Y-94542200D02*
X128085125Y-94589819D01*
X128085125Y-94589819D02*
X128275601Y-94589819D01*
X128275601Y-94589819D02*
X128370839Y-94542200D01*
X128370839Y-94542200D02*
X128418458Y-94446961D01*
X128418458Y-94446961D02*
X128418458Y-94066009D01*
X128418458Y-94066009D02*
X128370839Y-93970771D01*
X128370839Y-93970771D02*
X128275601Y-93923152D01*
X128275601Y-93923152D02*
X128085125Y-93923152D01*
X128085125Y-93923152D02*
X127989887Y-93970771D01*
X127989887Y-93970771D02*
X127942268Y-94066009D01*
X127942268Y-94066009D02*
X127942268Y-94161247D01*
X127942268Y-94161247D02*
X128418458Y-94256485D01*
X127513696Y-94589819D02*
X127513696Y-93923152D01*
X127513696Y-94113628D02*
X127466077Y-94018390D01*
X127466077Y-94018390D02*
X127418458Y-93970771D01*
X127418458Y-93970771D02*
X127323220Y-93923152D01*
X127323220Y-93923152D02*
X127227982Y-93923152D01*
X126989886Y-93923152D02*
X126751791Y-94589819D01*
X126751791Y-94589819D02*
X126513696Y-93923152D01*
X125989886Y-94589819D02*
X126085124Y-94542200D01*
X126085124Y-94542200D02*
X126132743Y-94494580D01*
X126132743Y-94494580D02*
X126180362Y-94399342D01*
X126180362Y-94399342D02*
X126180362Y-94113628D01*
X126180362Y-94113628D02*
X126132743Y-94018390D01*
X126132743Y-94018390D02*
X126085124Y-93970771D01*
X126085124Y-93970771D02*
X125989886Y-93923152D01*
X125989886Y-93923152D02*
X125847029Y-93923152D01*
X125847029Y-93923152D02*
X125751791Y-93970771D01*
X125751791Y-93970771D02*
X125704172Y-94018390D01*
X125704172Y-94018390D02*
X125656553Y-94113628D01*
X125656553Y-94113628D02*
X125656553Y-94399342D01*
X125656553Y-94399342D02*
X125704172Y-94494580D01*
X125704172Y-94494580D02*
X125751791Y-94542200D01*
X125751791Y-94542200D02*
X125847029Y-94589819D01*
X125847029Y-94589819D02*
X125989886Y-94589819D01*
X125275600Y-93685057D02*
X125227981Y-93637438D01*
X125227981Y-93637438D02*
X125132743Y-93589819D01*
X125132743Y-93589819D02*
X124894648Y-93589819D01*
X124894648Y-93589819D02*
X124799410Y-93637438D01*
X124799410Y-93637438D02*
X124751791Y-93685057D01*
X124751791Y-93685057D02*
X124704172Y-93780295D01*
X124704172Y-93780295D02*
X124704172Y-93875533D01*
X124704172Y-93875533D02*
X124751791Y-94018390D01*
X124751791Y-94018390D02*
X125323219Y-94589819D01*
X125323219Y-94589819D02*
X124704172Y-94589819D01*
X137721792Y-87534580D02*
X137769411Y-87582200D01*
X137769411Y-87582200D02*
X137912268Y-87629819D01*
X137912268Y-87629819D02*
X138007506Y-87629819D01*
X138007506Y-87629819D02*
X138150363Y-87582200D01*
X138150363Y-87582200D02*
X138245601Y-87486961D01*
X138245601Y-87486961D02*
X138293220Y-87391723D01*
X138293220Y-87391723D02*
X138340839Y-87201247D01*
X138340839Y-87201247D02*
X138340839Y-87058390D01*
X138340839Y-87058390D02*
X138293220Y-86867914D01*
X138293220Y-86867914D02*
X138245601Y-86772676D01*
X138245601Y-86772676D02*
X138150363Y-86677438D01*
X138150363Y-86677438D02*
X138007506Y-86629819D01*
X138007506Y-86629819D02*
X137912268Y-86629819D01*
X137912268Y-86629819D02*
X137769411Y-86677438D01*
X137769411Y-86677438D02*
X137721792Y-86725057D01*
X137150363Y-87629819D02*
X137245601Y-87582200D01*
X137245601Y-87582200D02*
X137293220Y-87534580D01*
X137293220Y-87534580D02*
X137340839Y-87439342D01*
X137340839Y-87439342D02*
X137340839Y-87153628D01*
X137340839Y-87153628D02*
X137293220Y-87058390D01*
X137293220Y-87058390D02*
X137245601Y-87010771D01*
X137245601Y-87010771D02*
X137150363Y-86963152D01*
X137150363Y-86963152D02*
X137007506Y-86963152D01*
X137007506Y-86963152D02*
X136912268Y-87010771D01*
X136912268Y-87010771D02*
X136864649Y-87058390D01*
X136864649Y-87058390D02*
X136817030Y-87153628D01*
X136817030Y-87153628D02*
X136817030Y-87439342D01*
X136817030Y-87439342D02*
X136864649Y-87534580D01*
X136864649Y-87534580D02*
X136912268Y-87582200D01*
X136912268Y-87582200D02*
X137007506Y-87629819D01*
X137007506Y-87629819D02*
X137150363Y-87629819D01*
X135959887Y-87629819D02*
X135959887Y-86629819D01*
X135959887Y-87582200D02*
X136055125Y-87629819D01*
X136055125Y-87629819D02*
X136245601Y-87629819D01*
X136245601Y-87629819D02*
X136340839Y-87582200D01*
X136340839Y-87582200D02*
X136388458Y-87534580D01*
X136388458Y-87534580D02*
X136436077Y-87439342D01*
X136436077Y-87439342D02*
X136436077Y-87153628D01*
X136436077Y-87153628D02*
X136388458Y-87058390D01*
X136388458Y-87058390D02*
X136340839Y-87010771D01*
X136340839Y-87010771D02*
X136245601Y-86963152D01*
X136245601Y-86963152D02*
X136055125Y-86963152D01*
X136055125Y-86963152D02*
X135959887Y-87010771D01*
X135102744Y-87582200D02*
X135197982Y-87629819D01*
X135197982Y-87629819D02*
X135388458Y-87629819D01*
X135388458Y-87629819D02*
X135483696Y-87582200D01*
X135483696Y-87582200D02*
X135531315Y-87486961D01*
X135531315Y-87486961D02*
X135531315Y-87106009D01*
X135531315Y-87106009D02*
X135483696Y-87010771D01*
X135483696Y-87010771D02*
X135388458Y-86963152D01*
X135388458Y-86963152D02*
X135197982Y-86963152D01*
X135197982Y-86963152D02*
X135102744Y-87010771D01*
X135102744Y-87010771D02*
X135055125Y-87106009D01*
X135055125Y-87106009D02*
X135055125Y-87201247D01*
X135055125Y-87201247D02*
X135531315Y-87296485D01*
X134197982Y-86963152D02*
X134197982Y-87629819D01*
X134626553Y-86963152D02*
X134626553Y-87486961D01*
X134626553Y-87486961D02*
X134578934Y-87582200D01*
X134578934Y-87582200D02*
X134483696Y-87629819D01*
X134483696Y-87629819D02*
X134340839Y-87629819D01*
X134340839Y-87629819D02*
X134245601Y-87582200D01*
X134245601Y-87582200D02*
X134197982Y-87534580D01*
X133721791Y-87629819D02*
X133721791Y-86963152D01*
X133721791Y-87153628D02*
X133674172Y-87058390D01*
X133674172Y-87058390D02*
X133626553Y-87010771D01*
X133626553Y-87010771D02*
X133531315Y-86963152D01*
X133531315Y-86963152D02*
X133436077Y-86963152D01*
X133150362Y-86725057D02*
X133102743Y-86677438D01*
X133102743Y-86677438D02*
X133007505Y-86629819D01*
X133007505Y-86629819D02*
X132769410Y-86629819D01*
X132769410Y-86629819D02*
X132674172Y-86677438D01*
X132674172Y-86677438D02*
X132626553Y-86725057D01*
X132626553Y-86725057D02*
X132578934Y-86820295D01*
X132578934Y-86820295D02*
X132578934Y-86915533D01*
X132578934Y-86915533D02*
X132626553Y-87058390D01*
X132626553Y-87058390D02*
X133197981Y-87629819D01*
X133197981Y-87629819D02*
X132578934Y-87629819D01*
X151483220Y-83176009D02*
X151149887Y-83176009D01*
X151007030Y-83699819D02*
X151483220Y-83699819D01*
X151483220Y-83699819D02*
X151483220Y-82699819D01*
X151483220Y-82699819D02*
X151007030Y-82699819D01*
X150721315Y-83033152D02*
X150340363Y-83033152D01*
X150578458Y-82699819D02*
X150578458Y-83556961D01*
X150578458Y-83556961D02*
X150530839Y-83652200D01*
X150530839Y-83652200D02*
X150435601Y-83699819D01*
X150435601Y-83699819D02*
X150340363Y-83699819D01*
X149864172Y-83699819D02*
X149959410Y-83652200D01*
X149959410Y-83652200D02*
X150007029Y-83604580D01*
X150007029Y-83604580D02*
X150054648Y-83509342D01*
X150054648Y-83509342D02*
X150054648Y-83223628D01*
X150054648Y-83223628D02*
X150007029Y-83128390D01*
X150007029Y-83128390D02*
X149959410Y-83080771D01*
X149959410Y-83080771D02*
X149864172Y-83033152D01*
X149864172Y-83033152D02*
X149721315Y-83033152D01*
X149721315Y-83033152D02*
X149626077Y-83080771D01*
X149626077Y-83080771D02*
X149578458Y-83128390D01*
X149578458Y-83128390D02*
X149530839Y-83223628D01*
X149530839Y-83223628D02*
X149530839Y-83509342D01*
X149530839Y-83509342D02*
X149578458Y-83604580D01*
X149578458Y-83604580D02*
X149626077Y-83652200D01*
X149626077Y-83652200D02*
X149721315Y-83699819D01*
X149721315Y-83699819D02*
X149864172Y-83699819D01*
X149102267Y-83699819D02*
X149102267Y-83033152D01*
X149102267Y-83223628D02*
X149054648Y-83128390D01*
X149054648Y-83128390D02*
X149007029Y-83080771D01*
X149007029Y-83080771D02*
X148911791Y-83033152D01*
X148911791Y-83033152D02*
X148816553Y-83033152D01*
X148578457Y-82699819D02*
X147959410Y-82699819D01*
X147959410Y-82699819D02*
X148292743Y-83080771D01*
X148292743Y-83080771D02*
X148149886Y-83080771D01*
X148149886Y-83080771D02*
X148054648Y-83128390D01*
X148054648Y-83128390D02*
X148007029Y-83176009D01*
X148007029Y-83176009D02*
X147959410Y-83271247D01*
X147959410Y-83271247D02*
X147959410Y-83509342D01*
X147959410Y-83509342D02*
X148007029Y-83604580D01*
X148007029Y-83604580D02*
X148054648Y-83652200D01*
X148054648Y-83652200D02*
X148149886Y-83699819D01*
X148149886Y-83699819D02*
X148435600Y-83699819D01*
X148435600Y-83699819D02*
X148530838Y-83652200D01*
X148530838Y-83652200D02*
X148578457Y-83604580D01*
X121773220Y-76208866D02*
X121011316Y-76208866D01*
X121392268Y-76589819D02*
X121392268Y-75827914D01*
X120058935Y-75589819D02*
X120535125Y-75589819D01*
X120535125Y-75589819D02*
X120582744Y-76066009D01*
X120582744Y-76066009D02*
X120535125Y-76018390D01*
X120535125Y-76018390D02*
X120439887Y-75970771D01*
X120439887Y-75970771D02*
X120201792Y-75970771D01*
X120201792Y-75970771D02*
X120106554Y-76018390D01*
X120106554Y-76018390D02*
X120058935Y-76066009D01*
X120058935Y-76066009D02*
X120011316Y-76161247D01*
X120011316Y-76161247D02*
X120011316Y-76399342D01*
X120011316Y-76399342D02*
X120058935Y-76494580D01*
X120058935Y-76494580D02*
X120106554Y-76542200D01*
X120106554Y-76542200D02*
X120201792Y-76589819D01*
X120201792Y-76589819D02*
X120439887Y-76589819D01*
X120439887Y-76589819D02*
X120535125Y-76542200D01*
X120535125Y-76542200D02*
X120582744Y-76494580D01*
X119725601Y-75589819D02*
X119392268Y-76589819D01*
X119392268Y-76589819D02*
X119058935Y-75589819D01*
X139860839Y-78164104D02*
X139384649Y-78164104D01*
X139956077Y-78449819D02*
X139622744Y-77449819D01*
X139622744Y-77449819D02*
X139289411Y-78449819D01*
D13*
X153322669Y-47143428D02*
X152822669Y-48643428D01*
X152822669Y-48643428D02*
X152322669Y-47143428D01*
X151036955Y-48643428D02*
X151894098Y-48643428D01*
X151465527Y-48643428D02*
X151465527Y-47143428D01*
X151465527Y-47143428D02*
X151608384Y-47357714D01*
X151608384Y-47357714D02*
X151751241Y-47500571D01*
X151751241Y-47500571D02*
X151894098Y-47572000D01*
X150394099Y-48500571D02*
X150322670Y-48572000D01*
X150322670Y-48572000D02*
X150394099Y-48643428D01*
X150394099Y-48643428D02*
X150465527Y-48572000D01*
X150465527Y-48572000D02*
X150394099Y-48500571D01*
X150394099Y-48500571D02*
X150394099Y-48643428D01*
X149394098Y-47143428D02*
X149251241Y-47143428D01*
X149251241Y-47143428D02*
X149108384Y-47214857D01*
X149108384Y-47214857D02*
X149036956Y-47286285D01*
X149036956Y-47286285D02*
X148965527Y-47429142D01*
X148965527Y-47429142D02*
X148894098Y-47714857D01*
X148894098Y-47714857D02*
X148894098Y-48072000D01*
X148894098Y-48072000D02*
X148965527Y-48357714D01*
X148965527Y-48357714D02*
X149036956Y-48500571D01*
X149036956Y-48500571D02*
X149108384Y-48572000D01*
X149108384Y-48572000D02*
X149251241Y-48643428D01*
X149251241Y-48643428D02*
X149394098Y-48643428D01*
X149394098Y-48643428D02*
X149536956Y-48572000D01*
X149536956Y-48572000D02*
X149608384Y-48500571D01*
X149608384Y-48500571D02*
X149679813Y-48357714D01*
X149679813Y-48357714D02*
X149751241Y-48072000D01*
X149751241Y-48072000D02*
X149751241Y-47714857D01*
X149751241Y-47714857D02*
X149679813Y-47429142D01*
X149679813Y-47429142D02*
X149608384Y-47286285D01*
X149608384Y-47286285D02*
X149536956Y-47214857D01*
X149536956Y-47214857D02*
X149394098Y-47143428D01*
D10*
X153141316Y-66183152D02*
X153903220Y-66468866D01*
X153903220Y-66468866D02*
X153141316Y-66754580D01*
X123323220Y-65248866D02*
X122561316Y-65248866D01*
X122942268Y-65629819D02*
X122942268Y-64867914D01*
X121656554Y-64629819D02*
X121847030Y-64629819D01*
X121847030Y-64629819D02*
X121942268Y-64677438D01*
X121942268Y-64677438D02*
X121989887Y-64725057D01*
X121989887Y-64725057D02*
X122085125Y-64867914D01*
X122085125Y-64867914D02*
X122132744Y-65058390D01*
X122132744Y-65058390D02*
X122132744Y-65439342D01*
X122132744Y-65439342D02*
X122085125Y-65534580D01*
X122085125Y-65534580D02*
X122037506Y-65582200D01*
X122037506Y-65582200D02*
X121942268Y-65629819D01*
X121942268Y-65629819D02*
X121751792Y-65629819D01*
X121751792Y-65629819D02*
X121656554Y-65582200D01*
X121656554Y-65582200D02*
X121608935Y-65534580D01*
X121608935Y-65534580D02*
X121561316Y-65439342D01*
X121561316Y-65439342D02*
X121561316Y-65201247D01*
X121561316Y-65201247D02*
X121608935Y-65106009D01*
X121608935Y-65106009D02*
X121656554Y-65058390D01*
X121656554Y-65058390D02*
X121751792Y-65010771D01*
X121751792Y-65010771D02*
X121942268Y-65010771D01*
X121942268Y-65010771D02*
X122037506Y-65058390D01*
X122037506Y-65058390D02*
X122085125Y-65106009D01*
X122085125Y-65106009D02*
X122132744Y-65201247D01*
X121132744Y-65534580D02*
X121085125Y-65582200D01*
X121085125Y-65582200D02*
X121132744Y-65629819D01*
X121132744Y-65629819D02*
X121180363Y-65582200D01*
X121180363Y-65582200D02*
X121132744Y-65534580D01*
X121132744Y-65534580D02*
X121132744Y-65629819D01*
X120180364Y-64629819D02*
X120656554Y-64629819D01*
X120656554Y-64629819D02*
X120704173Y-65106009D01*
X120704173Y-65106009D02*
X120656554Y-65058390D01*
X120656554Y-65058390D02*
X120561316Y-65010771D01*
X120561316Y-65010771D02*
X120323221Y-65010771D01*
X120323221Y-65010771D02*
X120227983Y-65058390D01*
X120227983Y-65058390D02*
X120180364Y-65106009D01*
X120180364Y-65106009D02*
X120132745Y-65201247D01*
X120132745Y-65201247D02*
X120132745Y-65439342D01*
X120132745Y-65439342D02*
X120180364Y-65534580D01*
X120180364Y-65534580D02*
X120227983Y-65582200D01*
X120227983Y-65582200D02*
X120323221Y-65629819D01*
X120323221Y-65629819D02*
X120561316Y-65629819D01*
X120561316Y-65629819D02*
X120656554Y-65582200D01*
X120656554Y-65582200D02*
X120704173Y-65534580D01*
X119847030Y-64629819D02*
X119513697Y-65629819D01*
X119513697Y-65629819D02*
X119180364Y-64629819D01*
X145543220Y-58918866D02*
X144781316Y-58918866D01*
X145162268Y-59299819D02*
X145162268Y-58537914D01*
X135123220Y-78048866D02*
X134361316Y-78048866D01*
X152548684Y-66736847D02*
X151786779Y-66451133D01*
X151786779Y-66451133D02*
X152548684Y-66165419D01*
X123466077Y-47769819D02*
X123132744Y-48769819D01*
X123132744Y-48769819D02*
X122799411Y-47769819D01*
X122466077Y-48769819D02*
X122466077Y-47769819D01*
X122466077Y-48150771D02*
X122370839Y-48103152D01*
X122370839Y-48103152D02*
X122180363Y-48103152D01*
X122180363Y-48103152D02*
X122085125Y-48150771D01*
X122085125Y-48150771D02*
X122037506Y-48198390D01*
X122037506Y-48198390D02*
X121989887Y-48293628D01*
X121989887Y-48293628D02*
X121989887Y-48579342D01*
X121989887Y-48579342D02*
X122037506Y-48674580D01*
X122037506Y-48674580D02*
X122085125Y-48722200D01*
X122085125Y-48722200D02*
X122180363Y-48769819D01*
X122180363Y-48769819D02*
X122370839Y-48769819D01*
X122370839Y-48769819D02*
X122466077Y-48722200D01*
X121132744Y-48769819D02*
X121132744Y-48246009D01*
X121132744Y-48246009D02*
X121180363Y-48150771D01*
X121180363Y-48150771D02*
X121275601Y-48103152D01*
X121275601Y-48103152D02*
X121466077Y-48103152D01*
X121466077Y-48103152D02*
X121561315Y-48150771D01*
X121132744Y-48722200D02*
X121227982Y-48769819D01*
X121227982Y-48769819D02*
X121466077Y-48769819D01*
X121466077Y-48769819D02*
X121561315Y-48722200D01*
X121561315Y-48722200D02*
X121608934Y-48626961D01*
X121608934Y-48626961D02*
X121608934Y-48531723D01*
X121608934Y-48531723D02*
X121561315Y-48436485D01*
X121561315Y-48436485D02*
X121466077Y-48388866D01*
X121466077Y-48388866D02*
X121227982Y-48388866D01*
X121227982Y-48388866D02*
X121132744Y-48341247D01*
X120799410Y-48103152D02*
X120418458Y-48103152D01*
X120656553Y-47769819D02*
X120656553Y-48626961D01*
X120656553Y-48626961D02*
X120608934Y-48722200D01*
X120608934Y-48722200D02*
X120513696Y-48769819D01*
X120513696Y-48769819D02*
X120418458Y-48769819D01*
D13*
X154118384Y-45507714D02*
X153618384Y-45507714D01*
X153404098Y-46293428D02*
X154118384Y-46293428D01*
X154118384Y-46293428D02*
X154118384Y-44793428D01*
X154118384Y-44793428D02*
X153404098Y-44793428D01*
X152546955Y-46293428D02*
X152689812Y-46222000D01*
X152689812Y-46222000D02*
X152761241Y-46079142D01*
X152761241Y-46079142D02*
X152761241Y-44793428D01*
X151404098Y-46222000D02*
X151546955Y-46293428D01*
X151546955Y-46293428D02*
X151832670Y-46293428D01*
X151832670Y-46293428D02*
X151975527Y-46222000D01*
X151975527Y-46222000D02*
X152046955Y-46079142D01*
X152046955Y-46079142D02*
X152046955Y-45507714D01*
X152046955Y-45507714D02*
X151975527Y-45364857D01*
X151975527Y-45364857D02*
X151832670Y-45293428D01*
X151832670Y-45293428D02*
X151546955Y-45293428D01*
X151546955Y-45293428D02*
X151404098Y-45364857D01*
X151404098Y-45364857D02*
X151332670Y-45507714D01*
X151332670Y-45507714D02*
X151332670Y-45650571D01*
X151332670Y-45650571D02*
X152046955Y-45793428D01*
X150046956Y-46222000D02*
X150189813Y-46293428D01*
X150189813Y-46293428D02*
X150475527Y-46293428D01*
X150475527Y-46293428D02*
X150618384Y-46222000D01*
X150618384Y-46222000D02*
X150689813Y-46150571D01*
X150689813Y-46150571D02*
X150761241Y-46007714D01*
X150761241Y-46007714D02*
X150761241Y-45579142D01*
X150761241Y-45579142D02*
X150689813Y-45436285D01*
X150689813Y-45436285D02*
X150618384Y-45364857D01*
X150618384Y-45364857D02*
X150475527Y-45293428D01*
X150475527Y-45293428D02*
X150189813Y-45293428D01*
X150189813Y-45293428D02*
X150046956Y-45364857D01*
X149618384Y-45293428D02*
X149046956Y-45293428D01*
X149404099Y-44793428D02*
X149404099Y-46079142D01*
X149404099Y-46079142D02*
X149332670Y-46222000D01*
X149332670Y-46222000D02*
X149189813Y-46293428D01*
X149189813Y-46293428D02*
X149046956Y-46293428D01*
X148546956Y-46293428D02*
X148546956Y-45293428D01*
X148546956Y-45579142D02*
X148475527Y-45436285D01*
X148475527Y-45436285D02*
X148404099Y-45364857D01*
X148404099Y-45364857D02*
X148261241Y-45293428D01*
X148261241Y-45293428D02*
X148118384Y-45293428D01*
X147404099Y-46293428D02*
X147546956Y-46222000D01*
X147546956Y-46222000D02*
X147618385Y-46150571D01*
X147618385Y-46150571D02*
X147689813Y-46007714D01*
X147689813Y-46007714D02*
X147689813Y-45579142D01*
X147689813Y-45579142D02*
X147618385Y-45436285D01*
X147618385Y-45436285D02*
X147546956Y-45364857D01*
X147546956Y-45364857D02*
X147404099Y-45293428D01*
X147404099Y-45293428D02*
X147189813Y-45293428D01*
X147189813Y-45293428D02*
X147046956Y-45364857D01*
X147046956Y-45364857D02*
X146975528Y-45436285D01*
X146975528Y-45436285D02*
X146904099Y-45579142D01*
X146904099Y-45579142D02*
X146904099Y-46007714D01*
X146904099Y-46007714D02*
X146975528Y-46150571D01*
X146975528Y-46150571D02*
X147046956Y-46222000D01*
X147046956Y-46222000D02*
X147189813Y-46293428D01*
X147189813Y-46293428D02*
X147404099Y-46293428D01*
X146261242Y-46293428D02*
X146261242Y-44793428D01*
X146261242Y-45364857D02*
X146118385Y-45293428D01*
X146118385Y-45293428D02*
X145832670Y-45293428D01*
X145832670Y-45293428D02*
X145689813Y-45364857D01*
X145689813Y-45364857D02*
X145618385Y-45436285D01*
X145618385Y-45436285D02*
X145546956Y-45579142D01*
X145546956Y-45579142D02*
X145546956Y-46007714D01*
X145546956Y-46007714D02*
X145618385Y-46150571D01*
X145618385Y-46150571D02*
X145689813Y-46222000D01*
X145689813Y-46222000D02*
X145832670Y-46293428D01*
X145832670Y-46293428D02*
X146118385Y-46293428D01*
X146118385Y-46293428D02*
X146261242Y-46222000D01*
X144689813Y-46293428D02*
X144832670Y-46222000D01*
X144832670Y-46222000D02*
X144904099Y-46150571D01*
X144904099Y-46150571D02*
X144975527Y-46007714D01*
X144975527Y-46007714D02*
X144975527Y-45579142D01*
X144975527Y-45579142D02*
X144904099Y-45436285D01*
X144904099Y-45436285D02*
X144832670Y-45364857D01*
X144832670Y-45364857D02*
X144689813Y-45293428D01*
X144689813Y-45293428D02*
X144475527Y-45293428D01*
X144475527Y-45293428D02*
X144332670Y-45364857D01*
X144332670Y-45364857D02*
X144261242Y-45436285D01*
X144261242Y-45436285D02*
X144189813Y-45579142D01*
X144189813Y-45579142D02*
X144189813Y-46007714D01*
X144189813Y-46007714D02*
X144261242Y-46150571D01*
X144261242Y-46150571D02*
X144332670Y-46222000D01*
X144332670Y-46222000D02*
X144475527Y-46293428D01*
X144475527Y-46293428D02*
X144689813Y-46293428D01*
X143761241Y-45293428D02*
X143189813Y-45293428D01*
X143546956Y-44793428D02*
X143546956Y-46079142D01*
X143546956Y-46079142D02*
X143475527Y-46222000D01*
X143475527Y-46222000D02*
X143332670Y-46293428D01*
X143332670Y-46293428D02*
X143189813Y-46293428D01*
X140761241Y-44864857D02*
X140904099Y-44793428D01*
X140904099Y-44793428D02*
X141118384Y-44793428D01*
X141118384Y-44793428D02*
X141332670Y-44864857D01*
X141332670Y-44864857D02*
X141475527Y-45007714D01*
X141475527Y-45007714D02*
X141546956Y-45150571D01*
X141546956Y-45150571D02*
X141618384Y-45436285D01*
X141618384Y-45436285D02*
X141618384Y-45650571D01*
X141618384Y-45650571D02*
X141546956Y-45936285D01*
X141546956Y-45936285D02*
X141475527Y-46079142D01*
X141475527Y-46079142D02*
X141332670Y-46222000D01*
X141332670Y-46222000D02*
X141118384Y-46293428D01*
X141118384Y-46293428D02*
X140975527Y-46293428D01*
X140975527Y-46293428D02*
X140761241Y-46222000D01*
X140761241Y-46222000D02*
X140689813Y-46150571D01*
X140689813Y-46150571D02*
X140689813Y-45650571D01*
X140689813Y-45650571D02*
X140975527Y-45650571D01*
X139404099Y-45293428D02*
X139404099Y-46293428D01*
X139761241Y-44722000D02*
X140118384Y-45793428D01*
X140118384Y-45793428D02*
X139189813Y-45793428D01*
X138761242Y-44793428D02*
X137761242Y-44793428D01*
X137761242Y-44793428D02*
X138404099Y-46293428D01*
X136546957Y-45293428D02*
X136546957Y-46293428D01*
X136904099Y-44722000D02*
X137261242Y-45793428D01*
X137261242Y-45793428D02*
X136332671Y-45793428D01*
D10*
X136989887Y-77926009D02*
X136847030Y-77973628D01*
X136847030Y-77973628D02*
X136799411Y-78021247D01*
X136799411Y-78021247D02*
X136751792Y-78116485D01*
X136751792Y-78116485D02*
X136751792Y-78259342D01*
X136751792Y-78259342D02*
X136799411Y-78354580D01*
X136799411Y-78354580D02*
X136847030Y-78402200D01*
X136847030Y-78402200D02*
X136942268Y-78449819D01*
X136942268Y-78449819D02*
X137323220Y-78449819D01*
X137323220Y-78449819D02*
X137323220Y-77449819D01*
X137323220Y-77449819D02*
X136989887Y-77449819D01*
X136989887Y-77449819D02*
X136894649Y-77497438D01*
X136894649Y-77497438D02*
X136847030Y-77545057D01*
X136847030Y-77545057D02*
X136799411Y-77640295D01*
X136799411Y-77640295D02*
X136799411Y-77735533D01*
X136799411Y-77735533D02*
X136847030Y-77830771D01*
X136847030Y-77830771D02*
X136894649Y-77878390D01*
X136894649Y-77878390D02*
X136989887Y-77926009D01*
X136989887Y-77926009D02*
X137323220Y-77926009D01*
X109121792Y-82869819D02*
X109455125Y-82393628D01*
X109693220Y-82869819D02*
X109693220Y-81869819D01*
X109693220Y-81869819D02*
X109312268Y-81869819D01*
X109312268Y-81869819D02*
X109217030Y-81917438D01*
X109217030Y-81917438D02*
X109169411Y-81965057D01*
X109169411Y-81965057D02*
X109121792Y-82060295D01*
X109121792Y-82060295D02*
X109121792Y-82203152D01*
X109121792Y-82203152D02*
X109169411Y-82298390D01*
X109169411Y-82298390D02*
X109217030Y-82346009D01*
X109217030Y-82346009D02*
X109312268Y-82393628D01*
X109312268Y-82393628D02*
X109693220Y-82393628D01*
X108740839Y-82822200D02*
X108597982Y-82869819D01*
X108597982Y-82869819D02*
X108359887Y-82869819D01*
X108359887Y-82869819D02*
X108264649Y-82822200D01*
X108264649Y-82822200D02*
X108217030Y-82774580D01*
X108217030Y-82774580D02*
X108169411Y-82679342D01*
X108169411Y-82679342D02*
X108169411Y-82584104D01*
X108169411Y-82584104D02*
X108217030Y-82488866D01*
X108217030Y-82488866D02*
X108264649Y-82441247D01*
X108264649Y-82441247D02*
X108359887Y-82393628D01*
X108359887Y-82393628D02*
X108550363Y-82346009D01*
X108550363Y-82346009D02*
X108645601Y-82298390D01*
X108645601Y-82298390D02*
X108693220Y-82250771D01*
X108693220Y-82250771D02*
X108740839Y-82155533D01*
X108740839Y-82155533D02*
X108740839Y-82060295D01*
X108740839Y-82060295D02*
X108693220Y-81965057D01*
X108693220Y-81965057D02*
X108645601Y-81917438D01*
X108645601Y-81917438D02*
X108550363Y-81869819D01*
X108550363Y-81869819D02*
X108312268Y-81869819D01*
X108312268Y-81869819D02*
X108169411Y-81917438D01*
X107788458Y-81965057D02*
X107740839Y-81917438D01*
X107740839Y-81917438D02*
X107645601Y-81869819D01*
X107645601Y-81869819D02*
X107407506Y-81869819D01*
X107407506Y-81869819D02*
X107312268Y-81917438D01*
X107312268Y-81917438D02*
X107264649Y-81965057D01*
X107264649Y-81965057D02*
X107217030Y-82060295D01*
X107217030Y-82060295D02*
X107217030Y-82155533D01*
X107217030Y-82155533D02*
X107264649Y-82298390D01*
X107264649Y-82298390D02*
X107836077Y-82869819D01*
X107836077Y-82869819D02*
X107217030Y-82869819D01*
X106883696Y-81869819D02*
X106264649Y-81869819D01*
X106264649Y-81869819D02*
X106597982Y-82250771D01*
X106597982Y-82250771D02*
X106455125Y-82250771D01*
X106455125Y-82250771D02*
X106359887Y-82298390D01*
X106359887Y-82298390D02*
X106312268Y-82346009D01*
X106312268Y-82346009D02*
X106264649Y-82441247D01*
X106264649Y-82441247D02*
X106264649Y-82679342D01*
X106264649Y-82679342D02*
X106312268Y-82774580D01*
X106312268Y-82774580D02*
X106359887Y-82822200D01*
X106359887Y-82822200D02*
X106455125Y-82869819D01*
X106455125Y-82869819D02*
X106740839Y-82869819D01*
X106740839Y-82869819D02*
X106836077Y-82822200D01*
X106836077Y-82822200D02*
X106883696Y-82774580D01*
X105883696Y-81965057D02*
X105836077Y-81917438D01*
X105836077Y-81917438D02*
X105740839Y-81869819D01*
X105740839Y-81869819D02*
X105502744Y-81869819D01*
X105502744Y-81869819D02*
X105407506Y-81917438D01*
X105407506Y-81917438D02*
X105359887Y-81965057D01*
X105359887Y-81965057D02*
X105312268Y-82060295D01*
X105312268Y-82060295D02*
X105312268Y-82155533D01*
X105312268Y-82155533D02*
X105359887Y-82298390D01*
X105359887Y-82298390D02*
X105931315Y-82869819D01*
X105931315Y-82869819D02*
X105312268Y-82869819D01*
X105121792Y-82965057D02*
X104359887Y-82965057D01*
X104169410Y-81965057D02*
X104121791Y-81917438D01*
X104121791Y-81917438D02*
X104026553Y-81869819D01*
X104026553Y-81869819D02*
X103788458Y-81869819D01*
X103788458Y-81869819D02*
X103693220Y-81917438D01*
X103693220Y-81917438D02*
X103645601Y-81965057D01*
X103645601Y-81965057D02*
X103597982Y-82060295D01*
X103597982Y-82060295D02*
X103597982Y-82155533D01*
X103597982Y-82155533D02*
X103645601Y-82298390D01*
X103645601Y-82298390D02*
X104217029Y-82869819D01*
X104217029Y-82869819D02*
X103597982Y-82869819D01*
X114673152Y-68138684D02*
X114958866Y-67376779D01*
X114958866Y-67376779D02*
X115244580Y-68138684D01*
X129370839Y-99212200D02*
X129227982Y-99259819D01*
X129227982Y-99259819D02*
X128989887Y-99259819D01*
X128989887Y-99259819D02*
X128894649Y-99212200D01*
X128894649Y-99212200D02*
X128847030Y-99164580D01*
X128847030Y-99164580D02*
X128799411Y-99069342D01*
X128799411Y-99069342D02*
X128799411Y-98974104D01*
X128799411Y-98974104D02*
X128847030Y-98878866D01*
X128847030Y-98878866D02*
X128894649Y-98831247D01*
X128894649Y-98831247D02*
X128989887Y-98783628D01*
X128989887Y-98783628D02*
X129180363Y-98736009D01*
X129180363Y-98736009D02*
X129275601Y-98688390D01*
X129275601Y-98688390D02*
X129323220Y-98640771D01*
X129323220Y-98640771D02*
X129370839Y-98545533D01*
X129370839Y-98545533D02*
X129370839Y-98450295D01*
X129370839Y-98450295D02*
X129323220Y-98355057D01*
X129323220Y-98355057D02*
X129275601Y-98307438D01*
X129275601Y-98307438D02*
X129180363Y-98259819D01*
X129180363Y-98259819D02*
X128942268Y-98259819D01*
X128942268Y-98259819D02*
X128799411Y-98307438D01*
X127989887Y-99212200D02*
X128085125Y-99259819D01*
X128085125Y-99259819D02*
X128275601Y-99259819D01*
X128275601Y-99259819D02*
X128370839Y-99212200D01*
X128370839Y-99212200D02*
X128418458Y-99116961D01*
X128418458Y-99116961D02*
X128418458Y-98736009D01*
X128418458Y-98736009D02*
X128370839Y-98640771D01*
X128370839Y-98640771D02*
X128275601Y-98593152D01*
X128275601Y-98593152D02*
X128085125Y-98593152D01*
X128085125Y-98593152D02*
X127989887Y-98640771D01*
X127989887Y-98640771D02*
X127942268Y-98736009D01*
X127942268Y-98736009D02*
X127942268Y-98831247D01*
X127942268Y-98831247D02*
X128418458Y-98926485D01*
X127513696Y-99259819D02*
X127513696Y-98593152D01*
X127513696Y-98783628D02*
X127466077Y-98688390D01*
X127466077Y-98688390D02*
X127418458Y-98640771D01*
X127418458Y-98640771D02*
X127323220Y-98593152D01*
X127323220Y-98593152D02*
X127227982Y-98593152D01*
X126989886Y-98593152D02*
X126751791Y-99259819D01*
X126751791Y-99259819D02*
X126513696Y-98593152D01*
X125989886Y-99259819D02*
X126085124Y-99212200D01*
X126085124Y-99212200D02*
X126132743Y-99164580D01*
X126132743Y-99164580D02*
X126180362Y-99069342D01*
X126180362Y-99069342D02*
X126180362Y-98783628D01*
X126180362Y-98783628D02*
X126132743Y-98688390D01*
X126132743Y-98688390D02*
X126085124Y-98640771D01*
X126085124Y-98640771D02*
X125989886Y-98593152D01*
X125989886Y-98593152D02*
X125847029Y-98593152D01*
X125847029Y-98593152D02*
X125751791Y-98640771D01*
X125751791Y-98640771D02*
X125704172Y-98688390D01*
X125704172Y-98688390D02*
X125656553Y-98783628D01*
X125656553Y-98783628D02*
X125656553Y-99069342D01*
X125656553Y-99069342D02*
X125704172Y-99164580D01*
X125704172Y-99164580D02*
X125751791Y-99212200D01*
X125751791Y-99212200D02*
X125847029Y-99259819D01*
X125847029Y-99259819D02*
X125989886Y-99259819D01*
X125323219Y-98259819D02*
X124704172Y-98259819D01*
X124704172Y-98259819D02*
X125037505Y-98640771D01*
X125037505Y-98640771D02*
X124894648Y-98640771D01*
X124894648Y-98640771D02*
X124799410Y-98688390D01*
X124799410Y-98688390D02*
X124751791Y-98736009D01*
X124751791Y-98736009D02*
X124704172Y-98831247D01*
X124704172Y-98831247D02*
X124704172Y-99069342D01*
X124704172Y-99069342D02*
X124751791Y-99164580D01*
X124751791Y-99164580D02*
X124799410Y-99212200D01*
X124799410Y-99212200D02*
X124894648Y-99259819D01*
X124894648Y-99259819D02*
X125180362Y-99259819D01*
X125180362Y-99259819D02*
X125275600Y-99212200D01*
X125275600Y-99212200D02*
X125323219Y-99164580D01*
X120673220Y-87428866D02*
X119911316Y-87428866D01*
X120292268Y-87809819D02*
X120292268Y-87047914D01*
X112083152Y-84938684D02*
X112368866Y-84176779D01*
X112368866Y-84176779D02*
X112654580Y-84938684D01*
X115426077Y-75589819D02*
X114854649Y-75589819D01*
X115140363Y-76589819D02*
X115140363Y-75589819D01*
X114616553Y-76589819D02*
X114092744Y-75923152D01*
X114616553Y-75923152D02*
X114092744Y-76589819D01*
X129360839Y-103552200D02*
X129217982Y-103599819D01*
X129217982Y-103599819D02*
X128979887Y-103599819D01*
X128979887Y-103599819D02*
X128884649Y-103552200D01*
X128884649Y-103552200D02*
X128837030Y-103504580D01*
X128837030Y-103504580D02*
X128789411Y-103409342D01*
X128789411Y-103409342D02*
X128789411Y-103314104D01*
X128789411Y-103314104D02*
X128837030Y-103218866D01*
X128837030Y-103218866D02*
X128884649Y-103171247D01*
X128884649Y-103171247D02*
X128979887Y-103123628D01*
X128979887Y-103123628D02*
X129170363Y-103076009D01*
X129170363Y-103076009D02*
X129265601Y-103028390D01*
X129265601Y-103028390D02*
X129313220Y-102980771D01*
X129313220Y-102980771D02*
X129360839Y-102885533D01*
X129360839Y-102885533D02*
X129360839Y-102790295D01*
X129360839Y-102790295D02*
X129313220Y-102695057D01*
X129313220Y-102695057D02*
X129265601Y-102647438D01*
X129265601Y-102647438D02*
X129170363Y-102599819D01*
X129170363Y-102599819D02*
X128932268Y-102599819D01*
X128932268Y-102599819D02*
X128789411Y-102647438D01*
X127979887Y-103552200D02*
X128075125Y-103599819D01*
X128075125Y-103599819D02*
X128265601Y-103599819D01*
X128265601Y-103599819D02*
X128360839Y-103552200D01*
X128360839Y-103552200D02*
X128408458Y-103456961D01*
X128408458Y-103456961D02*
X128408458Y-103076009D01*
X128408458Y-103076009D02*
X128360839Y-102980771D01*
X128360839Y-102980771D02*
X128265601Y-102933152D01*
X128265601Y-102933152D02*
X128075125Y-102933152D01*
X128075125Y-102933152D02*
X127979887Y-102980771D01*
X127979887Y-102980771D02*
X127932268Y-103076009D01*
X127932268Y-103076009D02*
X127932268Y-103171247D01*
X127932268Y-103171247D02*
X128408458Y-103266485D01*
X127503696Y-103599819D02*
X127503696Y-102933152D01*
X127503696Y-103123628D02*
X127456077Y-103028390D01*
X127456077Y-103028390D02*
X127408458Y-102980771D01*
X127408458Y-102980771D02*
X127313220Y-102933152D01*
X127313220Y-102933152D02*
X127217982Y-102933152D01*
X126979886Y-102933152D02*
X126741791Y-103599819D01*
X126741791Y-103599819D02*
X126503696Y-102933152D01*
X125979886Y-103599819D02*
X126075124Y-103552200D01*
X126075124Y-103552200D02*
X126122743Y-103504580D01*
X126122743Y-103504580D02*
X126170362Y-103409342D01*
X126170362Y-103409342D02*
X126170362Y-103123628D01*
X126170362Y-103123628D02*
X126122743Y-103028390D01*
X126122743Y-103028390D02*
X126075124Y-102980771D01*
X126075124Y-102980771D02*
X125979886Y-102933152D01*
X125979886Y-102933152D02*
X125837029Y-102933152D01*
X125837029Y-102933152D02*
X125741791Y-102980771D01*
X125741791Y-102980771D02*
X125694172Y-103028390D01*
X125694172Y-103028390D02*
X125646553Y-103123628D01*
X125646553Y-103123628D02*
X125646553Y-103409342D01*
X125646553Y-103409342D02*
X125694172Y-103504580D01*
X125694172Y-103504580D02*
X125741791Y-103552200D01*
X125741791Y-103552200D02*
X125837029Y-103599819D01*
X125837029Y-103599819D02*
X125979886Y-103599819D01*
X124789410Y-102933152D02*
X124789410Y-103599819D01*
X125027505Y-102552200D02*
X125265600Y-103266485D01*
X125265600Y-103266485D02*
X124646553Y-103266485D01*
D11*
X96484387Y-72927180D02*
X96532006Y-72974800D01*
X96532006Y-72974800D02*
X96674863Y-73022419D01*
X96674863Y-73022419D02*
X96770101Y-73022419D01*
X96770101Y-73022419D02*
X96912958Y-72974800D01*
X96912958Y-72974800D02*
X97008196Y-72879561D01*
X97008196Y-72879561D02*
X97055815Y-72784323D01*
X97055815Y-72784323D02*
X97103434Y-72593847D01*
X97103434Y-72593847D02*
X97103434Y-72450990D01*
X97103434Y-72450990D02*
X97055815Y-72260514D01*
X97055815Y-72260514D02*
X97008196Y-72165276D01*
X97008196Y-72165276D02*
X96912958Y-72070038D01*
X96912958Y-72070038D02*
X96770101Y-72022419D01*
X96770101Y-72022419D02*
X96674863Y-72022419D01*
X96674863Y-72022419D02*
X96532006Y-72070038D01*
X96532006Y-72070038D02*
X96484387Y-72117657D01*
X96055815Y-73022419D02*
X96055815Y-72022419D01*
X96055815Y-72022419D02*
X95484387Y-73022419D01*
X95484387Y-73022419D02*
X95484387Y-72022419D01*
X95103434Y-72022419D02*
X94436768Y-72022419D01*
X94436768Y-72022419D02*
X94865339Y-73022419D01*
X158864387Y-72887180D02*
X158912006Y-72934800D01*
X158912006Y-72934800D02*
X159054863Y-72982419D01*
X159054863Y-72982419D02*
X159150101Y-72982419D01*
X159150101Y-72982419D02*
X159292958Y-72934800D01*
X159292958Y-72934800D02*
X159388196Y-72839561D01*
X159388196Y-72839561D02*
X159435815Y-72744323D01*
X159435815Y-72744323D02*
X159483434Y-72553847D01*
X159483434Y-72553847D02*
X159483434Y-72410990D01*
X159483434Y-72410990D02*
X159435815Y-72220514D01*
X159435815Y-72220514D02*
X159388196Y-72125276D01*
X159388196Y-72125276D02*
X159292958Y-72030038D01*
X159292958Y-72030038D02*
X159150101Y-71982419D01*
X159150101Y-71982419D02*
X159054863Y-71982419D01*
X159054863Y-71982419D02*
X158912006Y-72030038D01*
X158912006Y-72030038D02*
X158864387Y-72077657D01*
X158435815Y-72982419D02*
X158435815Y-71982419D01*
X158435815Y-71982419D02*
X157864387Y-72982419D01*
X157864387Y-72982419D02*
X157864387Y-71982419D01*
X156864387Y-72982419D02*
X157435815Y-72982419D01*
X157150101Y-72982419D02*
X157150101Y-71982419D01*
X157150101Y-71982419D02*
X157245339Y-72125276D01*
X157245339Y-72125276D02*
X157340577Y-72220514D01*
X157340577Y-72220514D02*
X157435815Y-72268133D01*
X156245339Y-71982419D02*
X156150101Y-71982419D01*
X156150101Y-71982419D02*
X156054863Y-72030038D01*
X156054863Y-72030038D02*
X156007244Y-72077657D01*
X156007244Y-72077657D02*
X155959625Y-72172895D01*
X155959625Y-72172895D02*
X155912006Y-72363371D01*
X155912006Y-72363371D02*
X155912006Y-72601466D01*
X155912006Y-72601466D02*
X155959625Y-72791942D01*
X155959625Y-72791942D02*
X156007244Y-72887180D01*
X156007244Y-72887180D02*
X156054863Y-72934800D01*
X156054863Y-72934800D02*
X156150101Y-72982419D01*
X156150101Y-72982419D02*
X156245339Y-72982419D01*
X156245339Y-72982419D02*
X156340577Y-72934800D01*
X156340577Y-72934800D02*
X156388196Y-72887180D01*
X156388196Y-72887180D02*
X156435815Y-72791942D01*
X156435815Y-72791942D02*
X156483434Y-72601466D01*
X156483434Y-72601466D02*
X156483434Y-72363371D01*
X156483434Y-72363371D02*
X156435815Y-72172895D01*
X156435815Y-72172895D02*
X156388196Y-72077657D01*
X156388196Y-72077657D02*
X156340577Y-72030038D01*
X156340577Y-72030038D02*
X156245339Y-71982419D01*
D10*
X97513333Y-53424819D02*
X97513333Y-54139104D01*
X97513333Y-54139104D02*
X97560952Y-54281961D01*
X97560952Y-54281961D02*
X97656190Y-54377200D01*
X97656190Y-54377200D02*
X97799047Y-54424819D01*
X97799047Y-54424819D02*
X97894285Y-54424819D01*
X97132380Y-53424819D02*
X96513333Y-53424819D01*
X96513333Y-53424819D02*
X96846666Y-53805771D01*
X96846666Y-53805771D02*
X96703809Y-53805771D01*
X96703809Y-53805771D02*
X96608571Y-53853390D01*
X96608571Y-53853390D02*
X96560952Y-53901009D01*
X96560952Y-53901009D02*
X96513333Y-53996247D01*
X96513333Y-53996247D02*
X96513333Y-54234342D01*
X96513333Y-54234342D02*
X96560952Y-54329580D01*
X96560952Y-54329580D02*
X96608571Y-54377200D01*
X96608571Y-54377200D02*
X96703809Y-54424819D01*
X96703809Y-54424819D02*
X96989523Y-54424819D01*
X96989523Y-54424819D02*
X97084761Y-54377200D01*
X97084761Y-54377200D02*
X97132380Y-54329580D01*
X104014700Y-49448571D02*
X104014700Y-50591429D01*
X104586128Y-50020000D02*
X103443271Y-50020000D01*
X104204700Y-56188571D02*
X104204700Y-57331429D01*
X151529523Y-97814819D02*
X151529523Y-98529104D01*
X151529523Y-98529104D02*
X151577142Y-98671961D01*
X151577142Y-98671961D02*
X151672380Y-98767200D01*
X151672380Y-98767200D02*
X151815237Y-98814819D01*
X151815237Y-98814819D02*
X151910475Y-98814819D01*
X150529523Y-98814819D02*
X151100951Y-98814819D01*
X150815237Y-98814819D02*
X150815237Y-97814819D01*
X150815237Y-97814819D02*
X150910475Y-97957676D01*
X150910475Y-97957676D02*
X151005713Y-98052914D01*
X151005713Y-98052914D02*
X151100951Y-98100533D01*
X150148570Y-97910057D02*
X150100951Y-97862438D01*
X150100951Y-97862438D02*
X150005713Y-97814819D01*
X150005713Y-97814819D02*
X149767618Y-97814819D01*
X149767618Y-97814819D02*
X149672380Y-97862438D01*
X149672380Y-97862438D02*
X149624761Y-97910057D01*
X149624761Y-97910057D02*
X149577142Y-98005295D01*
X149577142Y-98005295D02*
X149577142Y-98100533D01*
X149577142Y-98100533D02*
X149624761Y-98243390D01*
X149624761Y-98243390D02*
X150196189Y-98814819D01*
X150196189Y-98814819D02*
X149577142Y-98814819D01*
X139048094Y-96464819D02*
X139048094Y-95464819D01*
X139048094Y-95464819D02*
X138809999Y-95464819D01*
X138809999Y-95464819D02*
X138667142Y-95512438D01*
X138667142Y-95512438D02*
X138571904Y-95607676D01*
X138571904Y-95607676D02*
X138524285Y-95702914D01*
X138524285Y-95702914D02*
X138476666Y-95893390D01*
X138476666Y-95893390D02*
X138476666Y-96036247D01*
X138476666Y-96036247D02*
X138524285Y-96226723D01*
X138524285Y-96226723D02*
X138571904Y-96321961D01*
X138571904Y-96321961D02*
X138667142Y-96417200D01*
X138667142Y-96417200D02*
X138809999Y-96464819D01*
X138809999Y-96464819D02*
X139048094Y-96464819D01*
X137524285Y-96464819D02*
X138095713Y-96464819D01*
X137809999Y-96464819D02*
X137809999Y-95464819D01*
X137809999Y-95464819D02*
X137905237Y-95607676D01*
X137905237Y-95607676D02*
X138000475Y-95702914D01*
X138000475Y-95702914D02*
X138095713Y-95750533D01*
X113506666Y-113519580D02*
X113554285Y-113567200D01*
X113554285Y-113567200D02*
X113697142Y-113614819D01*
X113697142Y-113614819D02*
X113792380Y-113614819D01*
X113792380Y-113614819D02*
X113935237Y-113567200D01*
X113935237Y-113567200D02*
X114030475Y-113471961D01*
X114030475Y-113471961D02*
X114078094Y-113376723D01*
X114078094Y-113376723D02*
X114125713Y-113186247D01*
X114125713Y-113186247D02*
X114125713Y-113043390D01*
X114125713Y-113043390D02*
X114078094Y-112852914D01*
X114078094Y-112852914D02*
X114030475Y-112757676D01*
X114030475Y-112757676D02*
X113935237Y-112662438D01*
X113935237Y-112662438D02*
X113792380Y-112614819D01*
X113792380Y-112614819D02*
X113697142Y-112614819D01*
X113697142Y-112614819D02*
X113554285Y-112662438D01*
X113554285Y-112662438D02*
X113506666Y-112710057D01*
X112649523Y-112614819D02*
X112839999Y-112614819D01*
X112839999Y-112614819D02*
X112935237Y-112662438D01*
X112935237Y-112662438D02*
X112982856Y-112710057D01*
X112982856Y-112710057D02*
X113078094Y-112852914D01*
X113078094Y-112852914D02*
X113125713Y-113043390D01*
X113125713Y-113043390D02*
X113125713Y-113424342D01*
X113125713Y-113424342D02*
X113078094Y-113519580D01*
X113078094Y-113519580D02*
X113030475Y-113567200D01*
X113030475Y-113567200D02*
X112935237Y-113614819D01*
X112935237Y-113614819D02*
X112744761Y-113614819D01*
X112744761Y-113614819D02*
X112649523Y-113567200D01*
X112649523Y-113567200D02*
X112601904Y-113519580D01*
X112601904Y-113519580D02*
X112554285Y-113424342D01*
X112554285Y-113424342D02*
X112554285Y-113186247D01*
X112554285Y-113186247D02*
X112601904Y-113091009D01*
X112601904Y-113091009D02*
X112649523Y-113043390D01*
X112649523Y-113043390D02*
X112744761Y-112995771D01*
X112744761Y-112995771D02*
X112935237Y-112995771D01*
X112935237Y-112995771D02*
X113030475Y-113043390D01*
X113030475Y-113043390D02*
X113078094Y-113091009D01*
X113078094Y-113091009D02*
X113125713Y-113186247D01*
X101953333Y-96184819D02*
X101953333Y-96899104D01*
X101953333Y-96899104D02*
X102000952Y-97041961D01*
X102000952Y-97041961D02*
X102096190Y-97137200D01*
X102096190Y-97137200D02*
X102239047Y-97184819D01*
X102239047Y-97184819D02*
X102334285Y-97184819D01*
X100953333Y-97184819D02*
X101524761Y-97184819D01*
X101239047Y-97184819D02*
X101239047Y-96184819D01*
X101239047Y-96184819D02*
X101334285Y-96327676D01*
X101334285Y-96327676D02*
X101429523Y-96422914D01*
X101429523Y-96422914D02*
X101524761Y-96470533D01*
X110149523Y-111404819D02*
X110149523Y-112119104D01*
X110149523Y-112119104D02*
X110197142Y-112261961D01*
X110197142Y-112261961D02*
X110292380Y-112357200D01*
X110292380Y-112357200D02*
X110435237Y-112404819D01*
X110435237Y-112404819D02*
X110530475Y-112404819D01*
X109149523Y-112404819D02*
X109720951Y-112404819D01*
X109435237Y-112404819D02*
X109435237Y-111404819D01*
X109435237Y-111404819D02*
X109530475Y-111547676D01*
X109530475Y-111547676D02*
X109625713Y-111642914D01*
X109625713Y-111642914D02*
X109720951Y-111690533D01*
X108816189Y-111404819D02*
X108197142Y-111404819D01*
X108197142Y-111404819D02*
X108530475Y-111785771D01*
X108530475Y-111785771D02*
X108387618Y-111785771D01*
X108387618Y-111785771D02*
X108292380Y-111833390D01*
X108292380Y-111833390D02*
X108244761Y-111881009D01*
X108244761Y-111881009D02*
X108197142Y-111976247D01*
X108197142Y-111976247D02*
X108197142Y-112214342D01*
X108197142Y-112214342D02*
X108244761Y-112309580D01*
X108244761Y-112309580D02*
X108292380Y-112357200D01*
X108292380Y-112357200D02*
X108387618Y-112404819D01*
X108387618Y-112404819D02*
X108673332Y-112404819D01*
X108673332Y-112404819D02*
X108768570Y-112357200D01*
X108768570Y-112357200D02*
X108816189Y-112309580D01*
X109783333Y-96664819D02*
X109783333Y-97379104D01*
X109783333Y-97379104D02*
X109830952Y-97521961D01*
X109830952Y-97521961D02*
X109926190Y-97617200D01*
X109926190Y-97617200D02*
X110069047Y-97664819D01*
X110069047Y-97664819D02*
X110164285Y-97664819D01*
X109402380Y-96664819D02*
X108735714Y-96664819D01*
X108735714Y-96664819D02*
X109164285Y-97664819D01*
X109429523Y-71324819D02*
X109429523Y-72039104D01*
X109429523Y-72039104D02*
X109477142Y-72181961D01*
X109477142Y-72181961D02*
X109572380Y-72277200D01*
X109572380Y-72277200D02*
X109715237Y-72324819D01*
X109715237Y-72324819D02*
X109810475Y-72324819D01*
X108429523Y-72324819D02*
X109000951Y-72324819D01*
X108715237Y-72324819D02*
X108715237Y-71324819D01*
X108715237Y-71324819D02*
X108810475Y-71467676D01*
X108810475Y-71467676D02*
X108905713Y-71562914D01*
X108905713Y-71562914D02*
X109000951Y-71610533D01*
X107572380Y-71658152D02*
X107572380Y-72324819D01*
X107810475Y-71277200D02*
X108048570Y-71991485D01*
X108048570Y-71991485D02*
X107429523Y-71991485D01*
X130043333Y-109244819D02*
X130043333Y-109959104D01*
X130043333Y-109959104D02*
X130090952Y-110101961D01*
X130090952Y-110101961D02*
X130186190Y-110197200D01*
X130186190Y-110197200D02*
X130329047Y-110244819D01*
X130329047Y-110244819D02*
X130424285Y-110244819D01*
X129424285Y-109673390D02*
X129519523Y-109625771D01*
X129519523Y-109625771D02*
X129567142Y-109578152D01*
X129567142Y-109578152D02*
X129614761Y-109482914D01*
X129614761Y-109482914D02*
X129614761Y-109435295D01*
X129614761Y-109435295D02*
X129567142Y-109340057D01*
X129567142Y-109340057D02*
X129519523Y-109292438D01*
X129519523Y-109292438D02*
X129424285Y-109244819D01*
X129424285Y-109244819D02*
X129233809Y-109244819D01*
X129233809Y-109244819D02*
X129138571Y-109292438D01*
X129138571Y-109292438D02*
X129090952Y-109340057D01*
X129090952Y-109340057D02*
X129043333Y-109435295D01*
X129043333Y-109435295D02*
X129043333Y-109482914D01*
X129043333Y-109482914D02*
X129090952Y-109578152D01*
X129090952Y-109578152D02*
X129138571Y-109625771D01*
X129138571Y-109625771D02*
X129233809Y-109673390D01*
X129233809Y-109673390D02*
X129424285Y-109673390D01*
X129424285Y-109673390D02*
X129519523Y-109721009D01*
X129519523Y-109721009D02*
X129567142Y-109768628D01*
X129567142Y-109768628D02*
X129614761Y-109863866D01*
X129614761Y-109863866D02*
X129614761Y-110054342D01*
X129614761Y-110054342D02*
X129567142Y-110149580D01*
X129567142Y-110149580D02*
X129519523Y-110197200D01*
X129519523Y-110197200D02*
X129424285Y-110244819D01*
X129424285Y-110244819D02*
X129233809Y-110244819D01*
X129233809Y-110244819D02*
X129138571Y-110197200D01*
X129138571Y-110197200D02*
X129090952Y-110149580D01*
X129090952Y-110149580D02*
X129043333Y-110054342D01*
X129043333Y-110054342D02*
X129043333Y-109863866D01*
X129043333Y-109863866D02*
X129090952Y-109768628D01*
X129090952Y-109768628D02*
X129138571Y-109721009D01*
X129138571Y-109721009D02*
X129233809Y-109673390D01*
X118399523Y-126174819D02*
X118399523Y-126889104D01*
X118399523Y-126889104D02*
X118447142Y-127031961D01*
X118447142Y-127031961D02*
X118542380Y-127127200D01*
X118542380Y-127127200D02*
X118685237Y-127174819D01*
X118685237Y-127174819D02*
X118780475Y-127174819D01*
X117399523Y-127174819D02*
X117970951Y-127174819D01*
X117685237Y-127174819D02*
X117685237Y-126174819D01*
X117685237Y-126174819D02*
X117780475Y-126317676D01*
X117780475Y-126317676D02*
X117875713Y-126412914D01*
X117875713Y-126412914D02*
X117970951Y-126460533D01*
X116780475Y-126174819D02*
X116685237Y-126174819D01*
X116685237Y-126174819D02*
X116589999Y-126222438D01*
X116589999Y-126222438D02*
X116542380Y-126270057D01*
X116542380Y-126270057D02*
X116494761Y-126365295D01*
X116494761Y-126365295D02*
X116447142Y-126555771D01*
X116447142Y-126555771D02*
X116447142Y-126793866D01*
X116447142Y-126793866D02*
X116494761Y-126984342D01*
X116494761Y-126984342D02*
X116542380Y-127079580D01*
X116542380Y-127079580D02*
X116589999Y-127127200D01*
X116589999Y-127127200D02*
X116685237Y-127174819D01*
X116685237Y-127174819D02*
X116780475Y-127174819D01*
X116780475Y-127174819D02*
X116875713Y-127127200D01*
X116875713Y-127127200D02*
X116923332Y-127079580D01*
X116923332Y-127079580D02*
X116970951Y-126984342D01*
X116970951Y-126984342D02*
X117018570Y-126793866D01*
X117018570Y-126793866D02*
X117018570Y-126555771D01*
X117018570Y-126555771D02*
X116970951Y-126365295D01*
X116970951Y-126365295D02*
X116923332Y-126270057D01*
X116923332Y-126270057D02*
X116875713Y-126222438D01*
X116875713Y-126222438D02*
X116780475Y-126174819D01*
X103303333Y-125972319D02*
X103303333Y-126686604D01*
X103303333Y-126686604D02*
X103350952Y-126829461D01*
X103350952Y-126829461D02*
X103446190Y-126924700D01*
X103446190Y-126924700D02*
X103589047Y-126972319D01*
X103589047Y-126972319D02*
X103684285Y-126972319D01*
X102779523Y-126972319D02*
X102589047Y-126972319D01*
X102589047Y-126972319D02*
X102493809Y-126924700D01*
X102493809Y-126924700D02*
X102446190Y-126877080D01*
X102446190Y-126877080D02*
X102350952Y-126734223D01*
X102350952Y-126734223D02*
X102303333Y-126543747D01*
X102303333Y-126543747D02*
X102303333Y-126162795D01*
X102303333Y-126162795D02*
X102350952Y-126067557D01*
X102350952Y-126067557D02*
X102398571Y-126019938D01*
X102398571Y-126019938D02*
X102493809Y-125972319D01*
X102493809Y-125972319D02*
X102684285Y-125972319D01*
X102684285Y-125972319D02*
X102779523Y-126019938D01*
X102779523Y-126019938D02*
X102827142Y-126067557D01*
X102827142Y-126067557D02*
X102874761Y-126162795D01*
X102874761Y-126162795D02*
X102874761Y-126400890D01*
X102874761Y-126400890D02*
X102827142Y-126496128D01*
X102827142Y-126496128D02*
X102779523Y-126543747D01*
X102779523Y-126543747D02*
X102684285Y-126591366D01*
X102684285Y-126591366D02*
X102493809Y-126591366D01*
X102493809Y-126591366D02*
X102398571Y-126543747D01*
X102398571Y-126543747D02*
X102350952Y-126496128D01*
X102350952Y-126496128D02*
X102303333Y-126400890D01*
X115649523Y-93754819D02*
X115649523Y-94469104D01*
X115649523Y-94469104D02*
X115697142Y-94611961D01*
X115697142Y-94611961D02*
X115792380Y-94707200D01*
X115792380Y-94707200D02*
X115935237Y-94754819D01*
X115935237Y-94754819D02*
X116030475Y-94754819D01*
X114649523Y-94754819D02*
X115220951Y-94754819D01*
X114935237Y-94754819D02*
X114935237Y-93754819D01*
X114935237Y-93754819D02*
X115030475Y-93897676D01*
X115030475Y-93897676D02*
X115125713Y-93992914D01*
X115125713Y-93992914D02*
X115220951Y-94040533D01*
X114316189Y-93754819D02*
X113649523Y-93754819D01*
X113649523Y-93754819D02*
X114078094Y-94754819D01*
X142309523Y-117844819D02*
X142309523Y-118559104D01*
X142309523Y-118559104D02*
X142357142Y-118701961D01*
X142357142Y-118701961D02*
X142452380Y-118797200D01*
X142452380Y-118797200D02*
X142595237Y-118844819D01*
X142595237Y-118844819D02*
X142690475Y-118844819D01*
X141880951Y-117940057D02*
X141833332Y-117892438D01*
X141833332Y-117892438D02*
X141738094Y-117844819D01*
X141738094Y-117844819D02*
X141499999Y-117844819D01*
X141499999Y-117844819D02*
X141404761Y-117892438D01*
X141404761Y-117892438D02*
X141357142Y-117940057D01*
X141357142Y-117940057D02*
X141309523Y-118035295D01*
X141309523Y-118035295D02*
X141309523Y-118130533D01*
X141309523Y-118130533D02*
X141357142Y-118273390D01*
X141357142Y-118273390D02*
X141928570Y-118844819D01*
X141928570Y-118844819D02*
X141309523Y-118844819D01*
X140928570Y-117940057D02*
X140880951Y-117892438D01*
X140880951Y-117892438D02*
X140785713Y-117844819D01*
X140785713Y-117844819D02*
X140547618Y-117844819D01*
X140547618Y-117844819D02*
X140452380Y-117892438D01*
X140452380Y-117892438D02*
X140404761Y-117940057D01*
X140404761Y-117940057D02*
X140357142Y-118035295D01*
X140357142Y-118035295D02*
X140357142Y-118130533D01*
X140357142Y-118130533D02*
X140404761Y-118273390D01*
X140404761Y-118273390D02*
X140976189Y-118844819D01*
X140976189Y-118844819D02*
X140357142Y-118844819D01*
X119501904Y-51664819D02*
X119501904Y-52474342D01*
X119501904Y-52474342D02*
X119454285Y-52569580D01*
X119454285Y-52569580D02*
X119406666Y-52617200D01*
X119406666Y-52617200D02*
X119311428Y-52664819D01*
X119311428Y-52664819D02*
X119120952Y-52664819D01*
X119120952Y-52664819D02*
X119025714Y-52617200D01*
X119025714Y-52617200D02*
X118978095Y-52569580D01*
X118978095Y-52569580D02*
X118930476Y-52474342D01*
X118930476Y-52474342D02*
X118930476Y-51664819D01*
X118501904Y-51760057D02*
X118454285Y-51712438D01*
X118454285Y-51712438D02*
X118359047Y-51664819D01*
X118359047Y-51664819D02*
X118120952Y-51664819D01*
X118120952Y-51664819D02*
X118025714Y-51712438D01*
X118025714Y-51712438D02*
X117978095Y-51760057D01*
X117978095Y-51760057D02*
X117930476Y-51855295D01*
X117930476Y-51855295D02*
X117930476Y-51950533D01*
X117930476Y-51950533D02*
X117978095Y-52093390D01*
X117978095Y-52093390D02*
X118549523Y-52664819D01*
X118549523Y-52664819D02*
X117930476Y-52664819D01*
X123113333Y-45184819D02*
X123113333Y-45899104D01*
X123113333Y-45899104D02*
X123160952Y-46041961D01*
X123160952Y-46041961D02*
X123256190Y-46137200D01*
X123256190Y-46137200D02*
X123399047Y-46184819D01*
X123399047Y-46184819D02*
X123494285Y-46184819D01*
X122684761Y-45280057D02*
X122637142Y-45232438D01*
X122637142Y-45232438D02*
X122541904Y-45184819D01*
X122541904Y-45184819D02*
X122303809Y-45184819D01*
X122303809Y-45184819D02*
X122208571Y-45232438D01*
X122208571Y-45232438D02*
X122160952Y-45280057D01*
X122160952Y-45280057D02*
X122113333Y-45375295D01*
X122113333Y-45375295D02*
X122113333Y-45470533D01*
X122113333Y-45470533D02*
X122160952Y-45613390D01*
X122160952Y-45613390D02*
X122732380Y-46184819D01*
X122732380Y-46184819D02*
X122113333Y-46184819D01*
X125901428Y-50154700D02*
X124758571Y-50154700D01*
X125329999Y-50726128D02*
X125329999Y-49583271D01*
X132831428Y-50414700D02*
X131688571Y-50414700D01*
X138988094Y-92554819D02*
X138988094Y-91554819D01*
X138988094Y-91554819D02*
X138749999Y-91554819D01*
X138749999Y-91554819D02*
X138607142Y-91602438D01*
X138607142Y-91602438D02*
X138511904Y-91697676D01*
X138511904Y-91697676D02*
X138464285Y-91792914D01*
X138464285Y-91792914D02*
X138416666Y-91983390D01*
X138416666Y-91983390D02*
X138416666Y-92126247D01*
X138416666Y-92126247D02*
X138464285Y-92316723D01*
X138464285Y-92316723D02*
X138511904Y-92411961D01*
X138511904Y-92411961D02*
X138607142Y-92507200D01*
X138607142Y-92507200D02*
X138749999Y-92554819D01*
X138749999Y-92554819D02*
X138988094Y-92554819D01*
X138035713Y-91650057D02*
X137988094Y-91602438D01*
X137988094Y-91602438D02*
X137892856Y-91554819D01*
X137892856Y-91554819D02*
X137654761Y-91554819D01*
X137654761Y-91554819D02*
X137559523Y-91602438D01*
X137559523Y-91602438D02*
X137511904Y-91650057D01*
X137511904Y-91650057D02*
X137464285Y-91745295D01*
X137464285Y-91745295D02*
X137464285Y-91840533D01*
X137464285Y-91840533D02*
X137511904Y-91983390D01*
X137511904Y-91983390D02*
X138083332Y-92554819D01*
X138083332Y-92554819D02*
X137464285Y-92554819D01*
X152179523Y-115554819D02*
X152179523Y-116269104D01*
X152179523Y-116269104D02*
X152227142Y-116411961D01*
X152227142Y-116411961D02*
X152322380Y-116507200D01*
X152322380Y-116507200D02*
X152465237Y-116554819D01*
X152465237Y-116554819D02*
X152560475Y-116554819D01*
X151179523Y-116554819D02*
X151750951Y-116554819D01*
X151465237Y-116554819D02*
X151465237Y-115554819D01*
X151465237Y-115554819D02*
X151560475Y-115697676D01*
X151560475Y-115697676D02*
X151655713Y-115792914D01*
X151655713Y-115792914D02*
X151750951Y-115840533D01*
X150322380Y-115554819D02*
X150512856Y-115554819D01*
X150512856Y-115554819D02*
X150608094Y-115602438D01*
X150608094Y-115602438D02*
X150655713Y-115650057D01*
X150655713Y-115650057D02*
X150750951Y-115792914D01*
X150750951Y-115792914D02*
X150798570Y-115983390D01*
X150798570Y-115983390D02*
X150798570Y-116364342D01*
X150798570Y-116364342D02*
X150750951Y-116459580D01*
X150750951Y-116459580D02*
X150703332Y-116507200D01*
X150703332Y-116507200D02*
X150608094Y-116554819D01*
X150608094Y-116554819D02*
X150417618Y-116554819D01*
X150417618Y-116554819D02*
X150322380Y-116507200D01*
X150322380Y-116507200D02*
X150274761Y-116459580D01*
X150274761Y-116459580D02*
X150227142Y-116364342D01*
X150227142Y-116364342D02*
X150227142Y-116126247D01*
X150227142Y-116126247D02*
X150274761Y-116031009D01*
X150274761Y-116031009D02*
X150322380Y-115983390D01*
X150322380Y-115983390D02*
X150417618Y-115935771D01*
X150417618Y-115935771D02*
X150608094Y-115935771D01*
X150608094Y-115935771D02*
X150703332Y-115983390D01*
X150703332Y-115983390D02*
X150750951Y-116031009D01*
X150750951Y-116031009D02*
X150798570Y-116126247D01*
X136961904Y-51374819D02*
X136961904Y-52184342D01*
X136961904Y-52184342D02*
X136914285Y-52279580D01*
X136914285Y-52279580D02*
X136866666Y-52327200D01*
X136866666Y-52327200D02*
X136771428Y-52374819D01*
X136771428Y-52374819D02*
X136580952Y-52374819D01*
X136580952Y-52374819D02*
X136485714Y-52327200D01*
X136485714Y-52327200D02*
X136438095Y-52279580D01*
X136438095Y-52279580D02*
X136390476Y-52184342D01*
X136390476Y-52184342D02*
X136390476Y-51374819D01*
X135390476Y-52374819D02*
X135961904Y-52374819D01*
X135676190Y-52374819D02*
X135676190Y-51374819D01*
X135676190Y-51374819D02*
X135771428Y-51517676D01*
X135771428Y-51517676D02*
X135866666Y-51612914D01*
X135866666Y-51612914D02*
X135961904Y-51660533D01*
X110373333Y-62464819D02*
X110373333Y-63179104D01*
X110373333Y-63179104D02*
X110420952Y-63321961D01*
X110420952Y-63321961D02*
X110516190Y-63417200D01*
X110516190Y-63417200D02*
X110659047Y-63464819D01*
X110659047Y-63464819D02*
X110754285Y-63464819D01*
X109897142Y-63464819D02*
X109897142Y-62464819D01*
X109897142Y-62464819D02*
X109516190Y-62464819D01*
X109516190Y-62464819D02*
X109420952Y-62512438D01*
X109420952Y-62512438D02*
X109373333Y-62560057D01*
X109373333Y-62560057D02*
X109325714Y-62655295D01*
X109325714Y-62655295D02*
X109325714Y-62798152D01*
X109325714Y-62798152D02*
X109373333Y-62893390D01*
X109373333Y-62893390D02*
X109420952Y-62941009D01*
X109420952Y-62941009D02*
X109516190Y-62988628D01*
X109516190Y-62988628D02*
X109897142Y-62988628D01*
X108373333Y-63464819D02*
X108944761Y-63464819D01*
X108659047Y-63464819D02*
X108659047Y-62464819D01*
X108659047Y-62464819D02*
X108754285Y-62607676D01*
X108754285Y-62607676D02*
X108849523Y-62702914D01*
X108849523Y-62702914D02*
X108944761Y-62750533D01*
X146826666Y-52999580D02*
X146874285Y-53047200D01*
X146874285Y-53047200D02*
X147017142Y-53094819D01*
X147017142Y-53094819D02*
X147112380Y-53094819D01*
X147112380Y-53094819D02*
X147255237Y-53047200D01*
X147255237Y-53047200D02*
X147350475Y-52951961D01*
X147350475Y-52951961D02*
X147398094Y-52856723D01*
X147398094Y-52856723D02*
X147445713Y-52666247D01*
X147445713Y-52666247D02*
X147445713Y-52523390D01*
X147445713Y-52523390D02*
X147398094Y-52332914D01*
X147398094Y-52332914D02*
X147350475Y-52237676D01*
X147350475Y-52237676D02*
X147255237Y-52142438D01*
X147255237Y-52142438D02*
X147112380Y-52094819D01*
X147112380Y-52094819D02*
X147017142Y-52094819D01*
X147017142Y-52094819D02*
X146874285Y-52142438D01*
X146874285Y-52142438D02*
X146826666Y-52190057D01*
X146493332Y-52094819D02*
X145874285Y-52094819D01*
X145874285Y-52094819D02*
X146207618Y-52475771D01*
X146207618Y-52475771D02*
X146064761Y-52475771D01*
X146064761Y-52475771D02*
X145969523Y-52523390D01*
X145969523Y-52523390D02*
X145921904Y-52571009D01*
X145921904Y-52571009D02*
X145874285Y-52666247D01*
X145874285Y-52666247D02*
X145874285Y-52904342D01*
X145874285Y-52904342D02*
X145921904Y-52999580D01*
X145921904Y-52999580D02*
X145969523Y-53047200D01*
X145969523Y-53047200D02*
X146064761Y-53094819D01*
X146064761Y-53094819D02*
X146350475Y-53094819D01*
X146350475Y-53094819D02*
X146445713Y-53047200D01*
X146445713Y-53047200D02*
X146493332Y-52999580D01*
X149709523Y-101184819D02*
X149709523Y-101899104D01*
X149709523Y-101899104D02*
X149757142Y-102041961D01*
X149757142Y-102041961D02*
X149852380Y-102137200D01*
X149852380Y-102137200D02*
X149995237Y-102184819D01*
X149995237Y-102184819D02*
X150090475Y-102184819D01*
X148709523Y-102184819D02*
X149280951Y-102184819D01*
X148995237Y-102184819D02*
X148995237Y-101184819D01*
X148995237Y-101184819D02*
X149090475Y-101327676D01*
X149090475Y-101327676D02*
X149185713Y-101422914D01*
X149185713Y-101422914D02*
X149280951Y-101470533D01*
X148233332Y-102184819D02*
X148042856Y-102184819D01*
X148042856Y-102184819D02*
X147947618Y-102137200D01*
X147947618Y-102137200D02*
X147899999Y-102089580D01*
X147899999Y-102089580D02*
X147804761Y-101946723D01*
X147804761Y-101946723D02*
X147757142Y-101756247D01*
X147757142Y-101756247D02*
X147757142Y-101375295D01*
X147757142Y-101375295D02*
X147804761Y-101280057D01*
X147804761Y-101280057D02*
X147852380Y-101232438D01*
X147852380Y-101232438D02*
X147947618Y-101184819D01*
X147947618Y-101184819D02*
X148138094Y-101184819D01*
X148138094Y-101184819D02*
X148233332Y-101232438D01*
X148233332Y-101232438D02*
X148280951Y-101280057D01*
X148280951Y-101280057D02*
X148328570Y-101375295D01*
X148328570Y-101375295D02*
X148328570Y-101613390D01*
X148328570Y-101613390D02*
X148280951Y-101708628D01*
X148280951Y-101708628D02*
X148233332Y-101756247D01*
X148233332Y-101756247D02*
X148138094Y-101803866D01*
X148138094Y-101803866D02*
X147947618Y-101803866D01*
X147947618Y-101803866D02*
X147852380Y-101756247D01*
X147852380Y-101756247D02*
X147804761Y-101708628D01*
X147804761Y-101708628D02*
X147757142Y-101613390D01*
X117836666Y-46899580D02*
X117884285Y-46947200D01*
X117884285Y-46947200D02*
X118027142Y-46994819D01*
X118027142Y-46994819D02*
X118122380Y-46994819D01*
X118122380Y-46994819D02*
X118265237Y-46947200D01*
X118265237Y-46947200D02*
X118360475Y-46851961D01*
X118360475Y-46851961D02*
X118408094Y-46756723D01*
X118408094Y-46756723D02*
X118455713Y-46566247D01*
X118455713Y-46566247D02*
X118455713Y-46423390D01*
X118455713Y-46423390D02*
X118408094Y-46232914D01*
X118408094Y-46232914D02*
X118360475Y-46137676D01*
X118360475Y-46137676D02*
X118265237Y-46042438D01*
X118265237Y-46042438D02*
X118122380Y-45994819D01*
X118122380Y-45994819D02*
X118027142Y-45994819D01*
X118027142Y-45994819D02*
X117884285Y-46042438D01*
X117884285Y-46042438D02*
X117836666Y-46090057D01*
X116884285Y-46994819D02*
X117455713Y-46994819D01*
X117169999Y-46994819D02*
X117169999Y-45994819D01*
X117169999Y-45994819D02*
X117265237Y-46137676D01*
X117265237Y-46137676D02*
X117360475Y-46232914D01*
X117360475Y-46232914D02*
X117455713Y-46280533D01*
X143754523Y-68834819D02*
X143754523Y-69549104D01*
X143754523Y-69549104D02*
X143802142Y-69691961D01*
X143802142Y-69691961D02*
X143897380Y-69787200D01*
X143897380Y-69787200D02*
X144040237Y-69834819D01*
X144040237Y-69834819D02*
X144135475Y-69834819D01*
X142754523Y-69834819D02*
X143325951Y-69834819D01*
X143040237Y-69834819D02*
X143040237Y-68834819D01*
X143040237Y-68834819D02*
X143135475Y-68977676D01*
X143135475Y-68977676D02*
X143230713Y-69072914D01*
X143230713Y-69072914D02*
X143325951Y-69120533D01*
X141802142Y-69834819D02*
X142373570Y-69834819D01*
X142087856Y-69834819D02*
X142087856Y-68834819D01*
X142087856Y-68834819D02*
X142183094Y-68977676D01*
X142183094Y-68977676D02*
X142278332Y-69072914D01*
X142278332Y-69072914D02*
X142373570Y-69120533D01*
X147893333Y-74304819D02*
X147893333Y-75019104D01*
X147893333Y-75019104D02*
X147940952Y-75161961D01*
X147940952Y-75161961D02*
X148036190Y-75257200D01*
X148036190Y-75257200D02*
X148179047Y-75304819D01*
X148179047Y-75304819D02*
X148274285Y-75304819D01*
X146988571Y-74304819D02*
X147179047Y-74304819D01*
X147179047Y-74304819D02*
X147274285Y-74352438D01*
X147274285Y-74352438D02*
X147321904Y-74400057D01*
X147321904Y-74400057D02*
X147417142Y-74542914D01*
X147417142Y-74542914D02*
X147464761Y-74733390D01*
X147464761Y-74733390D02*
X147464761Y-75114342D01*
X147464761Y-75114342D02*
X147417142Y-75209580D01*
X147417142Y-75209580D02*
X147369523Y-75257200D01*
X147369523Y-75257200D02*
X147274285Y-75304819D01*
X147274285Y-75304819D02*
X147083809Y-75304819D01*
X147083809Y-75304819D02*
X146988571Y-75257200D01*
X146988571Y-75257200D02*
X146940952Y-75209580D01*
X146940952Y-75209580D02*
X146893333Y-75114342D01*
X146893333Y-75114342D02*
X146893333Y-74876247D01*
X146893333Y-74876247D02*
X146940952Y-74781009D01*
X146940952Y-74781009D02*
X146988571Y-74733390D01*
X146988571Y-74733390D02*
X147083809Y-74685771D01*
X147083809Y-74685771D02*
X147274285Y-74685771D01*
X147274285Y-74685771D02*
X147369523Y-74733390D01*
X147369523Y-74733390D02*
X147417142Y-74781009D01*
X147417142Y-74781009D02*
X147464761Y-74876247D01*
X130569523Y-117774819D02*
X130569523Y-118489104D01*
X130569523Y-118489104D02*
X130617142Y-118631961D01*
X130617142Y-118631961D02*
X130712380Y-118727200D01*
X130712380Y-118727200D02*
X130855237Y-118774819D01*
X130855237Y-118774819D02*
X130950475Y-118774819D01*
X130140951Y-117870057D02*
X130093332Y-117822438D01*
X130093332Y-117822438D02*
X129998094Y-117774819D01*
X129998094Y-117774819D02*
X129759999Y-117774819D01*
X129759999Y-117774819D02*
X129664761Y-117822438D01*
X129664761Y-117822438D02*
X129617142Y-117870057D01*
X129617142Y-117870057D02*
X129569523Y-117965295D01*
X129569523Y-117965295D02*
X129569523Y-118060533D01*
X129569523Y-118060533D02*
X129617142Y-118203390D01*
X129617142Y-118203390D02*
X130188570Y-118774819D01*
X130188570Y-118774819D02*
X129569523Y-118774819D01*
X128617142Y-118774819D02*
X129188570Y-118774819D01*
X128902856Y-118774819D02*
X128902856Y-117774819D01*
X128902856Y-117774819D02*
X128998094Y-117917676D01*
X128998094Y-117917676D02*
X129093332Y-118012914D01*
X129093332Y-118012914D02*
X129188570Y-118060533D01*
X101195238Y-61940057D02*
X101290476Y-61892438D01*
X101290476Y-61892438D02*
X101385714Y-61797200D01*
X101385714Y-61797200D02*
X101528571Y-61654342D01*
X101528571Y-61654342D02*
X101623809Y-61606723D01*
X101623809Y-61606723D02*
X101719047Y-61606723D01*
X101671428Y-61844819D02*
X101766666Y-61797200D01*
X101766666Y-61797200D02*
X101861904Y-61701961D01*
X101861904Y-61701961D02*
X101909523Y-61511485D01*
X101909523Y-61511485D02*
X101909523Y-61178152D01*
X101909523Y-61178152D02*
X101861904Y-60987676D01*
X101861904Y-60987676D02*
X101766666Y-60892438D01*
X101766666Y-60892438D02*
X101671428Y-60844819D01*
X101671428Y-60844819D02*
X101480952Y-60844819D01*
X101480952Y-60844819D02*
X101385714Y-60892438D01*
X101385714Y-60892438D02*
X101290476Y-60987676D01*
X101290476Y-60987676D02*
X101242857Y-61178152D01*
X101242857Y-61178152D02*
X101242857Y-61511485D01*
X101242857Y-61511485D02*
X101290476Y-61701961D01*
X101290476Y-61701961D02*
X101385714Y-61797200D01*
X101385714Y-61797200D02*
X101480952Y-61844819D01*
X101480952Y-61844819D02*
X101671428Y-61844819D01*
X100290476Y-61844819D02*
X100861904Y-61844819D01*
X100576190Y-61844819D02*
X100576190Y-60844819D01*
X100576190Y-60844819D02*
X100671428Y-60987676D01*
X100671428Y-60987676D02*
X100766666Y-61082914D01*
X100766666Y-61082914D02*
X100861904Y-61130533D01*
X115649523Y-102634819D02*
X115649523Y-103349104D01*
X115649523Y-103349104D02*
X115697142Y-103491961D01*
X115697142Y-103491961D02*
X115792380Y-103587200D01*
X115792380Y-103587200D02*
X115935237Y-103634819D01*
X115935237Y-103634819D02*
X116030475Y-103634819D01*
X114649523Y-103634819D02*
X115220951Y-103634819D01*
X114935237Y-103634819D02*
X114935237Y-102634819D01*
X114935237Y-102634819D02*
X115030475Y-102777676D01*
X115030475Y-102777676D02*
X115125713Y-102872914D01*
X115125713Y-102872914D02*
X115220951Y-102920533D01*
X114078094Y-103063390D02*
X114173332Y-103015771D01*
X114173332Y-103015771D02*
X114220951Y-102968152D01*
X114220951Y-102968152D02*
X114268570Y-102872914D01*
X114268570Y-102872914D02*
X114268570Y-102825295D01*
X114268570Y-102825295D02*
X114220951Y-102730057D01*
X114220951Y-102730057D02*
X114173332Y-102682438D01*
X114173332Y-102682438D02*
X114078094Y-102634819D01*
X114078094Y-102634819D02*
X113887618Y-102634819D01*
X113887618Y-102634819D02*
X113792380Y-102682438D01*
X113792380Y-102682438D02*
X113744761Y-102730057D01*
X113744761Y-102730057D02*
X113697142Y-102825295D01*
X113697142Y-102825295D02*
X113697142Y-102872914D01*
X113697142Y-102872914D02*
X113744761Y-102968152D01*
X113744761Y-102968152D02*
X113792380Y-103015771D01*
X113792380Y-103015771D02*
X113887618Y-103063390D01*
X113887618Y-103063390D02*
X114078094Y-103063390D01*
X114078094Y-103063390D02*
X114173332Y-103111009D01*
X114173332Y-103111009D02*
X114220951Y-103158628D01*
X114220951Y-103158628D02*
X114268570Y-103253866D01*
X114268570Y-103253866D02*
X114268570Y-103444342D01*
X114268570Y-103444342D02*
X114220951Y-103539580D01*
X114220951Y-103539580D02*
X114173332Y-103587200D01*
X114173332Y-103587200D02*
X114078094Y-103634819D01*
X114078094Y-103634819D02*
X113887618Y-103634819D01*
X113887618Y-103634819D02*
X113792380Y-103587200D01*
X113792380Y-103587200D02*
X113744761Y-103539580D01*
X113744761Y-103539580D02*
X113697142Y-103444342D01*
X113697142Y-103444342D02*
X113697142Y-103253866D01*
X113697142Y-103253866D02*
X113744761Y-103158628D01*
X113744761Y-103158628D02*
X113792380Y-103111009D01*
X113792380Y-103111009D02*
X113887618Y-103063390D01*
X109299523Y-80044819D02*
X109299523Y-80759104D01*
X109299523Y-80759104D02*
X109347142Y-80901961D01*
X109347142Y-80901961D02*
X109442380Y-80997200D01*
X109442380Y-80997200D02*
X109585237Y-81044819D01*
X109585237Y-81044819D02*
X109680475Y-81044819D01*
X108870951Y-80140057D02*
X108823332Y-80092438D01*
X108823332Y-80092438D02*
X108728094Y-80044819D01*
X108728094Y-80044819D02*
X108489999Y-80044819D01*
X108489999Y-80044819D02*
X108394761Y-80092438D01*
X108394761Y-80092438D02*
X108347142Y-80140057D01*
X108347142Y-80140057D02*
X108299523Y-80235295D01*
X108299523Y-80235295D02*
X108299523Y-80330533D01*
X108299523Y-80330533D02*
X108347142Y-80473390D01*
X108347142Y-80473390D02*
X108918570Y-81044819D01*
X108918570Y-81044819D02*
X108299523Y-81044819D01*
X107680475Y-80044819D02*
X107585237Y-80044819D01*
X107585237Y-80044819D02*
X107489999Y-80092438D01*
X107489999Y-80092438D02*
X107442380Y-80140057D01*
X107442380Y-80140057D02*
X107394761Y-80235295D01*
X107394761Y-80235295D02*
X107347142Y-80425771D01*
X107347142Y-80425771D02*
X107347142Y-80663866D01*
X107347142Y-80663866D02*
X107394761Y-80854342D01*
X107394761Y-80854342D02*
X107442380Y-80949580D01*
X107442380Y-80949580D02*
X107489999Y-80997200D01*
X107489999Y-80997200D02*
X107585237Y-81044819D01*
X107585237Y-81044819D02*
X107680475Y-81044819D01*
X107680475Y-81044819D02*
X107775713Y-80997200D01*
X107775713Y-80997200D02*
X107823332Y-80949580D01*
X107823332Y-80949580D02*
X107870951Y-80854342D01*
X107870951Y-80854342D02*
X107918570Y-80663866D01*
X107918570Y-80663866D02*
X107918570Y-80425771D01*
X107918570Y-80425771D02*
X107870951Y-80235295D01*
X107870951Y-80235295D02*
X107823332Y-80140057D01*
X107823332Y-80140057D02*
X107775713Y-80092438D01*
X107775713Y-80092438D02*
X107680475Y-80044819D01*
X115649523Y-98244819D02*
X115649523Y-98959104D01*
X115649523Y-98959104D02*
X115697142Y-99101961D01*
X115697142Y-99101961D02*
X115792380Y-99197200D01*
X115792380Y-99197200D02*
X115935237Y-99244819D01*
X115935237Y-99244819D02*
X116030475Y-99244819D01*
X115220951Y-98340057D02*
X115173332Y-98292438D01*
X115173332Y-98292438D02*
X115078094Y-98244819D01*
X115078094Y-98244819D02*
X114839999Y-98244819D01*
X114839999Y-98244819D02*
X114744761Y-98292438D01*
X114744761Y-98292438D02*
X114697142Y-98340057D01*
X114697142Y-98340057D02*
X114649523Y-98435295D01*
X114649523Y-98435295D02*
X114649523Y-98530533D01*
X114649523Y-98530533D02*
X114697142Y-98673390D01*
X114697142Y-98673390D02*
X115268570Y-99244819D01*
X115268570Y-99244819D02*
X114649523Y-99244819D01*
X113792380Y-98578152D02*
X113792380Y-99244819D01*
X114030475Y-98197200D02*
X114268570Y-98911485D01*
X114268570Y-98911485D02*
X113649523Y-98911485D01*
X158083333Y-60264819D02*
X158083333Y-60979104D01*
X158083333Y-60979104D02*
X158130952Y-61121961D01*
X158130952Y-61121961D02*
X158226190Y-61217200D01*
X158226190Y-61217200D02*
X158369047Y-61264819D01*
X158369047Y-61264819D02*
X158464285Y-61264819D01*
X157130952Y-60264819D02*
X157607142Y-60264819D01*
X157607142Y-60264819D02*
X157654761Y-60741009D01*
X157654761Y-60741009D02*
X157607142Y-60693390D01*
X157607142Y-60693390D02*
X157511904Y-60645771D01*
X157511904Y-60645771D02*
X157273809Y-60645771D01*
X157273809Y-60645771D02*
X157178571Y-60693390D01*
X157178571Y-60693390D02*
X157130952Y-60741009D01*
X157130952Y-60741009D02*
X157083333Y-60836247D01*
X157083333Y-60836247D02*
X157083333Y-61074342D01*
X157083333Y-61074342D02*
X157130952Y-61169580D01*
X157130952Y-61169580D02*
X157178571Y-61217200D01*
X157178571Y-61217200D02*
X157273809Y-61264819D01*
X157273809Y-61264819D02*
X157511904Y-61264819D01*
X157511904Y-61264819D02*
X157607142Y-61217200D01*
X157607142Y-61217200D02*
X157654761Y-61169580D01*
X143739523Y-79994819D02*
X143739523Y-80709104D01*
X143739523Y-80709104D02*
X143787142Y-80851961D01*
X143787142Y-80851961D02*
X143882380Y-80947200D01*
X143882380Y-80947200D02*
X144025237Y-80994819D01*
X144025237Y-80994819D02*
X144120475Y-80994819D01*
X142739523Y-80994819D02*
X143310951Y-80994819D01*
X143025237Y-80994819D02*
X143025237Y-79994819D01*
X143025237Y-79994819D02*
X143120475Y-80137676D01*
X143120475Y-80137676D02*
X143215713Y-80232914D01*
X143215713Y-80232914D02*
X143310951Y-80280533D01*
X141834761Y-79994819D02*
X142310951Y-79994819D01*
X142310951Y-79994819D02*
X142358570Y-80471009D01*
X142358570Y-80471009D02*
X142310951Y-80423390D01*
X142310951Y-80423390D02*
X142215713Y-80375771D01*
X142215713Y-80375771D02*
X141977618Y-80375771D01*
X141977618Y-80375771D02*
X141882380Y-80423390D01*
X141882380Y-80423390D02*
X141834761Y-80471009D01*
X141834761Y-80471009D02*
X141787142Y-80566247D01*
X141787142Y-80566247D02*
X141787142Y-80804342D01*
X141787142Y-80804342D02*
X141834761Y-80899580D01*
X141834761Y-80899580D02*
X141882380Y-80947200D01*
X141882380Y-80947200D02*
X141977618Y-80994819D01*
X141977618Y-80994819D02*
X142215713Y-80994819D01*
X142215713Y-80994819D02*
X142310951Y-80947200D01*
X142310951Y-80947200D02*
X142358570Y-80899580D01*
X115649523Y-89174819D02*
X115649523Y-89889104D01*
X115649523Y-89889104D02*
X115697142Y-90031961D01*
X115697142Y-90031961D02*
X115792380Y-90127200D01*
X115792380Y-90127200D02*
X115935237Y-90174819D01*
X115935237Y-90174819D02*
X116030475Y-90174819D01*
X115220951Y-89270057D02*
X115173332Y-89222438D01*
X115173332Y-89222438D02*
X115078094Y-89174819D01*
X115078094Y-89174819D02*
X114839999Y-89174819D01*
X114839999Y-89174819D02*
X114744761Y-89222438D01*
X114744761Y-89222438D02*
X114697142Y-89270057D01*
X114697142Y-89270057D02*
X114649523Y-89365295D01*
X114649523Y-89365295D02*
X114649523Y-89460533D01*
X114649523Y-89460533D02*
X114697142Y-89603390D01*
X114697142Y-89603390D02*
X115268570Y-90174819D01*
X115268570Y-90174819D02*
X114649523Y-90174819D01*
X113744761Y-89174819D02*
X114220951Y-89174819D01*
X114220951Y-89174819D02*
X114268570Y-89651009D01*
X114268570Y-89651009D02*
X114220951Y-89603390D01*
X114220951Y-89603390D02*
X114125713Y-89555771D01*
X114125713Y-89555771D02*
X113887618Y-89555771D01*
X113887618Y-89555771D02*
X113792380Y-89603390D01*
X113792380Y-89603390D02*
X113744761Y-89651009D01*
X113744761Y-89651009D02*
X113697142Y-89746247D01*
X113697142Y-89746247D02*
X113697142Y-89984342D01*
X113697142Y-89984342D02*
X113744761Y-90079580D01*
X113744761Y-90079580D02*
X113792380Y-90127200D01*
X113792380Y-90127200D02*
X113887618Y-90174819D01*
X113887618Y-90174819D02*
X114125713Y-90174819D01*
X114125713Y-90174819D02*
X114220951Y-90127200D01*
X114220951Y-90127200D02*
X114268570Y-90079580D01*
X148533333Y-60344819D02*
X148533333Y-61059104D01*
X148533333Y-61059104D02*
X148580952Y-61201961D01*
X148580952Y-61201961D02*
X148676190Y-61297200D01*
X148676190Y-61297200D02*
X148819047Y-61344819D01*
X148819047Y-61344819D02*
X148914285Y-61344819D01*
X147628571Y-60678152D02*
X147628571Y-61344819D01*
X147866666Y-60297200D02*
X148104761Y-61011485D01*
X148104761Y-61011485D02*
X147485714Y-61011485D01*
X150579523Y-117774819D02*
X150579523Y-118489104D01*
X150579523Y-118489104D02*
X150627142Y-118631961D01*
X150627142Y-118631961D02*
X150722380Y-118727200D01*
X150722380Y-118727200D02*
X150865237Y-118774819D01*
X150865237Y-118774819D02*
X150960475Y-118774819D01*
X150150951Y-117870057D02*
X150103332Y-117822438D01*
X150103332Y-117822438D02*
X150008094Y-117774819D01*
X150008094Y-117774819D02*
X149769999Y-117774819D01*
X149769999Y-117774819D02*
X149674761Y-117822438D01*
X149674761Y-117822438D02*
X149627142Y-117870057D01*
X149627142Y-117870057D02*
X149579523Y-117965295D01*
X149579523Y-117965295D02*
X149579523Y-118060533D01*
X149579523Y-118060533D02*
X149627142Y-118203390D01*
X149627142Y-118203390D02*
X150198570Y-118774819D01*
X150198570Y-118774819D02*
X149579523Y-118774819D01*
X149246189Y-117774819D02*
X148627142Y-117774819D01*
X148627142Y-117774819D02*
X148960475Y-118155771D01*
X148960475Y-118155771D02*
X148817618Y-118155771D01*
X148817618Y-118155771D02*
X148722380Y-118203390D01*
X148722380Y-118203390D02*
X148674761Y-118251009D01*
X148674761Y-118251009D02*
X148627142Y-118346247D01*
X148627142Y-118346247D02*
X148627142Y-118584342D01*
X148627142Y-118584342D02*
X148674761Y-118679580D01*
X148674761Y-118679580D02*
X148722380Y-118727200D01*
X148722380Y-118727200D02*
X148817618Y-118774819D01*
X148817618Y-118774819D02*
X149103332Y-118774819D01*
X149103332Y-118774819D02*
X149198570Y-118727200D01*
X149198570Y-118727200D02*
X149246189Y-118679580D01*
D14*
%TO.C,J3*%
X99320000Y-48930000D02*
X99320000Y-57650000D01*
X99320000Y-48930000D02*
X104740000Y-48930000D01*
X99320000Y-57650000D02*
X100620000Y-59350000D01*
X100620000Y-59350000D02*
X103440000Y-59350000D01*
X104740000Y-48930000D02*
X104740000Y-57650000D01*
X104740000Y-57650000D02*
X103440000Y-59350000D01*
%TO.C,J12*%
X147740000Y-89170000D02*
X147740000Y-97010000D01*
X147740000Y-91350000D02*
X148340000Y-91350000D01*
X147740000Y-93890000D02*
X148340000Y-93890000D01*
X147740000Y-96430000D02*
X148340000Y-96430000D01*
X147740000Y-97010000D02*
X153760000Y-97010000D01*
X148340000Y-89750000D02*
X147740000Y-89750000D01*
X148340000Y-91350000D02*
X148340000Y-89750000D01*
X148340000Y-92290000D02*
X147740000Y-92290000D01*
X148340000Y-93890000D02*
X148340000Y-92290000D01*
X148340000Y-94830000D02*
X147740000Y-94830000D01*
X148340000Y-96430000D02*
X148340000Y-94830000D01*
X152230000Y-90800000D02*
X152760000Y-90550000D01*
X152230000Y-95380000D02*
X152230000Y-90800000D01*
X152760000Y-90550000D02*
X153760000Y-90550000D01*
X152760000Y-90800000D02*
X153760000Y-90800000D01*
X152760000Y-95380000D02*
X153760000Y-95380000D01*
X152760000Y-95630000D02*
X152230000Y-95380000D01*
X152760000Y-95630000D02*
X152760000Y-90550000D01*
X152770000Y-88880000D02*
X148770000Y-88880000D01*
X153760000Y-89170000D02*
X147740000Y-89170000D01*
X153760000Y-95630000D02*
X152760000Y-95630000D01*
X153760000Y-97010000D02*
X153760000Y-89170000D01*
%TO.C,D1*%
X132362500Y-94865000D02*
X132362500Y-97135000D01*
X132362500Y-97135000D02*
X136247500Y-97135000D01*
X136247500Y-94865000D02*
X132362500Y-94865000D01*
%TO.C,C6*%
X121380000Y-109340000D02*
G75*
G02*
X113140000Y-109340000I-4120000J0D01*
G01*
X113140000Y-109340000D02*
G75*
G02*
X121380000Y-109340000I4120000J0D01*
G01*
%TO.C,J1*%
X100815000Y-90220000D02*
X100815000Y-94220000D01*
X101105000Y-89230000D02*
X101105000Y-95250000D01*
X101105000Y-95250000D02*
X108945000Y-95250000D01*
X101685000Y-94650000D02*
X101685000Y-95250000D01*
X102485000Y-90230000D02*
X102485000Y-89230000D01*
X102735000Y-90230000D02*
X102735000Y-89230000D01*
X102735000Y-90760000D02*
X102485000Y-90230000D01*
X103285000Y-94650000D02*
X101685000Y-94650000D01*
X103285000Y-95250000D02*
X103285000Y-94650000D01*
X104225000Y-94650000D02*
X104225000Y-95250000D01*
X105825000Y-94650000D02*
X104225000Y-94650000D01*
X105825000Y-95250000D02*
X105825000Y-94650000D01*
X106765000Y-94650000D02*
X106765000Y-95250000D01*
X107315000Y-90230000D02*
X107315000Y-89230000D01*
X107315000Y-90760000D02*
X102735000Y-90760000D01*
X107565000Y-89230000D02*
X107565000Y-90230000D01*
X107565000Y-90230000D02*
X102485000Y-90230000D01*
X107565000Y-90230000D02*
X107315000Y-90760000D01*
X108365000Y-94650000D02*
X106765000Y-94650000D01*
X108365000Y-95250000D02*
X108365000Y-94650000D01*
X108945000Y-89230000D02*
X101105000Y-89230000D01*
X108945000Y-95250000D02*
X108945000Y-89230000D01*
%TO.C,J13*%
X101300000Y-112060000D02*
X101300000Y-119900000D01*
X101300000Y-114240000D02*
X101900000Y-114240000D01*
X101300000Y-116780000D02*
X101900000Y-116780000D01*
X101300000Y-119320000D02*
X101900000Y-119320000D01*
X101300000Y-119900000D02*
X107320000Y-119900000D01*
X101900000Y-112640000D02*
X101300000Y-112640000D01*
X101900000Y-114240000D02*
X101900000Y-112640000D01*
X101900000Y-115180000D02*
X101300000Y-115180000D01*
X101900000Y-116780000D02*
X101900000Y-115180000D01*
X101900000Y-117720000D02*
X101300000Y-117720000D01*
X101900000Y-119320000D02*
X101900000Y-117720000D01*
X105790000Y-113690000D02*
X106320000Y-113440000D01*
X105790000Y-118270000D02*
X105790000Y-113690000D01*
X106320000Y-113440000D02*
X107320000Y-113440000D01*
X106320000Y-113690000D02*
X107320000Y-113690000D01*
X106320000Y-118270000D02*
X107320000Y-118270000D01*
X106320000Y-118520000D02*
X105790000Y-118270000D01*
X106320000Y-118520000D02*
X106320000Y-113440000D01*
X106330000Y-111770000D02*
X102330000Y-111770000D01*
X107320000Y-112060000D02*
X101300000Y-112060000D01*
X107320000Y-118520000D02*
X106320000Y-118520000D01*
X107320000Y-119900000D02*
X107320000Y-112060000D01*
%TO.C,J7*%
X104030000Y-98400000D02*
X104030000Y-106240000D01*
X104030000Y-99780000D02*
X105030000Y-99780000D01*
X104030000Y-106240000D02*
X110050000Y-106240000D01*
X105020000Y-106530000D02*
X109020000Y-106530000D01*
X105030000Y-99780000D02*
X105030000Y-104860000D01*
X105030000Y-99780000D02*
X105560000Y-100030000D01*
X105030000Y-100030000D02*
X104030000Y-100030000D01*
X105030000Y-104610000D02*
X104030000Y-104610000D01*
X105030000Y-104860000D02*
X104030000Y-104860000D01*
X105560000Y-100030000D02*
X105560000Y-104610000D01*
X105560000Y-104610000D02*
X105030000Y-104860000D01*
X109450000Y-98980000D02*
X109450000Y-100580000D01*
X109450000Y-100580000D02*
X110050000Y-100580000D01*
X109450000Y-101520000D02*
X109450000Y-103120000D01*
X109450000Y-103120000D02*
X110050000Y-103120000D01*
X109450000Y-104060000D02*
X109450000Y-105660000D01*
X109450000Y-105660000D02*
X110050000Y-105660000D01*
X110050000Y-98400000D02*
X104030000Y-98400000D01*
X110050000Y-98980000D02*
X109450000Y-98980000D01*
X110050000Y-101520000D02*
X109450000Y-101520000D01*
X110050000Y-104060000D02*
X109450000Y-104060000D01*
X110050000Y-106240000D02*
X110050000Y-98400000D01*
%TO.C,J14*%
X111000000Y-68800000D02*
X111000000Y-74820000D01*
X111000000Y-74820000D02*
X121380000Y-74820000D01*
X111580000Y-68800000D02*
X111580000Y-69400000D01*
X111580000Y-69400000D02*
X113180000Y-69400000D01*
X112380000Y-73820000D02*
X112630000Y-73290000D01*
X112380000Y-73820000D02*
X120000000Y-73820000D01*
X112380000Y-74820000D02*
X112380000Y-73820000D01*
X112630000Y-73290000D02*
X119750000Y-73290000D01*
X112630000Y-73820000D02*
X112630000Y-74820000D01*
X113180000Y-69400000D02*
X113180000Y-68800000D01*
X114120000Y-68800000D02*
X114120000Y-69400000D01*
X114120000Y-69400000D02*
X115720000Y-69400000D01*
X115720000Y-69400000D02*
X115720000Y-68800000D01*
X116660000Y-68800000D02*
X116660000Y-69400000D01*
X116660000Y-69400000D02*
X118260000Y-69400000D01*
X118260000Y-69400000D02*
X118260000Y-68800000D01*
X119200000Y-68800000D02*
X119200000Y-69400000D01*
X119200000Y-69400000D02*
X120800000Y-69400000D01*
X119750000Y-73290000D02*
X120000000Y-73820000D01*
X119750000Y-73820000D02*
X119750000Y-74820000D01*
X120000000Y-73820000D02*
X120000000Y-74820000D01*
X120800000Y-69400000D02*
X120800000Y-68800000D01*
X121380000Y-68800000D02*
X111000000Y-68800000D01*
X121380000Y-74820000D02*
X121380000Y-68800000D01*
X121670000Y-73830000D02*
X121670000Y-69830000D01*
%TO.C,J8*%
X131290000Y-106860000D02*
X131290000Y-112880000D01*
X131290000Y-112880000D02*
X139130000Y-112880000D01*
X131870000Y-106860000D02*
X131870000Y-107460000D01*
X131870000Y-107460000D02*
X133470000Y-107460000D01*
X132670000Y-111880000D02*
X132920000Y-111350000D01*
X132670000Y-111880000D02*
X137750000Y-111880000D01*
X132670000Y-112880000D02*
X132670000Y-111880000D01*
X132920000Y-111350000D02*
X137500000Y-111350000D01*
X132920000Y-111880000D02*
X132920000Y-112880000D01*
X133470000Y-107460000D02*
X133470000Y-106860000D01*
X134410000Y-106860000D02*
X134410000Y-107460000D01*
X134410000Y-107460000D02*
X136010000Y-107460000D01*
X136010000Y-107460000D02*
X136010000Y-106860000D01*
X136950000Y-106860000D02*
X136950000Y-107460000D01*
X136950000Y-107460000D02*
X138550000Y-107460000D01*
X137500000Y-111350000D02*
X137750000Y-111880000D01*
X137500000Y-111880000D02*
X137500000Y-112880000D01*
X137750000Y-111880000D02*
X137750000Y-112880000D01*
X138550000Y-107460000D02*
X138550000Y-106860000D01*
X139130000Y-106860000D02*
X131290000Y-106860000D01*
X139130000Y-112880000D02*
X139130000Y-106860000D01*
X139420000Y-111890000D02*
X139420000Y-107890000D01*
%TO.C,J10*%
X114540000Y-117470000D02*
X114540000Y-125310000D01*
X114540000Y-119650000D02*
X115140000Y-119650000D01*
X114540000Y-122190000D02*
X115140000Y-122190000D01*
X114540000Y-124730000D02*
X115140000Y-124730000D01*
X114540000Y-125310000D02*
X120560000Y-125310000D01*
X115140000Y-118050000D02*
X114540000Y-118050000D01*
X115140000Y-119650000D02*
X115140000Y-118050000D01*
X115140000Y-120590000D02*
X114540000Y-120590000D01*
X115140000Y-122190000D02*
X115140000Y-120590000D01*
X115140000Y-123130000D02*
X114540000Y-123130000D01*
X115140000Y-124730000D02*
X115140000Y-123130000D01*
X119030000Y-119100000D02*
X119560000Y-118850000D01*
X119030000Y-123680000D02*
X119030000Y-119100000D01*
X119560000Y-118850000D02*
X120560000Y-118850000D01*
X119560000Y-119100000D02*
X120560000Y-119100000D01*
X119560000Y-123680000D02*
X120560000Y-123680000D01*
X119560000Y-123930000D02*
X119030000Y-123680000D01*
X119560000Y-123930000D02*
X119560000Y-118850000D01*
X119570000Y-117180000D02*
X115570000Y-117180000D01*
X120560000Y-117470000D02*
X114540000Y-117470000D01*
X120560000Y-123930000D02*
X119560000Y-123930000D01*
X120560000Y-125310000D02*
X120560000Y-117470000D01*
%TO.C,J9*%
X104780000Y-122440000D02*
X104780000Y-130280000D01*
X104780000Y-124620000D02*
X105380000Y-124620000D01*
X104780000Y-127160000D02*
X105380000Y-127160000D01*
X104780000Y-129700000D02*
X105380000Y-129700000D01*
X104780000Y-130280000D02*
X110800000Y-130280000D01*
X105380000Y-123020000D02*
X104780000Y-123020000D01*
X105380000Y-124620000D02*
X105380000Y-123020000D01*
X105380000Y-125560000D02*
X104780000Y-125560000D01*
X105380000Y-127160000D02*
X105380000Y-125560000D01*
X105380000Y-128100000D02*
X104780000Y-128100000D01*
X105380000Y-129700000D02*
X105380000Y-128100000D01*
X109270000Y-124070000D02*
X109800000Y-123820000D01*
X109270000Y-128650000D02*
X109270000Y-124070000D01*
X109800000Y-123820000D02*
X110800000Y-123820000D01*
X109800000Y-124070000D02*
X110800000Y-124070000D01*
X109800000Y-128650000D02*
X110800000Y-128650000D01*
X109800000Y-128900000D02*
X109270000Y-128650000D01*
X109800000Y-128900000D02*
X109800000Y-123820000D01*
X109810000Y-122150000D02*
X105810000Y-122150000D01*
X110800000Y-122440000D02*
X104780000Y-122440000D01*
X110800000Y-128900000D02*
X109800000Y-128900000D01*
X110800000Y-130280000D02*
X110800000Y-122440000D01*
%TO.C,J17*%
X116672100Y-93208600D02*
X116672100Y-95291400D01*
X116672100Y-95291400D02*
X123834900Y-95291400D01*
X123834900Y-93208600D02*
X116672100Y-93208600D01*
X123834900Y-95291400D02*
X123834900Y-93208600D01*
%TO.C,J22*%
X138440000Y-119600000D02*
X138440000Y-129980000D01*
X138440000Y-121780000D02*
X139040000Y-121780000D01*
X138440000Y-124320000D02*
X139040000Y-124320000D01*
X138440000Y-126860000D02*
X139040000Y-126860000D01*
X138440000Y-129400000D02*
X139040000Y-129400000D01*
X138440000Y-129980000D02*
X144460000Y-129980000D01*
X139040000Y-120180000D02*
X138440000Y-120180000D01*
X139040000Y-121780000D02*
X139040000Y-120180000D01*
X139040000Y-122720000D02*
X138440000Y-122720000D01*
X139040000Y-124320000D02*
X139040000Y-122720000D01*
X139040000Y-125260000D02*
X138440000Y-125260000D01*
X139040000Y-126860000D02*
X139040000Y-125260000D01*
X139040000Y-127800000D02*
X138440000Y-127800000D01*
X139040000Y-129400000D02*
X139040000Y-127800000D01*
X142930000Y-121230000D02*
X143460000Y-120980000D01*
X142930000Y-128350000D02*
X142930000Y-121230000D01*
X143460000Y-120980000D02*
X144460000Y-120980000D01*
X143460000Y-121230000D02*
X144460000Y-121230000D01*
X143460000Y-128350000D02*
X144460000Y-128350000D01*
X143460000Y-128600000D02*
X142930000Y-128350000D01*
X143460000Y-128600000D02*
X143460000Y-120980000D01*
X143470000Y-119310000D02*
X139470000Y-119310000D01*
X144460000Y-119600000D02*
X138440000Y-119600000D01*
X144460000Y-128600000D02*
X143460000Y-128600000D01*
X144460000Y-129980000D02*
X144460000Y-119600000D01*
%TO.C,U2*%
X117673400Y-53470000D02*
X125523400Y-53470000D01*
X117673400Y-67470000D02*
X117673400Y-53470000D01*
X125523400Y-53470000D02*
X125523400Y-67470000D01*
X125523400Y-67470000D02*
X117673400Y-67470000D01*
X125853400Y-53170000D02*
X123403400Y-53170000D01*
X125853400Y-55500000D02*
X125853400Y-53170000D01*
%TO.C,J2*%
X124440000Y-45630000D02*
X133160000Y-45630000D01*
X124440000Y-51050000D02*
X124440000Y-45630000D01*
X124440000Y-51050000D02*
X133160000Y-51050000D01*
X133160000Y-45630000D02*
X134860000Y-46930000D01*
X133160000Y-51050000D02*
X134860000Y-49750000D01*
X134860000Y-49750000D02*
X134860000Y-46930000D01*
%TO.C,D2*%
X132302500Y-90955000D02*
X132302500Y-93225000D01*
X132302500Y-93225000D02*
X136187500Y-93225000D01*
X136187500Y-90955000D02*
X132302500Y-90955000D01*
%TO.C,J16*%
X147650000Y-106950000D02*
X147650000Y-114790000D01*
X147650000Y-108330000D02*
X148650000Y-108330000D01*
X147650000Y-114790000D02*
X153670000Y-114790000D01*
X148640000Y-115080000D02*
X152640000Y-115080000D01*
X148650000Y-108330000D02*
X148650000Y-113410000D01*
X148650000Y-108330000D02*
X149180000Y-108580000D01*
X148650000Y-108580000D02*
X147650000Y-108580000D01*
X148650000Y-113160000D02*
X147650000Y-113160000D01*
X148650000Y-113410000D02*
X147650000Y-113410000D01*
X149180000Y-108580000D02*
X149180000Y-113160000D01*
X149180000Y-113160000D02*
X148650000Y-113410000D01*
X153070000Y-107530000D02*
X153070000Y-109130000D01*
X153070000Y-109130000D02*
X153670000Y-109130000D01*
X153070000Y-110070000D02*
X153070000Y-111670000D01*
X153070000Y-111670000D02*
X153670000Y-111670000D01*
X153070000Y-112610000D02*
X153070000Y-114210000D01*
X153070000Y-114210000D02*
X153670000Y-114210000D01*
X153670000Y-106950000D02*
X147650000Y-106950000D01*
X153670000Y-107530000D02*
X153070000Y-107530000D01*
X153670000Y-110070000D02*
X153070000Y-110070000D01*
X153670000Y-112610000D02*
X153070000Y-112610000D01*
X153670000Y-114790000D02*
X153670000Y-106950000D01*
%TO.C,U1*%
X128973400Y-53400000D02*
X136823400Y-53400000D01*
X128973400Y-67400000D02*
X128973400Y-53400000D01*
X136823400Y-53400000D02*
X136823400Y-67400000D01*
X136823400Y-67400000D02*
X128973400Y-67400000D01*
X137153400Y-53100000D02*
X134703400Y-53100000D01*
X137153400Y-55430000D02*
X137153400Y-53100000D01*
%TO.C,JP1*%
X107510000Y-53865000D02*
X107510000Y-59005000D01*
X107510000Y-61605000D02*
X107510000Y-60275000D01*
X108840000Y-61605000D02*
X107510000Y-61605000D01*
X110170000Y-53865000D02*
X107510000Y-53865000D01*
X110170000Y-53865000D02*
X110170000Y-59005000D01*
X110170000Y-59005000D02*
X107510000Y-59005000D01*
%TO.C,C3*%
X147300000Y-57110000D02*
G75*
G02*
X139060000Y-57110000I-4120000J0D01*
G01*
X139060000Y-57110000D02*
G75*
G02*
X147300000Y-57110000I4120000J0D01*
G01*
%TO.C,J19*%
X131200000Y-100130000D02*
X131200000Y-104130000D01*
X131490000Y-99140000D02*
X131490000Y-105160000D01*
X131490000Y-105160000D02*
X146950000Y-105160000D01*
X132070000Y-104560000D02*
X132070000Y-105160000D01*
X132870000Y-100140000D02*
X132870000Y-99140000D01*
X133120000Y-100140000D02*
X133120000Y-99140000D01*
X133120000Y-100670000D02*
X132870000Y-100140000D01*
X133670000Y-104560000D02*
X132070000Y-104560000D01*
X133670000Y-105160000D02*
X133670000Y-104560000D01*
X134610000Y-104560000D02*
X134610000Y-105160000D01*
X136210000Y-104560000D02*
X134610000Y-104560000D01*
X136210000Y-105160000D02*
X136210000Y-104560000D01*
X137150000Y-104560000D02*
X137150000Y-105160000D01*
X138750000Y-104560000D02*
X137150000Y-104560000D01*
X138750000Y-105160000D02*
X138750000Y-104560000D01*
X139690000Y-104560000D02*
X139690000Y-105160000D01*
X141290000Y-104560000D02*
X139690000Y-104560000D01*
X141290000Y-105160000D02*
X141290000Y-104560000D01*
X142230000Y-104560000D02*
X142230000Y-105160000D01*
X143830000Y-104560000D02*
X142230000Y-104560000D01*
X143830000Y-105160000D02*
X143830000Y-104560000D01*
X144770000Y-104560000D02*
X144770000Y-105160000D01*
X145320000Y-100140000D02*
X145320000Y-99140000D01*
X145320000Y-100670000D02*
X133120000Y-100670000D01*
X145570000Y-99140000D02*
X145570000Y-100140000D01*
X145570000Y-100140000D02*
X132870000Y-100140000D01*
X145570000Y-100140000D02*
X145320000Y-100670000D01*
X146370000Y-104560000D02*
X144770000Y-104560000D01*
X146370000Y-105160000D02*
X146370000Y-104560000D01*
X146950000Y-99140000D02*
X131490000Y-99140000D01*
X146950000Y-105160000D02*
X146950000Y-99140000D01*
%TO.C,C1*%
X116600000Y-48490000D02*
G75*
G02*
X108360000Y-48490000I-4120000J0D01*
G01*
X108360000Y-48490000D02*
G75*
G02*
X116600000Y-48490000I4120000J0D01*
G01*
%TO.C,J11*%
X130280000Y-69840000D02*
X130280000Y-73840000D01*
X130570000Y-68850000D02*
X130570000Y-74870000D01*
X130570000Y-74870000D02*
X140950000Y-74870000D01*
X131150000Y-74270000D02*
X131150000Y-74870000D01*
X131950000Y-69850000D02*
X131950000Y-68850000D01*
X132200000Y-69850000D02*
X132200000Y-68850000D01*
X132200000Y-70380000D02*
X131950000Y-69850000D01*
X132750000Y-74270000D02*
X131150000Y-74270000D01*
X132750000Y-74870000D02*
X132750000Y-74270000D01*
X133690000Y-74270000D02*
X133690000Y-74870000D01*
X135290000Y-74270000D02*
X133690000Y-74270000D01*
X135290000Y-74870000D02*
X135290000Y-74270000D01*
X136230000Y-74270000D02*
X136230000Y-74870000D01*
X137830000Y-74270000D02*
X136230000Y-74270000D01*
X137830000Y-74870000D02*
X137830000Y-74270000D01*
X138770000Y-74270000D02*
X138770000Y-74870000D01*
X139320000Y-69850000D02*
X139320000Y-68850000D01*
X139320000Y-70380000D02*
X132200000Y-70380000D01*
X139570000Y-68850000D02*
X139570000Y-69850000D01*
X139570000Y-69850000D02*
X131950000Y-69850000D01*
X139570000Y-69850000D02*
X139320000Y-70380000D01*
X140370000Y-74270000D02*
X138770000Y-74270000D01*
X140370000Y-74870000D02*
X140370000Y-74270000D01*
X140950000Y-68850000D02*
X130570000Y-68850000D01*
X140950000Y-74870000D02*
X140950000Y-68850000D01*
%TO.C,J6*%
X147270000Y-76040000D02*
X147270000Y-82060000D01*
X147270000Y-82060000D02*
X152570000Y-82060000D01*
X147850000Y-76040000D02*
X147850000Y-76640000D01*
X147850000Y-76640000D02*
X149450000Y-76640000D01*
X148650000Y-81060000D02*
X148900000Y-80530000D01*
X148650000Y-81060000D02*
X151190000Y-81060000D01*
X148650000Y-82060000D02*
X148650000Y-81060000D01*
X148900000Y-80530000D02*
X150940000Y-80530000D01*
X148900000Y-81060000D02*
X148900000Y-82060000D01*
X149450000Y-76640000D02*
X149450000Y-76040000D01*
X150390000Y-76040000D02*
X150390000Y-76640000D01*
X150390000Y-76640000D02*
X151990000Y-76640000D01*
X150940000Y-80530000D02*
X151190000Y-81060000D01*
X150940000Y-81060000D02*
X150940000Y-82060000D01*
X151190000Y-81060000D02*
X151190000Y-82060000D01*
X151990000Y-76640000D02*
X151990000Y-76040000D01*
X152570000Y-76040000D02*
X147270000Y-76040000D01*
X152570000Y-82060000D02*
X152570000Y-76040000D01*
X152860000Y-81070000D02*
X152860000Y-77070000D01*
%TO.C,J21*%
X126830000Y-119600000D02*
X126830000Y-129980000D01*
X126830000Y-121780000D02*
X127430000Y-121780000D01*
X126830000Y-124320000D02*
X127430000Y-124320000D01*
X126830000Y-126860000D02*
X127430000Y-126860000D01*
X126830000Y-129400000D02*
X127430000Y-129400000D01*
X126830000Y-129980000D02*
X132850000Y-129980000D01*
X127430000Y-120180000D02*
X126830000Y-120180000D01*
X127430000Y-121780000D02*
X127430000Y-120180000D01*
X127430000Y-122720000D02*
X126830000Y-122720000D01*
X127430000Y-124320000D02*
X127430000Y-122720000D01*
X127430000Y-125260000D02*
X126830000Y-125260000D01*
X127430000Y-126860000D02*
X127430000Y-125260000D01*
X127430000Y-127800000D02*
X126830000Y-127800000D01*
X127430000Y-129400000D02*
X127430000Y-127800000D01*
X131320000Y-121230000D02*
X131850000Y-120980000D01*
X131320000Y-128350000D02*
X131320000Y-121230000D01*
X131850000Y-120980000D02*
X132850000Y-120980000D01*
X131850000Y-121230000D02*
X132850000Y-121230000D01*
X131850000Y-128350000D02*
X132850000Y-128350000D01*
X131850000Y-128600000D02*
X131320000Y-128350000D01*
X131850000Y-128600000D02*
X131850000Y-120980000D01*
X131860000Y-119310000D02*
X127860000Y-119310000D01*
X132850000Y-119600000D02*
X126830000Y-119600000D01*
X132850000Y-128600000D02*
X131850000Y-128600000D01*
X132850000Y-129980000D02*
X132850000Y-119600000D01*
%TO.C,Q1*%
X103290000Y-62530000D02*
X99530000Y-62530000D01*
X103290000Y-63790000D02*
X103290000Y-62530000D01*
X103290000Y-68090000D02*
X103290000Y-69350000D01*
X103290000Y-69350000D02*
X99530000Y-69350000D01*
X98490000Y-69580000D02*
X98010000Y-69580000D01*
X98250000Y-69250000D01*
X98490000Y-69580000D01*
G36*
X98490000Y-69580000D02*
G01*
X98010000Y-69580000D01*
X98250000Y-69250000D01*
X98490000Y-69580000D01*
G37*
%TO.C,J18*%
X116672100Y-102088600D02*
X116672100Y-104171400D01*
X116672100Y-104171400D02*
X123834900Y-104171400D01*
X123834900Y-102088600D02*
X116672100Y-102088600D01*
X123834900Y-104171400D02*
X123834900Y-102088600D01*
%TO.C,J20*%
X110870000Y-77520000D02*
X110870000Y-83540000D01*
X110870000Y-83540000D02*
X121250000Y-83540000D01*
X111450000Y-77520000D02*
X111450000Y-78120000D01*
X111450000Y-78120000D02*
X113050000Y-78120000D01*
X112250000Y-82540000D02*
X112500000Y-82010000D01*
X112250000Y-82540000D02*
X119870000Y-82540000D01*
X112250000Y-83540000D02*
X112250000Y-82540000D01*
X112500000Y-82010000D02*
X119620000Y-82010000D01*
X112500000Y-82540000D02*
X112500000Y-83540000D01*
X113050000Y-78120000D02*
X113050000Y-77520000D01*
X113990000Y-77520000D02*
X113990000Y-78120000D01*
X113990000Y-78120000D02*
X115590000Y-78120000D01*
X115590000Y-78120000D02*
X115590000Y-77520000D01*
X116530000Y-77520000D02*
X116530000Y-78120000D01*
X116530000Y-78120000D02*
X118130000Y-78120000D01*
X118130000Y-78120000D02*
X118130000Y-77520000D01*
X119070000Y-77520000D02*
X119070000Y-78120000D01*
X119070000Y-78120000D02*
X120670000Y-78120000D01*
X119620000Y-82010000D02*
X119870000Y-82540000D01*
X119620000Y-82540000D02*
X119620000Y-83540000D01*
X119870000Y-82540000D02*
X119870000Y-83540000D01*
X120670000Y-78120000D02*
X120670000Y-77520000D01*
X121250000Y-77520000D02*
X110870000Y-77520000D01*
X121250000Y-83540000D02*
X121250000Y-77520000D01*
X121540000Y-82550000D02*
X121540000Y-78550000D01*
%TO.C,J24*%
X116672100Y-97698600D02*
X116672100Y-99781400D01*
X116672100Y-99781400D02*
X123834900Y-99781400D01*
X123834900Y-97698600D02*
X116672100Y-97698600D01*
X123834900Y-99781400D02*
X123834900Y-97698600D01*
%TO.C,J5*%
X154470000Y-62350000D02*
X154470000Y-67650000D01*
X154470000Y-63730000D02*
X155470000Y-63730000D01*
X154470000Y-67650000D02*
X160490000Y-67650000D01*
X155460000Y-67940000D02*
X159460000Y-67940000D01*
X155470000Y-63730000D02*
X155470000Y-66270000D01*
X155470000Y-63730000D02*
X156000000Y-63980000D01*
X155470000Y-63980000D02*
X154470000Y-63980000D01*
X155470000Y-66020000D02*
X154470000Y-66020000D01*
X155470000Y-66270000D02*
X154470000Y-66270000D01*
X156000000Y-63980000D02*
X156000000Y-66020000D01*
X156000000Y-66020000D02*
X155470000Y-66270000D01*
X159890000Y-62930000D02*
X159890000Y-64530000D01*
X159890000Y-64530000D02*
X160490000Y-64530000D01*
X159890000Y-65470000D02*
X159890000Y-67070000D01*
X159890000Y-67070000D02*
X160490000Y-67070000D01*
X160490000Y-62350000D02*
X154470000Y-62350000D01*
X160490000Y-62930000D02*
X159890000Y-62930000D01*
X160490000Y-65470000D02*
X159890000Y-65470000D01*
X160490000Y-67650000D02*
X160490000Y-62350000D01*
%TO.C,J15*%
X130230000Y-80920000D02*
X130230000Y-84920000D01*
X130520000Y-79930000D02*
X130520000Y-85950000D01*
X130520000Y-85950000D02*
X140900000Y-85950000D01*
X131100000Y-85350000D02*
X131100000Y-85950000D01*
X131900000Y-80930000D02*
X131900000Y-79930000D01*
X132150000Y-80930000D02*
X132150000Y-79930000D01*
X132150000Y-81460000D02*
X131900000Y-80930000D01*
X132700000Y-85350000D02*
X131100000Y-85350000D01*
X132700000Y-85950000D02*
X132700000Y-85350000D01*
X133640000Y-85350000D02*
X133640000Y-85950000D01*
X135240000Y-85350000D02*
X133640000Y-85350000D01*
X135240000Y-85950000D02*
X135240000Y-85350000D01*
X136180000Y-85350000D02*
X136180000Y-85950000D01*
X137780000Y-85350000D02*
X136180000Y-85350000D01*
X137780000Y-85950000D02*
X137780000Y-85350000D01*
X138720000Y-85350000D02*
X138720000Y-85950000D01*
X139270000Y-80930000D02*
X139270000Y-79930000D01*
X139270000Y-81460000D02*
X132150000Y-81460000D01*
X139520000Y-79930000D02*
X139520000Y-80930000D01*
X139520000Y-80930000D02*
X131900000Y-80930000D01*
X139520000Y-80930000D02*
X139270000Y-81460000D01*
X140320000Y-85350000D02*
X138720000Y-85350000D01*
X140320000Y-85950000D02*
X140320000Y-85350000D01*
X140900000Y-79930000D02*
X130520000Y-79930000D01*
X140900000Y-85950000D02*
X140900000Y-79930000D01*
%TO.C,J25*%
X116672100Y-88628600D02*
X116672100Y-90711400D01*
X116672100Y-90711400D02*
X123834900Y-90711400D01*
X123834900Y-88628600D02*
X116672100Y-88628600D01*
X123834900Y-90711400D02*
X123834900Y-88628600D01*
%TO.C,J4*%
X145210000Y-62410000D02*
X145210000Y-67710000D01*
X145210000Y-63790000D02*
X146210000Y-63790000D01*
X145210000Y-67710000D02*
X151230000Y-67710000D01*
X146200000Y-68000000D02*
X150200000Y-68000000D01*
X146210000Y-63790000D02*
X146210000Y-66330000D01*
X146210000Y-63790000D02*
X146740000Y-64040000D01*
X146210000Y-64040000D02*
X145210000Y-64040000D01*
X146210000Y-66080000D02*
X145210000Y-66080000D01*
X146210000Y-66330000D02*
X145210000Y-66330000D01*
X146740000Y-64040000D02*
X146740000Y-66080000D01*
X146740000Y-66080000D02*
X146210000Y-66330000D01*
X150630000Y-62990000D02*
X150630000Y-64590000D01*
X150630000Y-64590000D02*
X151230000Y-64590000D01*
X150630000Y-65530000D02*
X150630000Y-67130000D01*
X150630000Y-67130000D02*
X151230000Y-67130000D01*
X151230000Y-62410000D02*
X145210000Y-62410000D01*
X151230000Y-62990000D02*
X150630000Y-62990000D01*
X151230000Y-65530000D02*
X150630000Y-65530000D01*
X151230000Y-67710000D02*
X151230000Y-62410000D01*
%TO.C,J23*%
X146920000Y-119600000D02*
X146920000Y-129980000D01*
X146920000Y-121780000D02*
X147520000Y-121780000D01*
X146920000Y-124320000D02*
X147520000Y-124320000D01*
X146920000Y-126860000D02*
X147520000Y-126860000D01*
X146920000Y-129400000D02*
X147520000Y-129400000D01*
X146920000Y-129980000D02*
X152940000Y-129980000D01*
X147520000Y-120180000D02*
X146920000Y-120180000D01*
X147520000Y-121780000D02*
X147520000Y-120180000D01*
X147520000Y-122720000D02*
X146920000Y-122720000D01*
X147520000Y-124320000D02*
X147520000Y-122720000D01*
X147520000Y-125260000D02*
X146920000Y-125260000D01*
X147520000Y-126860000D02*
X147520000Y-125260000D01*
X147520000Y-127800000D02*
X146920000Y-127800000D01*
X147520000Y-129400000D02*
X147520000Y-127800000D01*
X151410000Y-121230000D02*
X151940000Y-120980000D01*
X151410000Y-128350000D02*
X151410000Y-121230000D01*
X151940000Y-120980000D02*
X152940000Y-120980000D01*
X151940000Y-121230000D02*
X152940000Y-121230000D01*
X151940000Y-128350000D02*
X152940000Y-128350000D01*
X151940000Y-128600000D02*
X151410000Y-128350000D01*
X151940000Y-128600000D02*
X151940000Y-120980000D01*
X151950000Y-119310000D02*
X147950000Y-119310000D01*
X152940000Y-119600000D02*
X146920000Y-119600000D01*
X152940000Y-128600000D02*
X151940000Y-128600000D01*
X152940000Y-129980000D02*
X152940000Y-119600000D01*
%TD*%
M02*
