%TF.GenerationSoftware,KiCad,Pcbnew,8.0.7-8.0.7-0~ubuntu22.04.1*%
%TF.CreationDate,2025-12-10T15:44:10+01:00*%
%TF.ProjectId,Electrobot-G474,456c6563-7472-46f6-926f-742d47343734,rev?*%
%TF.SameCoordinates,Original*%
%TF.FileFunction,Paste,Top*%
%TF.FilePolarity,Positive*%
%FSLAX46Y46*%
G04 Gerber Fmt 4.6, Leading zero omitted, Abs format (unit mm)*
G04 Created by KiCad (PCBNEW 8.0.7-8.0.7-0~ubuntu22.04.1) date 2025-12-10 15:44:10*
%MOMM*%
%LPD*%
G01*
G04 APERTURE LIST*
G04 Aperture macros list*
%AMRoundRect*
0 Rectangle with rounded corners*
0 $1 Rounding radius*
0 $2 $3 $4 $5 $6 $7 $8 $9 X,Y pos of 4 corners*
0 Add a 4 corners polygon primitive as box body*
4,1,4,$2,$3,$4,$5,$6,$7,$8,$9,$2,$3,0*
0 Add four circle primitives for the rounded corners*
1,1,$1+$1,$2,$3*
1,1,$1+$1,$4,$5*
1,1,$1+$1,$6,$7*
1,1,$1+$1,$8,$9*
0 Add four rect primitives between the rounded corners*
20,1,$1+$1,$2,$3,$4,$5,0*
20,1,$1+$1,$4,$5,$6,$7,0*
20,1,$1+$1,$6,$7,$8,$9,0*
20,1,$1+$1,$8,$9,$2,$3,0*%
G04 Aperture macros list end*
%ADD10RoundRect,0.250000X-0.312500X-0.625000X0.312500X-0.625000X0.312500X0.625000X-0.312500X0.625000X0*%
%ADD11RoundRect,0.250000X0.625000X-0.312500X0.625000X0.312500X-0.625000X0.312500X-0.625000X-0.312500X0*%
%ADD12RoundRect,0.250000X0.312500X0.625000X-0.312500X0.625000X-0.312500X-0.625000X0.312500X-0.625000X0*%
%ADD13RoundRect,0.250000X-0.325000X-0.650000X0.325000X-0.650000X0.325000X0.650000X-0.325000X0.650000X0*%
%ADD14RoundRect,0.250000X0.650000X-0.325000X0.650000X0.325000X-0.650000X0.325000X-0.650000X-0.325000X0*%
%ADD15RoundRect,0.250000X0.325000X0.650000X-0.325000X0.650000X-0.325000X-0.650000X0.325000X-0.650000X0*%
%ADD16RoundRect,0.250000X-0.625000X0.312500X-0.625000X-0.312500X0.625000X-0.312500X0.625000X0.312500X0*%
%ADD17RoundRect,0.250000X-0.650000X0.325000X-0.650000X-0.325000X0.650000X-0.325000X0.650000X0.325000X0*%
G04 APERTURE END LIST*
D10*
%TO.C,R9*%
X140297500Y-107890000D03*
X143222500Y-107890000D03*
%TD*%
%TO.C,R14*%
X99482500Y-103090000D03*
X102407500Y-103090000D03*
%TD*%
D11*
%TO.C,R11*%
X108740000Y-73622500D03*
X108740000Y-70697500D03*
%TD*%
D12*
%TO.C,R24*%
X138920000Y-92130000D03*
X135995000Y-92130000D03*
%TD*%
%TO.C,R10*%
X105592500Y-122180000D03*
X102667500Y-122180000D03*
%TD*%
D13*
%TO.C,C12*%
X132425000Y-112780000D03*
X135375000Y-112780000D03*
%TD*%
D12*
%TO.C,R23*%
X138990000Y-96050000D03*
X136065000Y-96050000D03*
%TD*%
D11*
%TO.C,R1*%
X94900000Y-65592500D03*
X94900000Y-62667500D03*
%TD*%
D10*
%TO.C,R18*%
X145397500Y-86480000D03*
X148322500Y-86480000D03*
%TD*%
D14*
%TO.C,C10*%
X145770000Y-113155000D03*
X145770000Y-110205000D03*
%TD*%
D15*
%TO.C,C9*%
X102420000Y-105800000D03*
X99470000Y-105800000D03*
%TD*%
D16*
%TO.C,R15*%
X142230000Y-110217500D03*
X142230000Y-113142500D03*
%TD*%
D12*
%TO.C,R8*%
X102407500Y-100210000D03*
X99482500Y-100210000D03*
%TD*%
D17*
%TO.C,C2*%
X112630000Y-54405000D03*
X112630000Y-57355000D03*
%TD*%
D13*
%TO.C,C5*%
X102270000Y-89770000D03*
X105220000Y-89770000D03*
%TD*%
D16*
%TO.C,R13*%
X145710000Y-89027500D03*
X145710000Y-91952500D03*
%TD*%
D10*
%TO.C,R3*%
X140587500Y-68730000D03*
X143512500Y-68730000D03*
%TD*%
D17*
%TO.C,C13*%
X152900000Y-126875000D03*
X152900000Y-129825000D03*
%TD*%
D12*
%TO.C,R7*%
X112332500Y-68150000D03*
X109407500Y-68150000D03*
%TD*%
D11*
%TO.C,R22*%
X108470000Y-82942500D03*
X108470000Y-80017500D03*
%TD*%
D10*
%TO.C,R20*%
X122917500Y-123190000D03*
X125842500Y-123190000D03*
%TD*%
D16*
%TO.C,R16*%
X102970000Y-125055000D03*
X102970000Y-127980000D03*
%TD*%
D10*
%TO.C,R12*%
X140497500Y-89370000D03*
X143422500Y-89370000D03*
%TD*%
%TO.C,R21*%
X122917500Y-126140000D03*
X125842500Y-126140000D03*
%TD*%
D14*
%TO.C,C11*%
X99810000Y-128055000D03*
X99810000Y-125105000D03*
%TD*%
D12*
%TO.C,R19*%
X112242500Y-77360000D03*
X109317500Y-77360000D03*
%TD*%
D17*
%TO.C,C7*%
X140180000Y-62325000D03*
X140180000Y-65275000D03*
%TD*%
D10*
%TO.C,R17*%
X140267500Y-86510000D03*
X143192500Y-86510000D03*
%TD*%
D11*
%TO.C,R4*%
X146000000Y-75612500D03*
X146000000Y-72687500D03*
%TD*%
D16*
%TO.C,R2*%
X94990000Y-68207500D03*
X94990000Y-71132500D03*
%TD*%
D17*
%TO.C,C4*%
X100230000Y-80230000D03*
X100230000Y-83180000D03*
%TD*%
D10*
%TO.C,R5*%
X140507500Y-78280000D03*
X143432500Y-78280000D03*
%TD*%
D14*
%TO.C,C8*%
X113280000Y-129030000D03*
X113280000Y-126080000D03*
%TD*%
D16*
%TO.C,R6*%
X145960000Y-78097500D03*
X145960000Y-81022500D03*
%TD*%
M02*
