%TF.GenerationSoftware,KiCad,Pcbnew,8.0.7-8.0.7-0~ubuntu22.04.1*%
%TF.CreationDate,2025-12-10T15:44:22+01:00*%
%TF.ProjectId,Electrobot-G474,456c6563-7472-46f6-926f-742d47343734,rev?*%
%TF.SameCoordinates,Original*%
%TF.FileFunction,Soldermask,Top*%
%TF.FilePolarity,Negative*%
%FSLAX46Y46*%
G04 Gerber Fmt 4.6, Leading zero omitted, Abs format (unit mm)*
G04 Created by KiCad (PCBNEW 8.0.7-8.0.7-0~ubuntu22.04.1) date 2025-12-10 15:44:22*
%MOMM*%
%LPD*%
G01*
G04 APERTURE LIST*
G04 Aperture macros list*
%AMRoundRect*
0 Rectangle with rounded corners*
0 $1 Rounding radius*
0 $2 $3 $4 $5 $6 $7 $8 $9 X,Y pos of 4 corners*
0 Add a 4 corners polygon primitive as box body*
4,1,4,$2,$3,$4,$5,$6,$7,$8,$9,$2,$3,0*
0 Add four circle primitives for the rounded corners*
1,1,$1+$1,$2,$3*
1,1,$1+$1,$4,$5*
1,1,$1+$1,$6,$7*
1,1,$1+$1,$8,$9*
0 Add four rect primitives between the rounded corners*
20,1,$1+$1,$2,$3,$4,$5,0*
20,1,$1+$1,$4,$5,$6,$7,0*
20,1,$1+$1,$6,$7,$8,$9,0*
20,1,$1+$1,$8,$9,$2,$3,0*%
G04 Aperture macros list end*
%ADD10RoundRect,0.250000X-0.312500X-0.625000X0.312500X-0.625000X0.312500X0.625000X-0.312500X0.625000X0*%
%ADD11RoundRect,0.250000X0.625000X-0.312500X0.625000X0.312500X-0.625000X0.312500X-0.625000X-0.312500X0*%
%ADD12C,5.400000*%
%ADD13RoundRect,0.250000X0.312500X0.625000X-0.312500X0.625000X-0.312500X-0.625000X0.312500X-0.625000X0*%
%ADD14RoundRect,0.250000X-0.325000X-0.650000X0.325000X-0.650000X0.325000X0.650000X-0.325000X0.650000X0*%
%ADD15RoundRect,0.250000X0.650000X-0.325000X0.650000X0.325000X-0.650000X0.325000X-0.650000X-0.325000X0*%
%ADD16RoundRect,0.250000X0.325000X0.650000X-0.325000X0.650000X-0.325000X-0.650000X0.325000X-0.650000X0*%
%ADD17RoundRect,0.250000X-0.625000X0.312500X-0.625000X-0.312500X0.625000X-0.312500X0.625000X0.312500X0*%
%ADD18RoundRect,0.250000X-0.650000X0.325000X-0.650000X-0.325000X0.650000X-0.325000X0.650000X0.325000X0*%
%ADD19C,3.200000*%
%ADD20RoundRect,0.102000X-0.762000X-0.762000X0.762000X-0.762000X0.762000X0.762000X-0.762000X0.762000X0*%
%ADD21C,1.728000*%
%ADD22R,3.000000X3.000000*%
%ADD23C,3.000000*%
%ADD24RoundRect,0.250000X-0.845000X0.620000X-0.845000X-0.620000X0.845000X-0.620000X0.845000X0.620000X0*%
%ADD25O,2.190000X1.740000*%
%ADD26O,1.600000X2.600000*%
%ADD27RoundRect,0.250000X-0.620000X-0.845000X0.620000X-0.845000X0.620000X0.845000X-0.620000X0.845000X0*%
%ADD28O,1.740000X2.190000*%
%ADD29RoundRect,0.250000X0.845000X-0.620000X0.845000X0.620000X-0.845000X0.620000X-0.845000X-0.620000X0*%
%ADD30RoundRect,0.250000X0.620000X0.845000X-0.620000X0.845000X-0.620000X-0.845000X0.620000X-0.845000X0*%
%ADD31C,1.700000*%
%ADD32R,2.500000X1.500000*%
%ADD33O,2.500000X1.500000*%
%ADD34R,1.700000X1.700000*%
%ADD35O,1.700000X1.700000*%
%ADD36O,2.600000X1.600000*%
G04 APERTURE END LIST*
D10*
%TO.C,R9*%
X140297500Y-107890000D03*
X143222500Y-107890000D03*
%TD*%
%TO.C,R14*%
X99482500Y-103090000D03*
X102407500Y-103090000D03*
%TD*%
D11*
%TO.C,R11*%
X108740000Y-73622500D03*
X108740000Y-70697500D03*
%TD*%
D12*
%TO.C,H4*%
X157800000Y-128020000D03*
%TD*%
D13*
%TO.C,R24*%
X138920000Y-92130000D03*
X135995000Y-92130000D03*
%TD*%
%TO.C,R10*%
X105592500Y-122180000D03*
X102667500Y-122180000D03*
%TD*%
D14*
%TO.C,C12*%
X132425000Y-112780000D03*
X135375000Y-112780000D03*
%TD*%
D13*
%TO.C,R23*%
X138990000Y-96050000D03*
X136065000Y-96050000D03*
%TD*%
D11*
%TO.C,R1*%
X94900000Y-65592500D03*
X94900000Y-62667500D03*
%TD*%
D10*
%TO.C,R18*%
X145397500Y-86480000D03*
X148322500Y-86480000D03*
%TD*%
D15*
%TO.C,C10*%
X145770000Y-113155000D03*
X145770000Y-110205000D03*
%TD*%
D16*
%TO.C,C9*%
X102420000Y-105800000D03*
X99470000Y-105800000D03*
%TD*%
D17*
%TO.C,R15*%
X142230000Y-110217500D03*
X142230000Y-113142500D03*
%TD*%
D12*
%TO.C,H3*%
X94910000Y-128020000D03*
%TD*%
D13*
%TO.C,R8*%
X102407500Y-100210000D03*
X99482500Y-100210000D03*
%TD*%
D18*
%TO.C,C2*%
X112630000Y-54405000D03*
X112630000Y-57355000D03*
%TD*%
D14*
%TO.C,C5*%
X102270000Y-89770000D03*
X105220000Y-89770000D03*
%TD*%
D17*
%TO.C,R13*%
X145710000Y-89027500D03*
X145710000Y-91952500D03*
%TD*%
D10*
%TO.C,R3*%
X140587500Y-68730000D03*
X143512500Y-68730000D03*
%TD*%
D18*
%TO.C,C13*%
X152900000Y-126875000D03*
X152900000Y-129825000D03*
%TD*%
D13*
%TO.C,R7*%
X112332500Y-68150000D03*
X109407500Y-68150000D03*
%TD*%
D11*
%TO.C,R22*%
X108470000Y-82942500D03*
X108470000Y-80017500D03*
%TD*%
D10*
%TO.C,R20*%
X122917500Y-123190000D03*
X125842500Y-123190000D03*
%TD*%
D12*
%TO.C,H1*%
X157800000Y-46990000D03*
%TD*%
%TO.C,H2*%
X94910000Y-46990000D03*
%TD*%
D17*
%TO.C,R16*%
X102970000Y-125055000D03*
X102970000Y-127980000D03*
%TD*%
D10*
%TO.C,R12*%
X140497500Y-89370000D03*
X143422500Y-89370000D03*
%TD*%
%TO.C,R21*%
X122917500Y-126140000D03*
X125842500Y-126140000D03*
%TD*%
D15*
%TO.C,C11*%
X99810000Y-128055000D03*
X99810000Y-125105000D03*
%TD*%
D13*
%TO.C,R19*%
X112242500Y-77360000D03*
X109317500Y-77360000D03*
%TD*%
D18*
%TO.C,C7*%
X140180000Y-62325000D03*
X140180000Y-65275000D03*
%TD*%
D19*
%TO.C,U3*%
X102369700Y-71550000D03*
X135389700Y-123620000D03*
X150629700Y-72820000D03*
D20*
X94749700Y-75360000D03*
D21*
X97289700Y-75360000D03*
X94749700Y-77900000D03*
X97289700Y-77900000D03*
X94749700Y-80440000D03*
X97289700Y-80440000D03*
X94749700Y-82980000D03*
X97289700Y-82980000D03*
X94749700Y-85520000D03*
X97289700Y-85520000D03*
X94749700Y-88060000D03*
X97289700Y-88060000D03*
X94749700Y-90600000D03*
X97289700Y-90600000D03*
X94749700Y-93140000D03*
X97289700Y-93140000D03*
X94749700Y-95680000D03*
X97289700Y-95680000D03*
X94749700Y-98220000D03*
X97289700Y-98220000D03*
X94749700Y-100760000D03*
X97289700Y-100760000D03*
X94749700Y-103300000D03*
X97289700Y-103300000D03*
X94749700Y-105840000D03*
X97289700Y-105840000D03*
X94749700Y-108380000D03*
X97289700Y-108380000D03*
X94749700Y-110920000D03*
X97289700Y-110920000D03*
X94749700Y-113460000D03*
X97289700Y-113460000D03*
X94749700Y-116000000D03*
X97289700Y-116000000D03*
X94749700Y-118540000D03*
X97289700Y-118540000D03*
X94749700Y-121080000D03*
X97289700Y-121080000D03*
X155709700Y-75360000D03*
X158249700Y-75360000D03*
X155709700Y-77900000D03*
X158249700Y-77900000D03*
X155709700Y-80440000D03*
X158249700Y-80440000D03*
X155709700Y-82980000D03*
X158249700Y-82980000D03*
X155709700Y-85520000D03*
X158249700Y-85520000D03*
X155709700Y-88060000D03*
X158249700Y-88060000D03*
X155709700Y-90600000D03*
X158249700Y-90600000D03*
X155709700Y-93140000D03*
X158249700Y-93140000D03*
X155709700Y-95680000D03*
X158249700Y-95680000D03*
X155709700Y-98220000D03*
X158249700Y-98220000D03*
X155709700Y-100760000D03*
X158249700Y-100760000D03*
X155709700Y-103300000D03*
X158249700Y-103300000D03*
X155709700Y-105840000D03*
X158249700Y-105840000D03*
X155709700Y-108380000D03*
X158249700Y-108380000D03*
X155709700Y-110920000D03*
X158249700Y-110920000D03*
X155709700Y-113460000D03*
X158249700Y-113460000D03*
X155709700Y-116000000D03*
X158249700Y-116000000D03*
X155709700Y-118540000D03*
X158249700Y-118540000D03*
X155709700Y-121080000D03*
X158249700Y-121080000D03*
%TD*%
D10*
%TO.C,R17*%
X140267500Y-86510000D03*
X143192500Y-86510000D03*
%TD*%
D11*
%TO.C,R4*%
X146000000Y-75612500D03*
X146000000Y-72687500D03*
%TD*%
D17*
%TO.C,R2*%
X94990000Y-68207500D03*
X94990000Y-71132500D03*
%TD*%
D18*
%TO.C,C4*%
X100230000Y-80230000D03*
X100230000Y-83180000D03*
%TD*%
D10*
%TO.C,R5*%
X140507500Y-78280000D03*
X143432500Y-78280000D03*
%TD*%
D15*
%TO.C,C8*%
X113280000Y-129030000D03*
X113280000Y-126080000D03*
%TD*%
D17*
%TO.C,R6*%
X145960000Y-78097500D03*
X145960000Y-81022500D03*
%TD*%
D22*
%TO.C,J3*%
X102030000Y-56640000D03*
D23*
X102030000Y-51640000D03*
%TD*%
D24*
%TO.C,J12*%
X150770000Y-90550000D03*
D25*
X150770000Y-93090000D03*
X150770000Y-95630000D03*
%TD*%
D26*
%TO.C,C6*%
X119010000Y-109340000D03*
X115510000Y-109340000D03*
%TD*%
D27*
%TO.C,J1*%
X102485000Y-92220000D03*
D28*
X105025000Y-92220000D03*
X107565000Y-92220000D03*
%TD*%
D24*
%TO.C,J13*%
X104330000Y-113440000D03*
D25*
X104330000Y-115980000D03*
X104330000Y-118520000D03*
%TD*%
D29*
%TO.C,J7*%
X107020000Y-104860000D03*
D25*
X107020000Y-102320000D03*
X107020000Y-99780000D03*
%TD*%
D30*
%TO.C,J14*%
X120000000Y-71830000D03*
D28*
X117460000Y-71830000D03*
X114920000Y-71830000D03*
X112380000Y-71830000D03*
%TD*%
D30*
%TO.C,J8*%
X137750000Y-109890000D03*
D28*
X135210000Y-109890000D03*
X132670000Y-109890000D03*
%TD*%
D24*
%TO.C,J10*%
X117570000Y-118850000D03*
D25*
X117570000Y-121390000D03*
X117570000Y-123930000D03*
%TD*%
D24*
%TO.C,J9*%
X107810000Y-123820000D03*
D25*
X107810000Y-126360000D03*
X107810000Y-128900000D03*
%TD*%
D31*
%TO.C,J17*%
X117713500Y-94250000D03*
X120253500Y-94250000D03*
X122793500Y-94250000D03*
%TD*%
D24*
%TO.C,J22*%
X141470000Y-120980000D03*
D25*
X141470000Y-123520000D03*
X141470000Y-126060000D03*
X141470000Y-128600000D03*
%TD*%
D32*
%TO.C,U2*%
X121600000Y-57920000D03*
D33*
X121600000Y-60460000D03*
X121600000Y-63000000D03*
%TD*%
D22*
%TO.C,J2*%
X132150000Y-48340000D03*
D23*
X127150000Y-48340000D03*
%TD*%
D29*
%TO.C,J16*%
X150640000Y-113410000D03*
D25*
X150640000Y-110870000D03*
X150640000Y-108330000D03*
%TD*%
D32*
%TO.C,U1*%
X132900000Y-57850000D03*
D33*
X132900000Y-60390000D03*
X132900000Y-62930000D03*
%TD*%
D34*
%TO.C,JP1*%
X108840000Y-60275000D03*
D35*
X108840000Y-57735000D03*
X108840000Y-55195000D03*
%TD*%
D36*
%TO.C,C3*%
X143180000Y-58860000D03*
X143180000Y-55360000D03*
%TD*%
D27*
%TO.C,J19*%
X132870000Y-102130000D03*
D28*
X135410000Y-102130000D03*
X137950000Y-102130000D03*
X140490000Y-102130000D03*
X143030000Y-102130000D03*
X145570000Y-102130000D03*
%TD*%
D36*
%TO.C,C1*%
X112480000Y-50240000D03*
X112480000Y-46740000D03*
%TD*%
D27*
%TO.C,J11*%
X131950000Y-71840000D03*
D28*
X134490000Y-71840000D03*
X137030000Y-71840000D03*
X139570000Y-71840000D03*
%TD*%
D30*
%TO.C,J6*%
X151190000Y-79070000D03*
D28*
X148650000Y-79070000D03*
%TD*%
D24*
%TO.C,J21*%
X129860000Y-120980000D03*
D25*
X129860000Y-123520000D03*
X129860000Y-126060000D03*
X129860000Y-128600000D03*
%TD*%
D31*
%TO.C,J18*%
X117713500Y-103130000D03*
X120253500Y-103130000D03*
X122793500Y-103130000D03*
%TD*%
D30*
%TO.C,J20*%
X119870000Y-80550000D03*
D28*
X117330000Y-80550000D03*
X114790000Y-80550000D03*
X112250000Y-80550000D03*
%TD*%
D31*
%TO.C,J24*%
X117713500Y-98740000D03*
X120253500Y-98740000D03*
X122793500Y-98740000D03*
%TD*%
D29*
%TO.C,J5*%
X157460000Y-66270000D03*
D25*
X157460000Y-63730000D03*
%TD*%
D27*
%TO.C,J15*%
X131900000Y-82920000D03*
D28*
X134440000Y-82920000D03*
X136980000Y-82920000D03*
X139520000Y-82920000D03*
%TD*%
D31*
%TO.C,J25*%
X117713500Y-89670000D03*
X120253500Y-89670000D03*
X122793500Y-89670000D03*
%TD*%
D29*
%TO.C,J4*%
X148200000Y-66330000D03*
D25*
X148200000Y-63790000D03*
%TD*%
D24*
%TO.C,J23*%
X149950000Y-120980000D03*
D25*
X149950000Y-123520000D03*
X149950000Y-126060000D03*
X149950000Y-128600000D03*
%TD*%
M02*
