M48
; DRILL file {KiCad 8.0.7-8.0.7-0~ubuntu22.04.1} date 2025-12-10T15:44:42+0100
; FORMAT={-:-/ absolute / inch / decimal}
; #@! TF.CreationDate,2025-12-10T15:44:42+01:00
; #@! TF.GenerationSoftware,Kicad,Pcbnew,8.0.7-8.0.7-0~ubuntu22.04.1
; #@! TF.FileFunction,Plated,1,2,PTH
FMAT,2
INCH
; #@! TA.AperFunction,Plated,PTH,ViaDrill
T1C0.0118
; #@! TA.AperFunction,Plated,PTH,ViaDrill
T2C0.0236
; #@! TA.AperFunction,Plated,PTH,ComponentDrill
T3C0.0315
; #@! TA.AperFunction,Plated,PTH,ComponentDrill
T4C0.0394
; #@! TA.AperFunction,Plated,PTH,ComponentDrill
T5C0.0400
; #@! TA.AperFunction,Plated,PTH,ComponentDrill
T6C0.0469
; #@! TA.AperFunction,Plated,PTH,ComponentDrill
T7C0.0709
; #@! TA.AperFunction,Plated,PTH,ComponentDrill
T8C0.1063
%
G90
G05
T1
X3.9Y-2.5961
X3.9476Y-2.5961
X3.9484Y-2.5295
X3.9484Y-2.6602
X3.9917Y-2.5287
X3.9917Y-2.661
X3.9921Y-2.5961
X4.0354Y-2.661
X4.0362Y-2.5272
X4.0374Y-2.5961
X4.0858Y-2.661
X4.0866Y-2.5272
X4.0878Y-2.5961
X5.7256Y-3.3579
T2
X3.8016Y-2.6843
X4.8441Y-4.7429
X5.3571Y-3.5669
X5.387Y-3.7339
X5.4307Y-4.1272
X5.8311Y-3.5236
X5.8319Y-3.7425
X5.8327Y-3.6205
X6.2972Y-3.922
T3
X4.4283Y-1.8402
X4.4283Y-1.978
X4.5476Y-4.3047
X4.6854Y-4.3047
X5.637Y-2.1795
X5.637Y-2.3173
T4
X4.285Y-2.173
X4.285Y-2.273
X4.285Y-2.373
X4.6344Y-3.5303
X4.6344Y-3.7106
X4.6344Y-3.8874
X4.6344Y-4.0602
X4.7344Y-3.5303
X4.7344Y-3.7106
X4.7344Y-3.8874
X4.7344Y-4.0602
X4.7874Y-2.2803
X4.7874Y-2.3803
X4.7874Y-2.4803
X4.8344Y-3.5303
X4.8344Y-3.7106
X4.8344Y-3.8874
X4.8344Y-4.0602
X5.2323Y-2.2776
X5.2323Y-2.3776
X5.2323Y-2.4776
T5
X3.7303Y-2.9669
X3.7303Y-3.0669
X3.7303Y-3.1669
X3.7303Y-3.2669
X3.7303Y-3.3669
X3.7303Y-3.4669
X3.7303Y-3.5669
X3.7303Y-3.6669
X3.7303Y-3.7669
X3.7303Y-3.8669
X3.7303Y-3.9669
X3.7303Y-4.0669
X3.7303Y-4.1669
X3.7303Y-4.2669
X3.7303Y-4.3669
X3.7303Y-4.4669
X3.7303Y-4.5669
X3.7303Y-4.6669
X3.7303Y-4.7669
X3.8303Y-2.9669
X3.8303Y-3.0669
X3.8303Y-3.1669
X3.8303Y-3.2669
X3.8303Y-3.3669
X3.8303Y-3.4669
X3.8303Y-3.5669
X3.8303Y-3.6669
X3.8303Y-3.7669
X3.8303Y-3.8669
X3.8303Y-3.9669
X3.8303Y-4.0669
X3.8303Y-4.1669
X3.8303Y-4.2669
X3.8303Y-4.3669
X3.8303Y-4.4669
X3.8303Y-4.5669
X3.8303Y-4.6669
X3.8303Y-4.7669
X6.1303Y-2.9669
X6.1303Y-3.0669
X6.1303Y-3.1669
X6.1303Y-3.2669
X6.1303Y-3.3669
X6.1303Y-3.4669
X6.1303Y-3.5669
X6.1303Y-3.6669
X6.1303Y-3.7669
X6.1303Y-3.8669
X6.1303Y-3.9669
X6.1303Y-4.0669
X6.1303Y-4.1669
X6.1303Y-4.2669
X6.1303Y-4.3669
X6.1303Y-4.4669
X6.1303Y-4.5669
X6.1303Y-4.6669
X6.1303Y-4.7669
X6.2303Y-2.9669
X6.2303Y-3.0669
X6.2303Y-3.1669
X6.2303Y-3.2669
X6.2303Y-3.3669
X6.2303Y-3.4669
X6.2303Y-3.5669
X6.2303Y-3.6669
X6.2303Y-3.7669
X6.2303Y-3.8669
X6.2303Y-3.9669
X6.2303Y-4.0669
X6.2303Y-4.1669
X6.2303Y-4.2669
X6.2303Y-4.3669
X6.2303Y-4.4669
X6.2303Y-4.5669
X6.2303Y-4.6669
X6.2303Y-4.7669
T6
X4.0348Y-3.6307
X4.1075Y-4.4661
X4.1075Y-4.5661
X4.1075Y-4.6661
X4.1348Y-3.6307
X4.2134Y-3.9283
X4.2134Y-4.0283
X4.2134Y-4.1283
X4.2348Y-3.6307
X4.2445Y-4.8748
X4.2445Y-4.9748
X4.2445Y-5.0748
X4.4193Y-3.1713
X4.4244Y-2.828
X4.5193Y-3.1713
X4.5244Y-2.828
X4.6193Y-3.1713
X4.6244Y-2.828
X4.6287Y-4.6791
X4.6287Y-4.7791
X4.6287Y-4.8791
X4.7193Y-3.1713
X4.7244Y-2.828
X5.1126Y-4.763
X5.1126Y-4.863
X5.1126Y-4.963
X5.1126Y-5.063
X5.1929Y-3.2646
X5.1949Y-2.8283
X5.2232Y-4.3264
X5.2311Y-4.0209
X5.2929Y-3.2646
X5.2949Y-2.8283
X5.3232Y-4.3264
X5.3311Y-4.0209
X5.3929Y-3.2646
X5.3949Y-2.8283
X5.4232Y-4.3264
X5.4311Y-4.0209
X5.4929Y-3.2646
X5.4949Y-2.8283
X5.5311Y-4.0209
X5.5697Y-4.763
X5.5697Y-4.863
X5.5697Y-4.963
X5.5697Y-5.063
X5.6311Y-4.0209
X5.7311Y-4.0209
X5.8346Y-2.5114
X5.8346Y-2.6114
X5.8524Y-3.113
X5.9035Y-4.763
X5.9035Y-4.863
X5.9035Y-4.963
X5.9035Y-5.063
X5.9307Y-4.265
X5.9307Y-4.365
X5.9307Y-4.465
X5.9358Y-3.565
X5.9358Y-3.665
X5.9358Y-3.765
X5.9524Y-3.113
X6.1992Y-2.5091
X6.1992Y-2.6091
T7
X4.0169Y-2.0331
X4.0169Y-2.2299
X5.0059Y-1.9031
X5.2028Y-1.9031
T8
X3.7366Y-1.85
X3.7366Y-5.0402
X6.2126Y-1.85
X6.2126Y-5.0402
M30
